STARTFONT 2.3
FONT -FontForge-Rajdhani-Book-R-Normal--14-140-72-72-P-85-ISO10646-1
SIZE 14 72 72  4
FONTBOUNDINGBOX 35 18 -6 -5
COMMENT "Generated by fontforge, http://fontforge.sourceforge.net"
COMMENT "Copyright (c) 2014 Indian Type Foundry (info@indiantypefoundry.com)"
STARTPROPERTIES 41
FOUNDRY "FontForge"
FAMILY_NAME "Rajdhani"
WEIGHT_NAME "Book"
SLANT "R"
SETWIDTH_NAME "Normal"
ADD_STYLE_NAME ""
PIXEL_SIZE 14
POINT_SIZE 140
RESOLUTION_X 72
RESOLUTION_Y 72
SPACING "P"
AVERAGE_WIDTH 85
CHARSET_REGISTRY "ISO10646"
CHARSET_ENCODING "1"
FONTNAME_REGISTRY ""
CHARSET_COLLECTIONS "ISO8859-2 ISO8859-9 ISO8859-4 ISO10646-1"
BITS_PER_PIXEL 4
FONT_NAME "Rajdhani-Regular"
FACE_NAME "Rajdhani Regular"
COPYRIGHT "Copyright (c) 2014 Indian Type Foundry (info@indiantypefoundry.com)"
FONT_VERSION "1.201;PS 1.0;hotconv 1.0.78;makeotf.lib2.5.61930; ttfautohint (v1.1) -l 7 -r 28 -G 50 -x 13 -D latn -f deva -w G"
FONT_ASCENT 11
FONT_DESCENT 3
UNDERLINE_POSITION -1
UNDERLINE_THICKNESS 1
X_HEIGHT 6
CAP_HEIGHT 8
DEFAULT_CHAR 3
RAW_ASCENT 800
RAW_DESCENT 200
NORM_SPACE 4
RELATIVE_WEIGHT 40
RELATIVE_SETWIDTH 50
SUPERSCRIPT_X 0
SUPERSCRIPT_Y 4
SUPERSCRIPT_SIZE 8
SUBSCRIPT_X 0
SUBSCRIPT_Y 1
SUBSCRIPT_SIZE 8
AVG_LOWERCASE_WIDTH 63
AVG_UPPERCASE_WIDTH 73
ENDPROPERTIES
CHARS 1043
STARTCHAR NULL.dup1
ENCODING 0
SWIDTH 0 0
DWIDTH 0 0
BBX 1 1 0 0
BITMAP
00
ENDCHAR
STARTCHAR CR
ENCODING 13
SWIDTH 0 0
DWIDTH 0 0
BBX 1 1 0 0
BITMAP
00
ENDCHAR
STARTCHAR space
ENCODING 32
SWIDTH 267 0
DWIDTH 4 0
BBX 1 1 0 0
BITMAP
00
ENDCHAR
STARTCHAR exclam
ENCODING 33
SWIDTH 237 0
DWIDTH 3 0
BBX 2 9 1 0
BITMAP
B1
B1
B1
B0
A0
80
00
A0
A0
ENDCHAR
STARTCHAR quotedbl
ENCODING 34
SWIDTH 330 0
DWIDTH 5 0
BBX 4 3 0 6
BITMAP
180A
1808
0505
ENDCHAR
STARTCHAR numbersign
ENCODING 35
SWIDTH 677 0
DWIDTH 9 0
BBX 9 9 0 0
BITMAP
0001700900
0006402800
029D99BA60
0009009000
0036009000
0072036000
2BEBBDC800
0090090000
0450080000
ENDCHAR
STARTCHAR dollar
ENCODING 36
SWIDTH 504 0
DWIDTH 7 0
BBX 6 12 1 -2
BITMAP
009000
6CBC60
B000B0
A00050
C00000
5BBC60
0000C0
600091
B000B0
6CBC60
009000
004000
ENDCHAR
STARTCHAR percent
ENCODING 37
SWIDTH 717 0
DWIDTH 10 0
BBX 10 9 0 0
BITMAP
1BBB107100
4506318000
4506363000
0ABA090000
0000450000
0000907880
0002736044
0008136045
001800BBB1
ENDCHAR
STARTCHAR ampersand
ENCODING 38
SWIDTH 597 0
DWIDTH 8 0
BBX 7 9 1 0
BITMAP
07CC7000
1B00B100
28007100
0A000000
6D800000
C08CBB60
A0073000
B000C300
6CBC6920
ENDCHAR
STARTCHAR quotesingle
ENCODING 39
SWIDTH 186 0
DWIDTH 3 0
BBX 1 3 1 6
BITMAP
90
80
50
ENDCHAR
STARTCHAR parenleft
ENCODING 40
SWIDTH 283 0
DWIDTH 4 0
BBX 3 11 0 -2
BITMAP
07B0
1900
3600
3600
3600
3600
3600
3600
3700
1A00
05B0
ENDCHAR
STARTCHAR parenright
ENCODING 41
SWIDTH 283 0
DWIDTH 4 0
BBX 3 11 0 -2
BITMAP
2C50
00B0
0090
0090
0090
0090
0090
0090
0090
01B0
2B30
ENDCHAR
STARTCHAR asterisk
ENCODING 42
SWIDTH 406 0
DWIDTH 6 0
BBX 4 4 1 5
BITMAP
0720
8766
1670
3241
ENDCHAR
STARTCHAR plus
ENCODING 43
SWIDTH 523 0
DWIDTH 7 0
BBX 6 5 1 2
BITMAP
009000
00A000
BBEBB3
00A000
009000
ENDCHAR
STARTCHAR comma
ENCODING 44
SWIDTH 191 0
DWIDTH 3 0
BBX 2 4 0 -2
BITMAP
1B
1A
16
01
ENDCHAR
STARTCHAR hyphen
ENCODING 45
SWIDTH 312 0
DWIDTH 4 0
BBX 4 1 0 4
BITMAP
4BB9
ENDCHAR
STARTCHAR period
ENCODING 46
SWIDTH 191 0
DWIDTH 3 0
BBX 2 2 0 0
BITMAP
1A
1B
ENDCHAR
STARTCHAR slash
ENCODING 47
SWIDTH 396 0
DWIDTH 6 0
BBX 5 9 0 0
BITMAP
000280
000830
000B00
003700
009200
00B000
046000
0A1000
1A0000
ENDCHAR
STARTCHAR zero
ENCODING 48
SWIDTH 514 0
DWIDTH 7 0
BBX 7 9 0 0
BITMAP
06CBB900
0B000930
1A000740
1A000740
1A000740
1A000740
1A000740
0B000930
06CBB900
ENDCHAR
STARTCHAR one
ENCODING 49
SWIDTH 317 0
DWIDTH 4 0
BBX 4 9 0 0
BITMAP
05D4
5674
0074
0074
0074
0074
0074
0074
0074
ENDCHAR
STARTCHAR two
ENCODING 50
SWIDTH 478 0
DWIDTH 7 0
BBX 6 9 0 0
BITMAP
08BBC4
2A001B
26000A
000038
000580
008500
093000
290000
2DBBBA
ENDCHAR
STARTCHAR three
ENCODING 51
SWIDTH 496 0
DWIDTH 7 0
BBX 6 9 0 0
BITMAP
07CBC6
1B000B
16000A
00001B
000BD5
00001B
16000A
1B000B
07CBC6
ENDCHAR
STARTCHAR four
ENCODING 52
SWIDTH 520 0
DWIDTH 7 0
BBX 7 9 0 0
BITMAP
0000A900
00066900
00191900
00921900
04601900
09001900
4CBBCE90
00001900
00001900
ENDCHAR
STARTCHAR five
ENCODING 53
SWIDTH 482 0
DWIDTH 7 0
BBX 6 9 0 0
BITMAP
1EBBB9
1A0000
1A0000
1BBBB4
07001B
00000B
16000B
0B000B
06CBC5
ENDCHAR
STARTCHAR six
ENCODING 54
SWIDTH 497 0
DWIDTH 7 0
BBX 7 9 0 0
BITMAP
08CBB600
2B000000
38000000
38000000
3DBBB500
38000C00
38000A10
2A000B00
08BBC700
ENDCHAR
STARTCHAR seven
ENCODING 55
SWIDTH 380 0
DWIDTH 5 0
BBX 5 9 0 0
BITMAP
8BBBE0
0001A0
000650
000B00
002900
008300
00B000
047000
091000
ENDCHAR
STARTCHAR eight
ENCODING 56
SWIDTH 519 0
DWIDTH 7 0
BBX 7 9 0 0
BITMAP
06CBBA00
0B000740
1A000550
0B000930
07DBCB00
0B000830
1A000550
0B000740
07CBBA00
ENDCHAR
STARTCHAR nine
ENCODING 57
SWIDTH 497 0
DWIDTH 7 0
BBX 6 9 0 0
BITMAP
08CBC6
2A000C
38000A
38000A
1B000A
06BBBE
00000A
00000B
08BBC6
ENDCHAR
STARTCHAR colon
ENCODING 58
SWIDTH 191 0
DWIDTH 3 0
BBX 2 7 0 0
BITMAP
1B
1A
00
00
00
1A
1B
ENDCHAR
STARTCHAR semicolon
ENCODING 59
SWIDTH 191 0
DWIDTH 3 0
BBX 2 9 0 -2
BITMAP
1B
1A
00
00
00
1B
1A
16
01
ENDCHAR
STARTCHAR less
ENCODING 60
SWIDTH 513 0
DWIDTH 7 0
BBX 7 5 0 2
BITMAP
00003920
02796100
1D400000
01797100
00003920
ENDCHAR
STARTCHAR equal
ENCODING 61
SWIDTH 531 0
DWIDTH 7 0
BBX 6 3 1 3
BITMAP
ABBBB4
000000
ABBBB4
ENDCHAR
STARTCHAR greater
ENCODING 62
SWIDTH 531 0
DWIDTH 7 0
BBX 6 5 1 2
BITMAP
950000
049830
0002C5
059830
950000
ENDCHAR
STARTCHAR question
ENCODING 63
SWIDTH 473 0
DWIDTH 7 0
BBX 5 9 1 0
BITMAP
5CBB20
B00380
800290
000930
009300
00A000
001000
00B000
00B000
ENDCHAR
STARTCHAR at
ENCODING 64
SWIDTH 753 0
DWIDTH 11 0
BBX 9 9 1 -1
BITMAP
03ABBBB800
3A20000640
913BBC3260
90A1064260
80A0064260
90A1094550
913BA6C900
4A20000000
03ABBB4000
ENDCHAR
STARTCHAR A
ENCODING 65
SWIDTH 533 0
DWIDTH 7 0
BBX 7 9 0 0
BITMAP
000D5000
0039A000
0083B100
00B07500
03902A00
08400C00
0CA99C40
2A000390
740000B0
ENDCHAR
STARTCHAR B
ENCODING 66
SWIDTH 546 0
DWIDTH 8 0
BBX 6 9 1 0
BITMAP
CBBBB1
B00047
B00028
B00056
CBBCD1
B00048
B0000A
B00029
CBBBB2
ENDCHAR
STARTCHAR C
ENCODING 67
SWIDTH 542 0
DWIDTH 8 0
BBX 6 9 1 0
BITMAP
5CBBB3
B0002A
B00009
B00000
B00000
B00000
B00009
B0002A
5CBBB3
ENDCHAR
STARTCHAR D
ENCODING 68
SWIDTH 557 0
DWIDTH 8 0
BBX 6 9 1 0
BITMAP
CBBBC3
B0002A
B0000B
B0000B
B0000B
B0000B
B0000B
B0002A
CBBBC3
ENDCHAR
STARTCHAR E
ENCODING 69
SWIDTH 481 0
DWIDTH 7 0
BBX 5 9 1 0
BITMAP
CBBB90
B00000
B00000
B00000
CBBB40
B00000
B00000
B00000
CBBB90
ENDCHAR
STARTCHAR F
ENCODING 70
SWIDTH 459 0
DWIDTH 6 0
BBX 5 9 1 0
BITMAP
CBBB90
B00000
B00000
B00000
CBBB40
B00000
B00000
B00000
A00000
ENDCHAR
STARTCHAR G
ENCODING 71
SWIDTH 539 0
DWIDTH 8 0
BBX 6 9 1 0
BITMAP
5CBBB1
B00057
B00025
B00000
B01BC6
B00038
B00038
B00066
5CBBB1
ENDCHAR
STARTCHAR H
ENCODING 72
SWIDTH 570 0
DWIDTH 8 0
BBX 6 9 1 0
BITMAP
A0000A
B0000B
B0000B
B0000B
CBBBBC
B0000B
B0000B
B0000B
A0000A
ENDCHAR
STARTCHAR I
ENCODING 73
SWIDTH 230 0
DWIDTH 3 0
BBX 1 9 1 0
BITMAP
A0
A0
A0
A0
A0
A0
A0
A0
A0
ENDCHAR
STARTCHAR J
ENCODING 74
SWIDTH 499 0
DWIDTH 7 0
BBX 6 9 0 0
BITMAP
00000A
00000A
00000A
00000A
00000A
21000A
74000A
66001B
1BBBC4
ENDCHAR
STARTCHAR K
ENCODING 75
SWIDTH 530 0
DWIDTH 7 0
BBX 6 9 1 0
BITMAP
A00075
B00490
B01B10
B0B200
B8C300
C71B00
B00570
B00093
A0001A
ENDCHAR
STARTCHAR L
ENCODING 76
SWIDTH 451 0
DWIDTH 6 0
BBX 5 9 1 0
BITMAP
A00000
B00000
B00000
B00000
B00000
B00000
B00000
B00000
CBBBA0
ENDCHAR
STARTCHAR M
ENCODING 77
SWIDTH 696 0
DWIDTH 10 0
BBX 8 9 1 0
BITMAP
C60000A8
BA0001B8
A7400858
A1900A28
A0925528
A028A028
A00A7028
A0000028
A0000028
ENDCHAR
STARTCHAR N
ENCODING 78
SWIDTH 579 0
DWIDTH 8 0
BBX 6 9 1 0
BITMAP
C2000A
BA000B
B7400B
B0B00B
B0570B
B00A1B
B0029B
B0008D
A0001C
ENDCHAR
STARTCHAR O
ENCODING 79
SWIDTH 553 0
DWIDTH 8 0
BBX 6 9 1 0
BITMAP
5CBBB2
B00039
B0000A
B0000A
B0000A
B0000A
B0000A
B00039
5CBBB2
ENDCHAR
STARTCHAR P
ENCODING 80
SWIDTH 524 0
DWIDTH 7 0
BBX 6 9 1 0
BITMAP
CBBBB1
B00056
B00038
B00038
B00066
CBBB90
B00000
B00000
A00000
ENDCHAR
STARTCHAR Q
ENCODING 81
SWIDTH 556 0
DWIDTH 8 0
BBX 6 11 1 -2
BITMAP
5CBBB2
B00029
B0000B
B0000B
B0000B
B0000B
B0000B
B0002A
5CBBC3
000930
0001A0
ENDCHAR
STARTCHAR R
ENCODING 82
SWIDTH 534 0
DWIDTH 7 0
BBX 6 9 1 0
BITMAP
CBBBA0
B00066
B00037
B00037
B00075
CBBD90
B00660
B000B0
A00057
ENDCHAR
STARTCHAR S
ENCODING 83
SWIDTH 562 0
DWIDTH 8 0
BBX 6 9 1 0
BITMAP
4CBBB2
B10039
B00006
940000
068850
000067
70000B
B1002A
4CBBC3
ENDCHAR
STARTCHAR T
ENCODING 84
SWIDTH 420 0
DWIDTH 6 0
BBX 6 9 0 0
BITMAP
8BDDB7
006400
006400
006400
006400
006400
006400
006400
006400
ENDCHAR
STARTCHAR U
ENCODING 85
SWIDTH 552 0
DWIDTH 8 0
BBX 6 9 1 0
BITMAP
A00019
A00019
A00019
A00019
A00019
A00019
A00019
B10048
4CBBB2
ENDCHAR
STARTCHAR V
ENCODING 86
SWIDTH 500 0
DWIDTH 7 0
BBX 7 9 0 0
BITMAP
73000370
38000830
0B000B00
09202900
05606500
01A0A100
00A1A000
00696000
002E2000
ENDCHAR
STARTCHAR W
ENCODING 87
SWIDTH 794 0
DWIDTH 11 0
BBX 11 9 0 0
BITMAP
74000E100390
48004A500660
1B0082900920
0B00A0A00B00
092190721A00
065550363700
028910097400
00AA000AA100
00A80006C000
ENDCHAR
STARTCHAR X
ENCODING 88
SWIDTH 504 0
DWIDTH 7 0
BBX 7 9 0 0
BITMAP
39000840
09302900
01A0A100
00697000
002F3000
0094A000
03808400
0B101B00
57000660
ENDCHAR
STARTCHAR Y
ENCODING 89
SWIDTH 493 0
DWIDTH 7 0
BBX 7 9 0 0
BITMAP
75000650
1B000B00
07506500
01B0B000
007A5000
001D0000
000B0000
000B0000
000A0000
ENDCHAR
STARTCHAR Z
ENCODING 90
SWIDTH 482 0
DWIDTH 7 0
BBX 7 9 0 0
BITMAP
3BBBBE00
00004800
0000B100
00075000
002A0000
00A20000
04700000
0B000000
5DBBBB10
ENDCHAR
STARTCHAR bracketleft
ENCODING 91
SWIDTH 287 0
DWIDTH 4 0
BBX 3 11 0 -2
BITMAP
1DB0
2800
2800
2800
2800
2800
2800
2800
2800
2800
1CB0
ENDCHAR
STARTCHAR backslash
ENCODING 92
SWIDTH 396 0
DWIDTH 6 0
BBX 5 9 0 0
BITMAP
1A0000
0A1000
057000
00B000
009200
003800
000B00
000830
000280
ENDCHAR
STARTCHAR bracketright
ENCODING 93
SWIDTH 287 0
DWIDTH 4 0
BBX 3 11 0 -2
BITMAP
1BE0
0090
0090
0090
0090
0090
0090
0090
0090
0090
1BC0
ENDCHAR
STARTCHAR asciicircum
ENCODING 94
SWIDTH 465 0
DWIDTH 7 0
BBX 6 4 0 5
BITMAP
007B10
01A380
0830A1
190037
ENDCHAR
STARTCHAR underscore
ENCODING 95
SWIDTH 372 0
DWIDTH 5 0
BBX 6 1 0 -2
BITMAP
BBBBB2
ENDCHAR
STARTCHAR grave
ENCODING 96
SWIDTH 269 0
DWIDTH 4 0
BBX 2 2 1 8
BITMAP
B2
28
ENDCHAR
STARTCHAR a
ENCODING 97
SWIDTH 502 0
DWIDTH 7 0
BBX 6 7 0 0
BITMAP
07CBBE
0B000B
19000B
19000B
19000B
0B000D
07CBAB
ENDCHAR
STARTCHAR b
ENCODING 98
SWIDTH 504 0
DWIDTH 7 0
BBX 6 10 1 0
BITMAP
A00000
B00000
B00000
B9BC70
C000A1
B00082
B00082
B00082
B000A1
DBBC70
ENDCHAR
STARTCHAR c
ENCODING 99
SWIDTH 394 0
DWIDTH 6 0
BBX 5 7 0 0
BITMAP
07CBB0
0B0000
190000
190000
190000
0B0000
07CBB0
ENDCHAR
STARTCHAR d
ENCODING 100
SWIDTH 504 0
DWIDTH 7 0
BBX 6 10 0 0
BITMAP
00000A
00000A
00000A
07CBAC
0B000D
19000A
19000A
19000A
0B000D
07CBAB
ENDCHAR
STARTCHAR e
ENCODING 101
SWIDTH 492 0
DWIDTH 7 0
BBX 7 7 0 0
BITMAP
07CBC600
0B000B00
19000A10
1EBBBC00
19000000
0B000000
07CBBA00
ENDCHAR
STARTCHAR f
ENCODING 102
SWIDTH 303 0
DWIDTH 4 0
BBX 4 10 0 0
BITMAP
00AB
0380
0560
5DDA
0560
0560
0560
0560
0560
0560
ENDCHAR
STARTCHAR g
ENCODING 103
SWIDTH 506 0
DWIDTH 7 0
BBX 6 9 1 -2
BITMAP
6CBBE1
B000A1
A000A1
A000A1
A000A1
C101D1
4BBAB1
0000B0
7BBC60
ENDCHAR
STARTCHAR h
ENCODING 104
SWIDTH 507 0
DWIDTH 7 0
BBX 6 10 1 0
BITMAP
A00000
B00000
B00000
B9BC70
D000B1
B00092
B00092
B00092
B00092
A00082
ENDCHAR
STARTCHAR i
ENCODING 105
SWIDTH 210 0
DWIDTH 3 0
BBX 1 10 1 0
BITMAP
A0
80
00
A0
A0
A0
A0
A0
A0
A0
ENDCHAR
STARTCHAR j
ENCODING 106
SWIDTH 210 0
DWIDTH 3 0
BBX 3 12 -1 -2
BITMAP
00A0
0080
0000
00A0
00A0
00A0
00A0
00A0
00A0
00A0
01A0
8C40
ENDCHAR
STARTCHAR k
ENCODING 107
SWIDTH 431 0
DWIDTH 6 0
BBX 5 10 1 0
BITMAP
A00000
B00000
B00000
B00750
B02A00
B0B200
B39000
B09300
B01B10
A00480
ENDCHAR
STARTCHAR l
ENCODING 108
SWIDTH 210 0
DWIDTH 3 0
BBX 1 10 1 0
BITMAP
A0
A0
A0
A0
A0
A0
A0
A0
A0
A0
ENDCHAR
STARTCHAR m
ENCODING 109
SWIDTH 769 0
DWIDTH 11 0
BBX 9 7 1 0
BITMAP
B9BC4ABC30
D001E101A0
B000B000B0
B000B000B0
B000B000B0
B000B000B0
A000A000A0
ENDCHAR
STARTCHAR n
ENCODING 110
SWIDTH 507 0
DWIDTH 7 0
BBX 6 7 1 0
BITMAP
B9BC70
D000B1
B00092
B00092
B00092
B00092
A00082
ENDCHAR
STARTCHAR o
ENCODING 111
SWIDTH 496 0
DWIDTH 7 0
BBX 7 7 0 0
BITMAP
07CBC600
0B000B00
19000A10
19000A10
19000A10
0B000B00
07CBC600
ENDCHAR
STARTCHAR p
ENCODING 112
SWIDTH 504 0
DWIDTH 7 0
BBX 6 9 1 -2
BITMAP
BABC70
D000A1
B00082
B00082
B00082
D000A1
BABC70
B00000
A00000
ENDCHAR
STARTCHAR q
ENCODING 113
SWIDTH 502 0
DWIDTH 7 0
BBX 6 9 0 -2
BITMAP
07CBBE
0B000B
19000B
19000B
19000B
0B000D
07CBBC
00000B
00000A
ENDCHAR
STARTCHAR r
ENCODING 114
SWIDTH 313 0
DWIDTH 4 0
BBX 3 7 1 0
BITMAP
BAB0
D100
B000
B000
B000
B000
A000
ENDCHAR
STARTCHAR s
ENCODING 115
SWIDTH 431 0
DWIDTH 6 0
BBX 6 7 0 0
BITMAP
1BBBA0
470000
1A2000
016740
000092
000084
2BBBB1
ENDCHAR
STARTCHAR t
ENCODING 116
SWIDTH 347 0
DWIDTH 5 0
BBX 5 9 0 0
BITMAP
041000
083000
7DCB10
083000
083000
083000
083000
075000
01BB30
ENDCHAR
STARTCHAR u
ENCODING 117
SWIDTH 507 0
DWIDTH 7 0
BBX 6 7 1 0
BITMAP
A000A1
A000A1
A000A1
A000A1
A000A1
B000C1
6CBAB1
ENDCHAR
STARTCHAR v
ENCODING 118
SWIDTH 416 0
DWIDTH 6 0
BBX 6 7 0 0
BITMAP
920046
460092
0A00B0
0A1370
055820
01AA00
00A800
ENDCHAR
STARTCHAR w
ENCODING 119
SWIDTH 683 0
DWIDTH 10 0
BBX 10 7 0 0
BITMAP
9200B40092
5600A800B0
1A045A0290
0A08181640
0739045A00
0298019A00
00C400B600
ENDCHAR
STARTCHAR x
ENCODING 120
SWIDTH 413 0
DWIDTH 6 0
BBX 6 7 0 0
BITMAP
5700A1
0A1470
039A00
00B800
038A10
0B1390
660093
ENDCHAR
STARTCHAR y
ENCODING 121
SWIDTH 459 0
DWIDTH 6 0
BBX 6 9 0 -2
BITMAP
74000A
290038
0A0083
0650B0
01A480
00AA20
003C00
006600
3B9000
ENDCHAR
STARTCHAR z
ENCODING 122
SWIDTH 405 0
DWIDTH 6 0
BBX 6 7 0 0
BITMAP
4BBBE1
000470
001A00
008300
038000
0A1000
6DBBB2
ENDCHAR
STARTCHAR braceleft
ENCODING 123
SWIDTH 298 0
DWIDTH 4 0
BBX 4 11 0 -2
BITMAP
01B3
0640
0720
0720
0810
6B00
0810
0720
0720
0550
01A3
ENDCHAR
STARTCHAR bar
ENCODING 124
SWIDTH 207 0
DWIDTH 3 0
BBX 1 9 1 0
BITMAP
90
90
90
90
90
90
90
90
90
ENDCHAR
STARTCHAR braceright
ENCODING 125
SWIDTH 298 0
DWIDTH 4 0
BBX 4 11 0 -2
BITMAP
5A00
0640
0550
0550
0370
00C4
0470
0550
0550
0730
5900
ENDCHAR
STARTCHAR asciitilde
ENCODING 126
SWIDTH 523 0
DWIDTH 7 0
BBX 6 1 1 4
BITMAP
9BBBA2
ENDCHAR
STARTCHAR uni00A0
ENCODING 160
SWIDTH 267 0
DWIDTH 4 0
BBX 1 1 0 0
BITMAP
00
ENDCHAR
STARTCHAR exclamdown
ENCODING 161
SWIDTH 237 0
DWIDTH 3 0
BBX 2 9 1 0
BITMAP
B0
A0
00
80
A0
B0
B1
B1
B1
ENDCHAR
STARTCHAR cent
ENCODING 162
SWIDTH 414 0
DWIDTH 6 0
BBX 6 11 0 -2
BITMAP
000500
000A00
07CBB3
0B0000
190000
190000
190000
0B0000
07CBB3
000A00
000200
ENDCHAR
STARTCHAR sterling
ENCODING 163
SWIDTH 528 0
DWIDTH 7 0
BBX 7 9 0 0
BITMAP
01BBBA00
06500750
07300220
07300000
5DCB7000
07300000
07300000
08200000
5EBBBB40
ENDCHAR
STARTCHAR yen
ENCODING 165
SWIDTH 499 0
DWIDTH 7 0
BBX 7 9 0 0
BITMAP
65000660
0B000B00
07505700
01B0B100
48B8B830
001D1000
5BBEBB50
000B0000
000A0000
ENDCHAR
STARTCHAR brokenbar
ENCODING 166
SWIDTH 201 0
DWIDTH 3 0
BBX 1 9 1 0
BITMAP
90
90
90
90
00
90
90
90
90
ENDCHAR
STARTCHAR section
ENCODING 167
SWIDTH 454 0
DWIDTH 6 0
BBX 6 9 0 0
BITMAP
0ABBB1
2A0000
2C1000
297881
1A0047
069878
000078
000057
0BBBB2
ENDCHAR
STARTCHAR dieresis
ENCODING 168
SWIDTH 345 0
DWIDTH 5 0
BBX 4 2 0 8
BITMAP
190A
1708
ENDCHAR
STARTCHAR copyright
ENCODING 169
SWIDTH 723 0
DWIDTH 10 0
BBX 9 9 1 0
BITMAP
6CBBBBB700
A000000910
806BB60710
8090090710
8080020710
8080030710
8080090710
A038840910
6CBBBBC700
ENDCHAR
STARTCHAR guillemotleft
ENCODING 171
SWIDTH 431 0
DWIDTH 6 0
BBX 6 5 0 1
BITMAP
006171
075740
191900
056560
004151
ENDCHAR
STARTCHAR registered
ENCODING 174
SWIDTH 439 0
DWIDTH 6 0
BBX 6 5 0 5
BITMAP
08BBA0
079A42
159B33
074452
07BB80
ENDCHAR
STARTCHAR macron
ENCODING 175
SWIDTH 358 0
DWIDTH 5 0
BBX 4 1 1 8
BITMAP
BBB1
ENDCHAR
STARTCHAR degree
ENCODING 176
SWIDTH 298 0
DWIDTH 4 0
BBX 3 3 1 7
BITMAP
BC00
7610
9B00
ENDCHAR
STARTCHAR plusminus
ENCODING 177
SWIDTH 523 0
DWIDTH 7 0
BBX 6 6 1 1
BITMAP
009000
00A000
BBEBB3
00A000
000000
BBBBB3
ENDCHAR
STARTCHAR acute
ENCODING 180
SWIDTH 269 0
DWIDTH 4 0
BBX 2 2 1 8
BITMAP
58
90
ENDCHAR
STARTCHAR paragraph
ENCODING 182
SWIDTH 513 0
DWIDTH 7 0
BBX 6 9 0 0
BITMAP
1BFCBD
4FF00A
4FF00A
3FF00A
05C00A
00900A
00900A
00900A
009009
ENDCHAR
STARTCHAR periodcentered
ENCODING 183
SWIDTH 207 0
DWIDTH 3 0
BBX 1 2 1 3
BITMAP
B0
B0
ENDCHAR
STARTCHAR cedilla
ENCODING 184
SWIDTH 257 0
DWIDTH 4 0
BBX 2 3 1 -3
BITMAP
52
95
B6
ENDCHAR
STARTCHAR guillemotright
ENCODING 187
SWIDTH 431 0
DWIDTH 6 0
BBX 6 5 0 1
BITMAP
171600
047470
008191
065650
151500
ENDCHAR
STARTCHAR questiondown
ENCODING 191
SWIDTH 473 0
DWIDTH 7 0
BBX 5 9 1 0
BITMAP
029000
028000
001000
028000
084000
760000
A00170
B00380
6A9A20
ENDCHAR
STARTCHAR Agrave
ENCODING 192
SWIDTH 532 0
DWIDTH 7 0
BBX 7 12 0 0
BITMAP
00600000
00570000
00040000
000D5000
0039A000
0083B100
00B07500
03902A00
08400C00
0CA99C40
2A000390
740000B0
ENDCHAR
STARTCHAR Aacute
ENCODING 193
SWIDTH 532 0
DWIDTH 7 0
BBX 7 12 0 0
BITMAP
00004200
0001B000
00032000
000D5000
0039A000
0083B100
00B07500
03902A00
08400C00
0CA99C40
2A000390
740000B0
ENDCHAR
STARTCHAR Acircumflex
ENCODING 194
SWIDTH 532 0
DWIDTH 7 0
BBX 7 12 0 0
BITMAP
00051000
00378000
00404000
000D5000
0039A000
0083B100
00B07500
03902A00
08400C00
0CA99C40
2A000390
740000B0
ENDCHAR
STARTCHAR Atilde
ENCODING 195
SWIDTH 532 0
DWIDTH 7 0
BBX 7 12 0 0
BITMAP
0052B100
00664300
00552200
000D5000
0039A000
0083B100
00B07500
03902A00
08400C00
0CA99C40
2A000390
740000B0
ENDCHAR
STARTCHAR Adieresis
ENCODING 196
SWIDTH 532 0
DWIDTH 7 0
BBX 7 12 0 0
BITMAP
00806200
00A07300
00000000
000D5000
0039A000
0083B100
00B07500
03902A00
08400C00
0CA99C40
2A000390
740000B0
ENDCHAR
STARTCHAR Aring
ENCODING 197
SWIDTH 532 0
DWIDTH 7 0
BBX 7 12 0 0
BITMAP
003C8000
00618000
002B7000
000D5000
0039A000
0083B100
00B07500
03902A00
08400C00
0CA99C40
2A000390
740000B0
ENDCHAR
STARTCHAR AE
ENCODING 198
SWIDTH 773 0
DWIDTH 11 0
BBX 10 9 0 0
BITMAP
00006FBBBA
0001CB0000
00075B0000
001B0B0000
00940BBBB5
02A00B0000
0ACBBE0000
4A000B0000
B1000BBBBA
ENDCHAR
STARTCHAR Ccedilla
ENCODING 199
SWIDTH 542 0
DWIDTH 8 0
BBX 6 12 1 -3
BITMAP
5CBBB3
B0002A
B00009
B00000
B00000
B00000
B00009
B0002A
5CBBB3
008400
001900
007900
ENDCHAR
STARTCHAR Egrave
ENCODING 200
SWIDTH 481 0
DWIDTH 7 0
BBX 5 12 1 0
BITMAP
060000
056000
004000
CBBB90
B00000
B00000
B00000
CBBB40
B00000
B00000
B00000
CBBB90
ENDCHAR
STARTCHAR Eacute
ENCODING 201
SWIDTH 481 0
DWIDTH 7 0
BBX 5 12 1 0
BITMAP
000600
006600
004000
CBBB90
B00000
B00000
B00000
CBBB40
B00000
B00000
B00000
CBBB90
ENDCHAR
STARTCHAR Ecircumflex
ENCODING 202
SWIDTH 481 0
DWIDTH 7 0
BBX 5 12 1 0
BITMAP
006000
066600
040400
CBBB90
B00000
B00000
B00000
CBBB40
B00000
B00000
B00000
CBBB90
ENDCHAR
STARTCHAR Edieresis
ENCODING 203
SWIDTH 481 0
DWIDTH 7 0
BBX 5 12 1 0
BITMAP
080800
0A0A00
000000
CBBB90
B00000
B00000
B00000
CBBB40
B00000
B00000
B00000
CBBB90
ENDCHAR
STARTCHAR Igrave
ENCODING 204
SWIDTH 230 0
DWIDTH 3 0
BBX 2 12 0 0
BITMAP
60
66
04
0A
0A
0A
0A
0A
0A
0A
0A
0A
ENDCHAR
STARTCHAR Iacute
ENCODING 205
SWIDTH 231 0
DWIDTH 3 0
BBX 3 12 1 0
BITMAP
0510
3900
4100
A000
A000
A000
A000
A000
A000
A000
A000
A000
ENDCHAR
STARTCHAR Icircumflex
ENCODING 206
SWIDTH 229 0
DWIDTH 3 0
BBX 3 12 0 0
BITMAP
0610
4770
4040
0A00
0A00
0A00
0A00
0A00
0A00
0A00
0A00
0A00
ENDCHAR
STARTCHAR Idieresis
ENCODING 207
SWIDTH 230 0
DWIDTH 3 0
BBX 4 12 0 0
BITMAP
8071
A091
0000
0A00
0A00
0A00
0A00
0A00
0A00
0A00
0A00
0A00
ENDCHAR
STARTCHAR Eth
ENCODING 208
SWIDTH 514 0
DWIDTH 7 0
BBX 7 9 0 0
BITMAP
0BBBBC30
0B0001A0
0B0000B0
0B0000B0
7EBB30B0
0B0000B0
0B0000B0
0B0001A0
0BBBBC30
ENDCHAR
STARTCHAR Ntilde
ENCODING 209
SWIDTH 579 0
DWIDTH 8 0
BBX 6 12 1 0
BITMAP
050A40
064470
03B150
C2000A
BA000B
B7400B
B0B00B
B0570B
B00A1B
B0029B
B0008D
A0001C
ENDCHAR
STARTCHAR Ograve
ENCODING 210
SWIDTH 553 0
DWIDTH 8 0
BBX 6 12 1 0
BITMAP
052000
029000
004000
5CBBB2
B00039
B0000A
B0000A
B0000A
B0000A
B0000A
B00039
5CBBB2
ENDCHAR
STARTCHAR Oacute
ENCODING 211
SWIDTH 553 0
DWIDTH 8 0
BBX 6 12 1 0
BITMAP
000420
001A00
003100
5CBBB2
B00039
B0000A
B0000A
B0000A
B0000A
B0000A
B00039
5CBBB2
ENDCHAR
STARTCHAR Ocircumflex
ENCODING 212
SWIDTH 553 0
DWIDTH 8 0
BBX 6 12 1 0
BITMAP
004200
018900
031310
5CBBB2
B00039
B0000A
B0000A
B0000A
B0000A
B0000A
B00039
5CBBB2
ENDCHAR
STARTCHAR Otilde
ENCODING 213
SWIDTH 553 0
DWIDTH 8 0
BBX 6 12 1 0
BITMAP
051B20
076450
059140
5CBBB2
B00039
B0000A
B0000A
B0000A
B0000A
B0000A
B00039
5CBBB2
ENDCHAR
STARTCHAR Odieresis
ENCODING 214
SWIDTH 553 0
DWIDTH 8 0
BBX 6 12 1 0
BITMAP
081440
091550
000000
5CBBB2
B00039
B0000A
B0000A
B0000A
B0000A
B0000A
B00039
5CBBB2
ENDCHAR
STARTCHAR multiply
ENCODING 215
SWIDTH 493 0
DWIDTH 7 0
BBX 5 5 1 2
BITMAP
410240
2B3B10
04F200
2B3B10
410240
ENDCHAR
STARTCHAR Oslash
ENCODING 216
SWIDTH 559 0
DWIDTH 8 0
BBX 8 9 0 0
BITMAP
05CBBB71
0B0005A0
0B0019B0
0B0081B0
0B0640B0
0B3700B0
0B9000B0
0D2002A0
27CBBC30
ENDCHAR
STARTCHAR Ugrave
ENCODING 217
SWIDTH 552 0
DWIDTH 8 0
BBX 6 12 1 0
BITMAP
043000
01A000
003100
A00019
A00019
A00019
A00019
A00019
A00019
A00019
B10048
4CBBB2
ENDCHAR
STARTCHAR Uacute
ENCODING 218
SWIDTH 552 0
DWIDTH 8 0
BBX 6 12 1 0
BITMAP
000420
001B00
003200
A00019
A00019
A00019
A00019
A00019
A00019
A00019
B10048
4CBBB2
ENDCHAR
STARTCHAR Ucircumflex
ENCODING 219
SWIDTH 552 0
DWIDTH 8 0
BBX 6 12 1 0
BITMAP
004200
018900
031310
A00019
A00019
A00019
A00019
A00019
A00019
A00019
B10048
4CBBB2
ENDCHAR
STARTCHAR Udieresis
ENCODING 220
SWIDTH 552 0
DWIDTH 8 0
BBX 6 12 1 0
BITMAP
081440
091550
000000
A00019
A00019
A00019
A00019
A00019
A00019
A00019
B10048
4CBBB2
ENDCHAR
STARTCHAR Yacute
ENCODING 221
SWIDTH 493 0
DWIDTH 7 0
BBX 7 12 0 0
BITMAP
00006000
00066000
00040000
75000650
1B000B00
07506500
01B0B000
007A5000
001D0000
000B0000
000B0000
000A0000
ENDCHAR
STARTCHAR Thorn
ENCODING 222
SWIDTH 501 0
DWIDTH 7 0
BBX 5 9 1 0
BITMAP
650000
650000
6DBC60
6500B0
6500A0
6500B0
6DBB50
650000
650000
ENDCHAR
STARTCHAR germandbls
ENCODING 223
SWIDTH 540 0
DWIDTH 8 0
BBX 6 9 1 0
BITMAP
4CBBA0
B10065
B00047
B00084
B06CC0
B00066
B00029
B00048
A09BB1
ENDCHAR
STARTCHAR agrave
ENCODING 224
SWIDTH 502 0
DWIDTH 7 0
BBX 6 10 0 0
BITMAP
006700
000910
000000
07CBBE
0B000B
19000B
19000B
19000B
0B000D
07CBAB
ENDCHAR
STARTCHAR aacute
ENCODING 225
SWIDTH 502 0
DWIDTH 7 0
BBX 6 10 0 0
BITMAP
0000B1
000640
000000
07CBBE
0B000B
19000B
19000B
19000B
0B000D
07CBAB
ENDCHAR
STARTCHAR acircumflex
ENCODING 226
SWIDTH 502 0
DWIDTH 7 0
BBX 6 10 0 0
BITMAP
001B40
006290
000000
07CBBE
0B000B
19000B
19000B
19000B
0B000D
07CBAB
ENDCHAR
STARTCHAR atilde
ENCODING 227
SWIDTH 504 0
DWIDTH 7 0
BBX 6 10 0 0
BITMAP
0064C3
004723
000000
07CBBE
0B000B
19000B
19000B
19000B
0B000D
07CBAB
ENDCHAR
STARTCHAR adieresis
ENCODING 228
SWIDTH 502 0
DWIDTH 7 0
BBX 6 10 0 0
BITMAP
00A073
008063
000000
07CBBE
0B000B
19000B
19000B
19000B
0B000D
07CBAB
ENDCHAR
STARTCHAR aring
ENCODING 229
SWIDTH 502 0
DWIDTH 7 0
BBX 6 10 0 0
BITMAP
004B60
006070
005B60
07CBBE
0B000B
19000B
19000B
19000B
0B000D
07CBAB
ENDCHAR
STARTCHAR ae
ENCODING 230
SWIDTH 795 0
DWIDTH 11 0
BBX 11 7 0 0
BITMAP
04BBC5BBB900
00001D100830
00000B000640
04100BBBBC30
19000B000000
1B001D200000
08CBB5CBBB20
ENDCHAR
STARTCHAR ccedilla
ENCODING 231
SWIDTH 394 0
DWIDTH 6 0
BBX 5 10 0 -3
BITMAP
07CBB0
0B0000
190000
190000
190000
0B0000
07CBB0
002900
000450
002C30
ENDCHAR
STARTCHAR egrave
ENCODING 232
SWIDTH 492 0
DWIDTH 7 0
BBX 7 10 0 0
BITMAP
00B20000
00280000
00000000
07CBC600
0B000B00
19000A10
1EBBBC00
19000000
0B000000
07CBBA00
ENDCHAR
STARTCHAR eacute
ENCODING 233
SWIDTH 492 0
DWIDTH 7 0
BBX 7 10 0 0
BITMAP
00049000
00091000
00000000
07CBC600
0B000B00
19000A10
1EBBBC00
19000000
0B000000
07CBBA00
ENDCHAR
STARTCHAR ecircumflex
ENCODING 234
SWIDTH 492 0
DWIDTH 7 0
BBX 7 10 0 0
BITMAP
002B2000
00818000
00000000
07CBC600
0B000B00
19000A10
1EBBBC00
19000000
0B000000
07CBBA00
ENDCHAR
STARTCHAR edieresis
ENCODING 235
SWIDTH 492 0
DWIDTH 7 0
BBX 7 10 0 0
BITMAP
00A0A000
00808000
00000000
07CBC600
0B000B00
19000A10
1EBBBC00
19000000
0B000000
07CBBA00
ENDCHAR
STARTCHAR igrave
ENCODING 236
SWIDTH 210 0
DWIDTH 3 0
BBX 3 10 -1 0
BITMAP
1B10
0370
0000
00A0
00A0
00A0
00A0
00A0
00A0
00A0
ENDCHAR
STARTCHAR iacute
ENCODING 237
SWIDTH 208 0
DWIDTH 3 0
BBX 2 10 1 0
BITMAP
1B
82
00
A0
A0
A0
A0
A0
A0
A0
ENDCHAR
STARTCHAR icircumflex
ENCODING 238
SWIDTH 210 0
DWIDTH 3 0
BBX 3 10 0 0
BITMAP
2B20
8180
0000
0A00
0A00
0A00
0A00
0A00
0A00
0A00
ENDCHAR
STARTCHAR idieresis
ENCODING 239
SWIDTH 210 0
DWIDTH 3 0
BBX 3 10 0 0
BITMAP
A0A0
8080
0000
0A00
0A00
0A00
0A00
0A00
0A00
0A00
ENDCHAR
STARTCHAR eth
ENCODING 240
SWIDTH 488 0
DWIDTH 7 0
BBX 6 10 0 0
BITMAP
009063
003C50
019780
012076
05BB9B
0C001D
19000B
19000B
0B000B
06CBC5
ENDCHAR
STARTCHAR ntilde
ENCODING 241
SWIDTH 507 0
DWIDTH 7 0
BBX 6 10 1 0
BITMAP
067C00
0A7500
000000
B9BC70
D000B1
B00092
B00092
B00092
B00092
A00082
ENDCHAR
STARTCHAR ograve
ENCODING 242
SWIDTH 496 0
DWIDTH 7 0
BBX 7 10 0 0
BITMAP
00C10000
00370000
00000000
07CBC600
0B000B00
19000A10
19000A10
19000A10
0B000B00
07CBC600
ENDCHAR
STARTCHAR oacute
ENCODING 243
SWIDTH 496 0
DWIDTH 7 0
BBX 7 10 0 0
BITMAP
0001B000
00082000
00000000
07CBC600
0B000B00
19000A10
19000A10
19000A10
0B000B00
07CBC600
ENDCHAR
STARTCHAR ocircumflex
ENCODING 244
SWIDTH 496 0
DWIDTH 7 0
BBX 7 10 0 0
BITMAP
002B2000
00818000
00000000
07CBC600
0B000B00
19000A10
19000A10
19000A10
0B000B00
07CBC600
ENDCHAR
STARTCHAR otilde
ENCODING 245
SWIDTH 496 0
DWIDTH 7 0
BBX 7 10 0 0
BITMAP
0168B000
00B65000
00000000
07CBC600
0B000B00
19000A10
19000A10
19000A10
0B000B00
07CBC600
ENDCHAR
STARTCHAR odieresis
ENCODING 246
SWIDTH 496 0
DWIDTH 7 0
BBX 7 10 0 0
BITMAP
00A0A000
00808000
00000000
07CBC600
0B000B00
19000A10
19000A10
19000A10
0B000B00
07CBC600
ENDCHAR
STARTCHAR divide
ENCODING 247
SWIDTH 510 0
DWIDTH 7 0
BBX 6 5 1 2
BITMAP
006000
000000
ABBBB1
000000
006000
ENDCHAR
STARTCHAR oslash
ENCODING 248
SWIDTH 521 0
DWIDTH 7 0
BBX 7 7 0 0
BITMAP
05CBB750
0B000C50
0B008A30
0B192830
0B920830
1E200A20
45CBC800
ENDCHAR
STARTCHAR ugrave
ENCODING 249
SWIDTH 507 0
DWIDTH 7 0
BBX 6 10 1 0
BITMAP
0B2000
028000
000000
A000A1
A000A1
A000A1
A000A1
A000A1
B000C1
6CBAB1
ENDCHAR
STARTCHAR uacute
ENCODING 250
SWIDTH 507 0
DWIDTH 7 0
BBX 6 10 1 0
BITMAP
001B00
007300
000000
A000A1
A000A1
A000A1
A000A1
A000A1
B000C1
6CBAB1
ENDCHAR
STARTCHAR ucircumflex
ENCODING 251
SWIDTH 507 0
DWIDTH 7 0
BBX 6 10 1 0
BITMAP
02B200
081800
000000
A000A1
A000A1
A000A1
A000A1
A000A1
B000C1
6CBAB1
ENDCHAR
STARTCHAR udieresis
ENCODING 252
SWIDTH 507 0
DWIDTH 7 0
BBX 6 10 1 0
BITMAP
0A0A00
080800
000000
A000A1
A000A1
A000A1
A000A1
A000A1
B000C1
6CBAB1
ENDCHAR
STARTCHAR yacute
ENCODING 253
SWIDTH 459 0
DWIDTH 6 0
BBX 6 12 0 -2
BITMAP
000490
000910
000000
74000A
290038
0A0083
0650B0
01A480
00AA20
003C00
006600
3B9000
ENDCHAR
STARTCHAR thorn
ENCODING 254
SWIDTH 508 0
DWIDTH 7 0
BBX 6 12 1 -2
BITMAP
A00000
B00000
B00000
B9BC80
C100A2
B00083
B00083
B00083
C100A2
B9BC80
B00000
A00000
ENDCHAR
STARTCHAR ydieresis
ENCODING 255
SWIDTH 459 0
DWIDTH 6 0
BBX 6 12 0 -2
BITMAP
0460A0
035080
000000
74000A
290038
0A0083
0650B0
01A480
00AA20
003C00
006600
3B9000
ENDCHAR
STARTCHAR Amacron
ENCODING 256
SWIDTH 532 0
DWIDTH 7 0
BBX 7 11 0 0
BITMAP
009BB300
00000000
000D5000
0039A000
0083B100
00B07500
03902A00
08400C00
0CA99C40
2A000390
740000B0
ENDCHAR
STARTCHAR amacron
ENCODING 257
SWIDTH 502 0
DWIDTH 7 0
BBX 6 9 0 0
BITMAP
008BB5
000000
07CBBE
0B000B
19000B
19000B
19000B
0B000D
07CBAB
ENDCHAR
STARTCHAR Abreve
ENCODING 258
SWIDTH 532 0
DWIDTH 7 0
BBX 7 12 0 0
BITMAP
00403100
00807100
00276000
000D5000
0039A000
0083B100
00B07500
03902A00
08400C00
0CA99C40
2A000390
740000B0
ENDCHAR
STARTCHAR abreve
ENCODING 259
SWIDTH 502 0
DWIDTH 7 0
BBX 6 10 0 0
BITMAP
007052
003770
000000
07CBBE
0B000B
19000B
19000B
19000B
0B000D
07CBAB
ENDCHAR
STARTCHAR Aogonek
ENCODING 260
SWIDTH 532 0
DWIDTH 7 0
BBX 7 11 0 -2
BITMAP
000D5000
0039A000
0083B100
00B07500
03902A00
08400C00
0CA99C40
2A000390
740000C0
00000340
00000870
ENDCHAR
STARTCHAR aogonek
ENCODING 261
SWIDTH 502 0
DWIDTH 7 0
BBX 6 9 0 -2
BITMAP
07CBBE
0B000B
19000B
19000B
19000B
0B000D
07CBAC
000034
000076
ENDCHAR
STARTCHAR Cacute
ENCODING 262
SWIDTH 542 0
DWIDTH 8 0
BBX 6 12 1 0
BITMAP
000420
001B00
003200
5CBBB3
B0002A
B00009
B00000
B00000
B00000
B00009
B0002A
5CBBB3
ENDCHAR
STARTCHAR cacute
ENCODING 263
SWIDTH 394 0
DWIDTH 6 0
BBX 5 10 0 0
BITMAP
000670
000900
000000
07CBB0
0B0000
190000
190000
190000
0B0000
07CBB0
ENDCHAR
STARTCHAR Cdotaccent
ENCODING 266
SWIDTH 542 0
DWIDTH 8 0
BBX 6 12 1 0
BITMAP
006300
007300
000000
5CBBB3
B0002A
B00009
B00000
B00000
B00000
B00009
B0002A
5CBBB3
ENDCHAR
STARTCHAR cdotaccent
ENCODING 267
SWIDTH 394 0
DWIDTH 6 0
BBX 5 10 0 0
BITMAP
002800
001700
000000
07CBB0
0B0000
190000
190000
190000
0B0000
07CBB0
ENDCHAR
STARTCHAR Ccaron
ENCODING 268
SWIDTH 542 0
DWIDTH 8 0
BBX 6 12 1 0
BITMAP
032310
018900
004300
5CBBB3
B0002A
B00009
B00000
B00000
B00000
B00009
B0002A
5CBBB3
ENDCHAR
STARTCHAR ccaron
ENCODING 269
SWIDTH 394 0
DWIDTH 6 0
BBX 5 10 0 0
BITMAP
009260
005A00
000000
07CBB0
0B0000
190000
190000
190000
0B0000
07CBB0
ENDCHAR
STARTCHAR Dcaron
ENCODING 270
SWIDTH 557 0
DWIDTH 8 0
BBX 6 12 1 0
BITMAP
031410
018900
005200
CBBBC3
B0002A
B0000B
B0000B
B0000B
B0000B
B0000B
B0002A
CBBBC3
ENDCHAR
STARTCHAR dcaron
ENCODING 271
SWIDTH 534 0
DWIDTH 7 0
BBX 8 10 0 0
BITMAP
00000A28
00000A37
00000A23
05102D00
09000B00
19000A00
19000A00
19000A00
0B000D00
07CBAB00
ENDCHAR
STARTCHAR Dcroat
ENCODING 272
SWIDTH 514 0
DWIDTH 7 0
BBX 7 9 0 0
BITMAP
0BBBBC30
0B0001A0
0B0000B0
7EBB30B0
0B0000B0
0B0000B0
0B0000B0
0B0001A0
0BBBBC30
ENDCHAR
STARTCHAR dcroat
ENCODING 273
SWIDTH 539 0
DWIDTH 8 0
BBX 8 10 0 0
BITMAP
00000A00
00000A00
002BBEC2
00000A00
05BB9B00
0B001D00
19000A00
19000A00
1B000C00
07CBAB00
ENDCHAR
STARTCHAR Emacron
ENCODING 274
SWIDTH 481 0
DWIDTH 7 0
BBX 5 11 1 0
BITMAP
1BBB00
000000
CBBB90
B00000
B00000
B00000
CBBB40
B00000
B00000
B00000
CBBB90
ENDCHAR
STARTCHAR emacron
ENCODING 275
SWIDTH 492 0
DWIDTH 7 0
BBX 7 9 0 0
BITMAP
00BBB000
00000000
07CBC600
0B000B00
19000A10
1EBBBC00
19000000
0B000000
07CBBA00
ENDCHAR
STARTCHAR Ebreve
ENCODING 276
SWIDTH 481 0
DWIDTH 7 0
BBX 5 12 1 0
BITMAP
040300
080700
057300
CBBB90
B00000
B00000
B00000
CBBB40
B00000
B00000
B00000
CBBB90
ENDCHAR
STARTCHAR ebreve
ENCODING 277
SWIDTH 492 0
DWIDTH 7 0
BBX 7 10 0 0
BITMAP
00807000
00574000
00000000
07CBC600
0B000B00
19000A10
1EBBBC00
19000000
0B000000
07CBBA00
ENDCHAR
STARTCHAR Edotaccent
ENCODING 278
SWIDTH 496 0
DWIDTH 7 0
BBX 5 12 1 0
BITMAP
008000
00A000
000000
CBBB90
B00000
B00000
B00000
CBBB40
B00000
B00000
B00000
CBBB90
ENDCHAR
STARTCHAR edotaccent
ENCODING 279
SWIDTH 492 0
DWIDTH 7 0
BBX 7 10 0 0
BITMAP
000A0000
00090000
00000000
07CBC600
0B000B00
19000A10
1EBBBC00
19000000
0B000000
07CBBA00
ENDCHAR
STARTCHAR Eogonek
ENCODING 280
SWIDTH 481 0
DWIDTH 7 0
BBX 5 11 1 -2
BITMAP
CBBB90
B00000
B00000
B00000
CBBB40
B00000
B00000
B00000
CBBB90
000700
003A10
ENDCHAR
STARTCHAR eogonek
ENCODING 281
SWIDTH 492 0
DWIDTH 7 0
BBX 7 9 0 -2
BITMAP
07CBC600
0B000B00
19000A10
1EBBBC00
19000000
0B000000
07CBBA00
00007000
0002A100
ENDCHAR
STARTCHAR Ecaron
ENCODING 282
SWIDTH 481 0
DWIDTH 7 0
BBX 5 12 1 0
BITMAP
040400
056600
006000
CBBB90
B00000
B00000
B00000
CBBB40
B00000
B00000
B00000
CBBB90
ENDCHAR
STARTCHAR ecaron
ENCODING 283
SWIDTH 492 0
DWIDTH 7 0
BBX 7 10 0 0
BITMAP
00818000
002C2000
00000000
07CBC600
0B000B00
19000A10
1EBBBC00
19000000
0B000000
07CBBA00
ENDCHAR
STARTCHAR Gcircumflex
ENCODING 284
SWIDTH 539 0
DWIDTH 8 0
BBX 6 12 1 0
BITMAP
005200
027800
031400
5CBBB1
B00057
B00025
B00000
B01BC6
B00038
B00038
B00066
5CBBB1
ENDCHAR
STARTCHAR gcircumflex
ENCODING 285
SWIDTH 506 0
DWIDTH 7 0
BBX 6 12 1 -2
BITMAP
00A500
053900
000000
6CBBE1
B000A1
A000A1
A000A1
A000A1
C101D1
4BBAB1
0000B0
7BBC60
ENDCHAR
STARTCHAR Gbreve
ENCODING 286
SWIDTH 539 0
DWIDTH 8 0
BBX 6 12 1 0
BITMAP
030210
070620
027600
5CBBB1
B00057
B00025
B00000
B01BC6
B00038
B00038
B00066
5CBBB1
ENDCHAR
STARTCHAR gbreve
ENCODING 287
SWIDTH 506 0
DWIDTH 7 0
BBX 6 12 1 -2
BITMAP
071440
027700
000000
6CBBE1
B000A1
A000A1
A000A1
A000A1
C101D1
4BBAB1
0000B0
7BBC60
ENDCHAR
STARTCHAR Gdotaccent
ENCODING 288
SWIDTH 539 0
DWIDTH 8 0
BBX 6 12 1 0
BITMAP
007100
008100
000000
5CBBB1
B00057
B00025
B00000
B01BC6
B00038
B00038
B00066
5CBBB1
ENDCHAR
STARTCHAR gdotaccent
ENCODING 289
SWIDTH 506 0
DWIDTH 7 0
BBX 6 12 1 -2
BITMAP
007300
006200
000000
6CBBE1
B000A1
A000A1
A000A1
A000A1
C101D1
4BBAB1
0000B0
7BBC60
ENDCHAR
STARTCHAR uni0122
ENCODING 290
SWIDTH 539 0
DWIDTH 8 0
BBX 6 12 1 -3
BITMAP
5CBBB1
B00057
B00025
B00000
B01BC6
B00038
B00038
B00066
5CBBB1
004500
005400
005100
ENDCHAR
STARTCHAR uni0123
ENCODING 291
SWIDTH 506 0
DWIDTH 7 0
BBX 6 13 1 -2
BITMAP
002200
007300
008200
000000
6CBBE1
B000A1
A000A1
A000A1
A000A1
C101D1
4BBAB1
0000B0
7BBC60
ENDCHAR
STARTCHAR hcircumflex
ENCODING 293
SWIDTH 507 0
DWIDTH 7 0
BBX 6 11 1 0
BITMAP
004200
A35810
B00000
B00000
B9BC70
D000B1
B00092
B00092
B00092
B00092
A00082
ENDCHAR
STARTCHAR Hbar
ENCODING 294
SWIDTH 523 0
DWIDTH 7 0
BBX 8 9 0 0
BITMAP
0A0000A0
0B0000B0
7EBBBBE8
0B0000B0
0BBBBBD0
0B0000B0
0B0000B0
0B0000B0
0A0000A0
ENDCHAR
STARTCHAR hbar
ENCODING 295
SWIDTH 544 0
DWIDTH 8 0
BBX 7 10 0 0
BITMAP
07300000
07400000
7DCB8000
07400000
078BBA10
07700480
074001A0
074001A0
074001A0
07300190
ENDCHAR
STARTCHAR Itilde
ENCODING 296
SWIDTH 230 0
DWIDTH 3 0
BBX 4 12 0 0
BITMAP
54B0
7861
8641
0A00
0A00
0A00
0A00
0A00
0A00
0A00
0A00
0A00
ENDCHAR
STARTCHAR itilde
ENCODING 297
SWIDTH 210 0
DWIDTH 3 0
BBX 3 10 0 0
BITMAP
68B0
B660
0000
0A00
0A00
0A00
0A00
0A00
0A00
0A00
ENDCHAR
STARTCHAR Imacron
ENCODING 298
SWIDTH 230 0
DWIDTH 3 0
BBX 4 11 0 0
BITMAP
ABB2
0000
0A00
0A00
0A00
0A00
0A00
0A00
0A00
0A00
0A00
ENDCHAR
STARTCHAR imacron
ENCODING 299
SWIDTH 208 0
DWIDTH 3 0
BBX 4 9 -1 0
BITMAP
1BBB
0000
00A0
00A0
00A0
00A0
00A0
00A0
00A0
ENDCHAR
STARTCHAR Ibreve
ENCODING 300
SWIDTH 231 0
DWIDTH 3 0
BBX 3 12 0 0
BITMAP
4030
8070
3750
0A00
0A00
0A00
0A00
0A00
0A00
0A00
0A00
0A00
ENDCHAR
STARTCHAR ibreve
ENCODING 301
SWIDTH 211 0
DWIDTH 3 0
BBX 3 10 0 0
BITMAP
8070
5750
0000
0A00
0A00
0A00
0A00
0A00
0A00
0A00
ENDCHAR
STARTCHAR Iogonek
ENCODING 302
SWIDTH 230 0
DWIDTH 3 0
BBX 2 11 0 -2
BITMAP
0A
0A
0A
0A
0A
0A
0A
0A
0A
25
78
ENDCHAR
STARTCHAR iogonek
ENCODING 303
SWIDTH 210 0
DWIDTH 3 0
BBX 2 12 0 -2
BITMAP
0A
08
00
0A
0A
0A
0A
0A
0A
0A
33
76
ENDCHAR
STARTCHAR Idotaccent
ENCODING 304
SWIDTH 230 0
DWIDTH 3 0
BBX 1 11 1 0
BITMAP
A0
80
A0
A0
A0
A0
A0
A0
A0
A0
A0
ENDCHAR
STARTCHAR dotlessi
ENCODING 305
SWIDTH 212 0
DWIDTH 3 0
BBX 1 7 1 0
BITMAP
A0
A0
A0
A0
A0
A0
A0
ENDCHAR
STARTCHAR IJ
ENCODING 306
SWIDTH 721 0
DWIDTH 10 0
BBX 8 9 1 0
BITMAP
A000000A
A000000A
A000000A
A000000A
A000000A
A012000A
A056000A
A038000B
A009BBC6
ENDCHAR
STARTCHAR ij
ENCODING 307
SWIDTH 419 0
DWIDTH 6 0
BBX 4 12 1 -2
BITMAP
A00A
8008
0000
A00A
A00B
A00B
A00B
A00B
A00B
A00B
002A
09C3
ENDCHAR
STARTCHAR Jcircumflex
ENCODING 308
SWIDTH 494 0
DWIDTH 7 0
BBX 7 12 0 0
BITMAP
00000600
00006650
00004040
00000A00
00000A00
00000A00
00000A00
00000A00
21000A00
74000A00
66001B00
1BBBC400
ENDCHAR
STARTCHAR jcircumflex
ENCODING 309
SWIDTH 209 0
DWIDTH 3 0
BBX 4 12 -1 -2
BITMAP
02B2
0818
0000
00A0
00A0
00A0
00A0
00A0
00A0
00A0
01A0
8C40
ENDCHAR
STARTCHAR uni0136
ENCODING 310
SWIDTH 530 0
DWIDTH 7 0
BBX 6 13 1 -4
BITMAP
A00075
B00490
B01B10
B0B200
B8C300
C71B00
B00570
B00093
A0001A
002400
004700
004300
001000
ENDCHAR
STARTCHAR uni0137
ENCODING 311
SWIDTH 431 0
DWIDTH 6 0
BBX 5 13 1 -3
BITMAP
A00000
B00000
B00000
B00750
B02A00
B0B200
B39000
B09300
B01B10
A00480
009000
009000
005000
ENDCHAR
STARTCHAR Lacute
ENCODING 313
SWIDTH 451 0
DWIDTH 6 0
BBX 5 12 1 0
BITMAP
061000
380000
400000
A00000
B00000
B00000
B00000
B00000
B00000
B00000
B00000
CBBBA0
ENDCHAR
STARTCHAR lacute
ENCODING 314
SWIDTH 207 0
DWIDTH 3 0
BBX 2 12 1 0
BITMAP
3A
40
A0
A0
A0
A0
A0
A0
A0
A0
A0
A0
ENDCHAR
STARTCHAR uni013B
ENCODING 315
SWIDTH 451 0
DWIDTH 6 0
BBX 5 12 1 -3
BITMAP
A00000
B00000
B00000
B00000
B00000
B00000
B00000
B00000
CBBBA0
009000
00A000
005000
ENDCHAR
STARTCHAR uni013C
ENCODING 316
SWIDTH 211 0
DWIDTH 3 0
BBX 1 13 1 -3
BITMAP
A0
A0
A0
A0
A0
A0
A0
A0
A0
A0
90
A0
50
ENDCHAR
STARTCHAR Lcaron
ENCODING 317
SWIDTH 451 0
DWIDTH 6 0
BBX 5 9 1 0
BITMAP
A00A10
B00900
B00500
B00000
B00000
B00000
B00000
B00000
CBBBA0
ENDCHAR
STARTCHAR lcaron
ENCODING 318
SWIDTH 274 0
DWIDTH 4 0
BBX 3 10 1 0
BITMAP
A290
A280
A230
A000
A000
A000
A000
A000
A000
A000
ENDCHAR
STARTCHAR Ldot
ENCODING 319
SWIDTH 500 0
DWIDTH 7 0
BBX 5 9 1 0
BITMAP
A00000
B00000
B00000
B00000
B02A00
B01900
B00000
B00000
CBBBB0
ENDCHAR
STARTCHAR ldot
ENCODING 320
SWIDTH 314 0
DWIDTH 4 0
BBX 3 10 1 0
BITMAP
A000
B000
B000
B000
B000
B0B0
B0A0
B000
B000
A000
ENDCHAR
STARTCHAR Lslash
ENCODING 321
SWIDTH 504 0
DWIDTH 7 0
BBX 6 9 0 0
BITMAP
0A0000
0B0000
0B8500
6E2000
2B0000
0B0000
0B0000
0B0000
0BBBBB
ENDCHAR
STARTCHAR lslash
ENCODING 322
SWIDTH 296 0
DWIDTH 4 0
BBX 4 10 0 0
BITMAP
0460
0460
0461
05C7
5B70
1460
0460
0460
0460
0460
ENDCHAR
STARTCHAR Nacute
ENCODING 323
SWIDTH 579 0
DWIDTH 8 0
BBX 6 12 1 0
BITMAP
000150
000930
000400
C2000A
BA000B
B7400B
B0B00B
B0570B
B00A1B
B0029B
B0008D
A0001C
ENDCHAR
STARTCHAR nacute
ENCODING 324
SWIDTH 507 0
DWIDTH 7 0
BBX 6 10 1 0
BITMAP
001B10
006300
000000
B9BC70
D000B1
B00092
B00092
B00092
B00092
A00082
ENDCHAR
STARTCHAR uni0145
ENCODING 325
SWIDTH 579 0
DWIDTH 8 0
BBX 6 12 1 -3
BITMAP
C2000A
BA000B
B7400B
B0B00B
B0570B
B00A1B
B0029B
B0008D
A0001C
003600
004500
004100
ENDCHAR
STARTCHAR uni0146
ENCODING 326
SWIDTH 505 0
DWIDTH 7 0
BBX 6 10 1 -3
BITMAP
B9BC70
D000B1
B00092
B00092
B00092
B00092
A00082
009000
00A000
005000
ENDCHAR
STARTCHAR Ncaron
ENCODING 327
SWIDTH 579 0
DWIDTH 8 0
BBX 6 12 1 0
BITMAP
013230
009810
003400
C2000A
BA000B
B7400B
B0B00B
B0570B
B00A1B
B0029B
B0008D
A0001C
ENDCHAR
STARTCHAR ncaron
ENCODING 328
SWIDTH 507 0
DWIDTH 7 0
BBX 6 10 1 0
BITMAP
081900
01B300
000000
B9BC70
D000B1
B00092
B00092
B00092
B00092
A00082
ENDCHAR
STARTCHAR Eng
ENCODING 330
SWIDTH 519 0
DWIDTH 7 0
BBX 6 11 1 -2
BITMAP
B2000A
BA000A
B7500A
B0B00A
B0570A
B00A1A
B0029A
B0008D
A0001D
00000B
0006C5
ENDCHAR
STARTCHAR eng
ENCODING 331
SWIDTH 507 0
DWIDTH 7 0
BBX 6 9 1 -2
BITMAP
B9BC70
D000B1
B00092
B00092
B00092
B00092
A00092
0000B1
004C70
ENDCHAR
STARTCHAR Omacron
ENCODING 332
SWIDTH 553 0
DWIDTH 8 0
BBX 6 11 1 0
BITMAP
08BB50
000000
5CBBB2
B00039
B0000A
B0000A
B0000A
B0000A
B0000A
B00039
5CBBB2
ENDCHAR
STARTCHAR omacron
ENCODING 333
SWIDTH 496 0
DWIDTH 7 0
BBX 7 9 0 0
BITMAP
01BBB000
00000000
07CBC600
0B000B00
19000A10
19000A10
19000A10
0B000B00
07CBC600
ENDCHAR
STARTCHAR Obreve
ENCODING 334
SWIDTH 553 0
DWIDTH 8 0
BBX 6 12 1 0
BITMAP
030120
071430
017700
5CBBB2
B00039
B0000A
B0000A
B0000A
B0000A
B0000A
B00039
5CBBB2
ENDCHAR
STARTCHAR obreve
ENCODING 335
SWIDTH 496 0
DWIDTH 7 0
BBX 7 10 0 0
BITMAP
00807000
00575000
00000000
07CBC600
0B000B00
19000A10
19000A10
19000A10
0B000B00
07CBC600
ENDCHAR
STARTCHAR Ohungarumlaut
ENCODING 336
SWIDTH 553 0
DWIDTH 8 0
BBX 6 12 1 0
BITMAP
006280
017440
000000
5CBBB2
B00039
B0000A
B0000A
B0000A
B0000A
B0000A
B00039
5CBBB2
ENDCHAR
STARTCHAR ohungarumlaut
ENCODING 337
SWIDTH 496 0
DWIDTH 7 0
BBX 7 10 0 0
BITMAP
000A3800
00527000
00000000
07CBC600
0B000B00
19000A10
19000A10
19000A10
0B000B00
07CBC600
ENDCHAR
STARTCHAR OE
ENCODING 338
SWIDTH 775 0
DWIDTH 11 0
BBX 9 9 1 0
BITMAP
5CBBEBBB80
B000B00000
B000B00000
B000B00000
B000CBBB40
B000B00000
B000B00000
B000B00000
5CBBEBBB80
ENDCHAR
STARTCHAR oe
ENCODING 339
SWIDTH 812 0
DWIDTH 11 0
BBX 11 7 0 0
BITMAP
07CBC6ABBA10
0B000C300560
19000A100470
19000ACBBC60
19000A100000
0B000C300000
07CBC6BBBB40
ENDCHAR
STARTCHAR Racute
ENCODING 340
SWIDTH 534 0
DWIDTH 7 0
BBX 6 12 1 0
BITMAP
000600
006600
004000
CBBBA0
B00066
B00037
B00037
B00075
CBBD90
B00660
B000B0
A00057
ENDCHAR
STARTCHAR racute
ENCODING 341
SWIDTH 313 0
DWIDTH 4 0
BBX 3 10 1 0
BITMAP
0670
1900
0000
BAB0
D100
B000
B000
B000
B000
A000
ENDCHAR
STARTCHAR uni0156
ENCODING 342
SWIDTH 534 0
DWIDTH 7 0
BBX 6 12 1 -3
BITMAP
CBBBA0
B00066
B00037
B00037
B00075
CBBD90
B00660
B000B0
A00057
008100
009000
005000
ENDCHAR
STARTCHAR uni0157
ENCODING 343
SWIDTH 313 0
DWIDTH 4 0
BBX 3 10 1 -3
BITMAP
BAB0
D100
B000
B000
B000
B000
A000
9000
A000
5000
ENDCHAR
STARTCHAR Rcaron
ENCODING 344
SWIDTH 534 0
DWIDTH 7 0
BBX 6 12 1 0
BITMAP
040400
056600
006000
CBBBA0
B00066
B00037
B00037
B00075
CBBD90
B00660
B000B0
A00057
ENDCHAR
STARTCHAR rcaron
ENCODING 345
SWIDTH 313 0
DWIDTH 4 0
BBX 3 10 1 0
BITMAP
8180
3B20
0000
BAB0
D100
B000
B000
B000
B000
A000
ENDCHAR
STARTCHAR Sacute
ENCODING 346
SWIDTH 562 0
DWIDTH 8 0
BBX 6 12 1 0
BITMAP
000420
001B00
003200
4CBBB2
B10039
B00006
940000
068850
000067
70000B
B1002A
4CBBC3
ENDCHAR
STARTCHAR sacute
ENCODING 347
SWIDTH 427 0
DWIDTH 6 0
BBX 6 10 0 0
BITMAP
000B20
005500
000000
1BBBA0
470000
1A2000
016740
000092
000084
2BBBB1
ENDCHAR
STARTCHAR Scircumflex
ENCODING 348
SWIDTH 562 0
DWIDTH 8 0
BBX 6 12 1 0
BITMAP
004300
018900
022310
4CBBB2
B10039
B00006
940000
068850
000067
70000B
B1002A
4CBBC3
ENDCHAR
STARTCHAR scircumflex
ENCODING 349
SWIDTH 427 0
DWIDTH 6 0
BBX 6 10 0 0
BITMAP
008700
036720
000000
1BBBA0
470000
1A2000
016740
000092
000084
2BBBB1
ENDCHAR
STARTCHAR uni015E
ENCODING 350
SWIDTH 562 0
DWIDTH 8 0
BBX 6 12 1 -3
BITMAP
4CBBB2
B10039
B00006
940000
068850
000067
70000B
B1002A
4CBBC3
006A00
000800
006A00
ENDCHAR
STARTCHAR uni015F
ENCODING 351
SWIDTH 427 0
DWIDTH 6 0
BBX 6 10 0 -3
BITMAP
1BBBA0
470000
1A2000
016740
000092
000084
2BBCB1
006A00
000800
006A00
ENDCHAR
STARTCHAR Scaron
ENCODING 352
SWIDTH 562 0
DWIDTH 8 0
BBX 6 12 1 0
BITMAP
032310
018900
004300
4CBBB2
B10039
B00006
940000
068850
000067
70000B
B1002A
4CBBC3
ENDCHAR
STARTCHAR scaron
ENCODING 353
SWIDTH 427 0
DWIDTH 6 0
BBX 6 10 0 0
BITMAP
036720
008800
000000
1BBBA0
470000
1A2000
016740
000092
000084
2BBBB1
ENDCHAR
STARTCHAR uni0162
ENCODING 354
SWIDTH 420 0
DWIDTH 6 0
BBX 6 13 0 -4
BITMAP
8BDDB7
006400
006400
006400
006400
006400
006400
006400
006400
003200
006400
006100
001000
ENDCHAR
STARTCHAR uni0163
ENCODING 355
SWIDTH 347 0
DWIDTH 5 0
BBX 5 13 0 -4
BITMAP
041000
083000
7DCB10
083000
083000
083000
083000
075000
01BB30
003200
007400
006100
001000
ENDCHAR
STARTCHAR Tcaron
ENCODING 356
SWIDTH 420 0
DWIDTH 6 0
BBX 6 12 0 0
BITMAP
022320
008900
004300
8BDDB7
006400
006400
006400
006400
006400
006400
006400
006400
ENDCHAR
STARTCHAR tcaron
ENCODING 357
SWIDTH 396 0
DWIDTH 6 0
BBX 6 9 0 0
BITMAP
041056
083055
7DCB51
083000
083000
083000
083000
075000
01BB30
ENDCHAR
STARTCHAR Tbar
ENCODING 358
SWIDTH 501 0
DWIDTH 7 0
BBX 6 9 0 0
BITMAP
7BDDB8
005500
005500
005500
0ADDB1
005500
005500
005500
005500
ENDCHAR
STARTCHAR tbar
ENCODING 359
SWIDTH 350 0
DWIDTH 5 0
BBX 5 9 0 0
BITMAP
041000
083000
7DCB20
083000
7DCB20
083000
073000
066000
01AB30
ENDCHAR
STARTCHAR Utilde
ENCODING 360
SWIDTH 552 0
DWIDTH 8 0
BBX 6 12 1 0
BITMAP
051B20
076350
059140
A00019
A00019
A00019
A00019
A00019
A00019
A00019
B10048
4CBBB2
ENDCHAR
STARTCHAR utilde
ENCODING 361
SWIDTH 507 0
DWIDTH 7 0
BBX 6 10 1 0
BITMAP
068B00
0A7600
000000
A000A1
A000A1
A000A1
A000A1
A000A1
B000C1
6CBAB1
ENDCHAR
STARTCHAR Umacron
ENCODING 362
SWIDTH 552 0
DWIDTH 8 0
BBX 6 11 1 0
BITMAP
08BB50
000000
A00019
A00019
A00019
A00019
A00019
A00019
A00019
B10048
4CBBB2
ENDCHAR
STARTCHAR umacron
ENCODING 363
SWIDTH 507 0
DWIDTH 7 0
BBX 6 9 1 0
BITMAP
0BBB10
000000
A000A1
A000A1
A000A1
A000A1
A000A1
B000C1
6CBAB1
ENDCHAR
STARTCHAR Ubreve
ENCODING 364
SWIDTH 552 0
DWIDTH 8 0
BBX 6 12 1 0
BITMAP
040120
071430
017700
A00019
A00019
A00019
A00019
A00019
A00019
A00019
B10048
4CBBB2
ENDCHAR
STARTCHAR ubreve
ENCODING 365
SWIDTH 507 0
DWIDTH 7 0
BBX 6 10 1 0
BITMAP
070700
070700
037400
A000A1
A000A1
A000A1
A000A1
A000A1
B000C1
6CBAB1
ENDCHAR
STARTCHAR Uring
ENCODING 366
SWIDTH 552 0
DWIDTH 8 0
BBX 6 12 1 0
BITMAP
02BA00
044800
01A800
A00019
A00019
A00019
A00019
A00019
A00019
A00019
B10048
4CBBB2
ENDCHAR
STARTCHAR uring
ENCODING 367
SWIDTH 507 0
DWIDTH 7 0
BBX 6 10 1 0
BITMAP
07B300
070600
08B300
A000A1
A000A1
A000A1
A000A1
A000A1
B000C1
6CBAB1
ENDCHAR
STARTCHAR Uhungarumlaut
ENCODING 368
SWIDTH 552 0
DWIDTH 8 0
BBX 6 12 1 0
BITMAP
007280
027530
000000
A00019
A00019
A00019
A00019
A00019
A00019
A00019
B10048
4CBBB2
ENDCHAR
STARTCHAR uhungarumlaut
ENCODING 369
SWIDTH 507 0
DWIDTH 7 0
BBX 6 10 1 0
BITMAP
00A380
052700
000000
A000A1
A000A1
A000A1
A000A1
A000A1
B000C1
6CBAB1
ENDCHAR
STARTCHAR Uogonek
ENCODING 370
SWIDTH 552 0
DWIDTH 8 0
BBX 6 11 1 -2
BITMAP
A00019
A00019
A00019
A00019
A00019
A00019
A00019
B10048
4CBBB2
005200
00A500
ENDCHAR
STARTCHAR uogonek
ENCODING 371
SWIDTH 503 0
DWIDTH 7 0
BBX 6 9 1 -2
BITMAP
A000A1
A000A1
A000A1
A000A1
A000A1
B000C1
6CBAC1
000250
000670
ENDCHAR
STARTCHAR Wcircumflex
ENCODING 372
SWIDTH 795 0
DWIDTH 11 0
BBX 11 12 0 0
BITMAP
000006000000
000056600000
000040400000
74000E100390
48004A500660
1B0082900920
0B00A0A00B00
092190721A00
065550363700
028910097400
00AA000AA100
00A80006C000
ENDCHAR
STARTCHAR wcircumflex
ENCODING 373
SWIDTH 682 0
DWIDTH 10 0
BBX 10 10 0 0
BITMAP
0000A50000
0005490000
0000000000
9200B40092
5600A800B0
1A045A0290
0A08181640
0739045A00
0298019A00
00C400B600
ENDCHAR
STARTCHAR Ycircumflex
ENCODING 374
SWIDTH 493 0
DWIDTH 7 0
BBX 7 12 0 0
BITMAP
00060000
00765000
00404000
75000650
1B000B00
07506500
01B0B000
007A5000
001D0000
000B0000
000B0000
000A0000
ENDCHAR
STARTCHAR ycircumflex
ENCODING 375
SWIDTH 459 0
DWIDTH 6 0
BBX 6 12 0 -2
BITMAP
004B10
009260
000000
74000A
290038
0A0083
0650B0
01A480
00AA20
003C00
006600
3B9000
ENDCHAR
STARTCHAR Ydieresis
ENCODING 376
SWIDTH 493 0
DWIDTH 7 0
BBX 7 12 0 0
BITMAP
00808000
0190A000
00000000
75000650
1B000B00
07506500
01B0B000
007A5000
001D0000
000B0000
000B0000
000A0000
ENDCHAR
STARTCHAR Zacute
ENCODING 377
SWIDTH 482 0
DWIDTH 7 0
BBX 7 12 0 0
BITMAP
00006100
00048000
00040000
3BBBBE00
00004800
0000B100
00075000
002A0000
00A20000
04700000
0B000000
5DBBBB10
ENDCHAR
STARTCHAR zacute
ENCODING 378
SWIDTH 405 0
DWIDTH 6 0
BBX 6 10 0 0
BITMAP
000670
001900
000000
4BBBE1
000470
001A00
008300
038000
0A1000
6DBBB2
ENDCHAR
STARTCHAR Zdotaccent
ENCODING 379
SWIDTH 482 0
DWIDTH 7 0
BBX 7 12 0 0
BITMAP
00090000
000A0000
00000000
3BBBBE00
00004800
0000B100
00075000
002A0000
00A20000
04700000
0B000000
5DBBBB10
ENDCHAR
STARTCHAR zdotaccent
ENCODING 380
SWIDTH 405 0
DWIDTH 6 0
BBX 6 10 0 0
BITMAP
004700
003600
000000
4BBBE1
000470
001A00
008300
038000
0A1000
6DBBB2
ENDCHAR
STARTCHAR Zcaron
ENCODING 381
SWIDTH 482 0
DWIDTH 7 0
BBX 7 12 0 0
BITMAP
00404000
00477000
00061000
3BBBBE00
00004800
0000B100
00075000
002A0000
00A20000
04700000
0B000000
5DBBBB10
ENDCHAR
STARTCHAR zcaron
ENCODING 382
SWIDTH 405 0
DWIDTH 6 0
BBX 6 10 0 0
BITMAP
018540
007900
000000
4BBBE1
000470
001A00
008300
038000
0A1000
6DBBB2
ENDCHAR
STARTCHAR florin
ENCODING 402
SWIDTH 494 0
DWIDTH 7 0
BBX 7 12 0 -2
BITMAP
00003B70
0000B100
00019000
00047000
00074000
01BEC900
000B0000
00190000
00560000
00920000
01B00000
8C400000
ENDCHAR
STARTCHAR AEacute
ENCODING 508
SWIDTH 773 0
DWIDTH 11 0
BBX 10 12 0 0
BITMAP
0000004300
000000B100
0000022000
00006FBBBA
0001CB0000
00075B0000
001B0B0000
00940BBBB5
02A00B0000
0ACBBE0000
4A000B0000
B1000BBBBA
ENDCHAR
STARTCHAR aeacute
ENCODING 509
SWIDTH 795 0
DWIDTH 11 0
BBX 11 10 0 0
BITMAP
000000B10000
000005500000
000000000000
04BBC5BBB900
00001D100830
00000B000640
04100BBBBC30
19000B000000
1B001D200000
08CBB5CBBB20
ENDCHAR
STARTCHAR Oslashacute
ENCODING 510
SWIDTH 558 0
DWIDTH 8 0
BBX 8 12 0 0
BITMAP
00004200
0001B000
00032000
05CBBB71
0B0005A0
0B0019B0
0B0081B0
0B0640B0
0B3700B0
0B9000B0
0D2002A0
27CBBC30
ENDCHAR
STARTCHAR oslashacute
ENCODING 511
SWIDTH 521 0
DWIDTH 7 0
BBX 7 10 0 0
BITMAP
0000B200
00055000
00000000
05CBB750
0B000C50
0B008A30
0B192830
0B920830
1E200A20
45CBC800
ENDCHAR
STARTCHAR uni0218
ENCODING 536
SWIDTH 562 0
DWIDTH 8 0
BBX 6 12 1 -3
BITMAP
4CBBB2
B10039
B00006
940000
068850
000067
70000B
B1002A
4CBBC3
004600
004500
004100
ENDCHAR
STARTCHAR uni0219
ENCODING 537
SWIDTH 427 0
DWIDTH 6 0
BBX 6 11 0 -4
BITMAP
1BBBA0
470000
1A2000
016740
000092
000084
2BBBB1
001400
003700
003400
001000
ENDCHAR
STARTCHAR circumflex
ENCODING 710
SWIDTH 326 0
DWIDTH 5 0
BBX 3 2 1 8
BITMAP
5A00
9360
ENDCHAR
STARTCHAR caron
ENCODING 711
SWIDTH 326 0
DWIDTH 5 0
BBX 3 2 1 8
BITMAP
9360
5A00
ENDCHAR
STARTCHAR uni02C9
ENCODING 713
SWIDTH 358 0
DWIDTH 5 0
BBX 4 1 1 8
BITMAP
BBB1
ENDCHAR
STARTCHAR breve
ENCODING 728
SWIDTH 332 0
DWIDTH 5 0
BBX 4 2 0 8
BITMAP
1707
0673
ENDCHAR
STARTCHAR dotaccent
ENCODING 729
SWIDTH 183 0
DWIDTH 3 0
BBX 2 2 0 8
BITMAP
19
18
ENDCHAR
STARTCHAR ring
ENCODING 730
SWIDTH 297 0
DWIDTH 4 0
BBX 3 3 0 7
BITMAP
1B90
4270
2BA0
ENDCHAR
STARTCHAR ogonek
ENCODING 731
SWIDTH 243 0
DWIDTH 3 0
BBX 2 2 1 -2
BITMAP
51
B2
ENDCHAR
STARTCHAR tilde
ENCODING 732
SWIDTH 369 0
DWIDTH 5 0
BBX 4 2 0 8
BITMAP
159A
0B66
ENDCHAR
STARTCHAR hungarumlaut
ENCODING 733
SWIDTH 377 0
DWIDTH 5 0
BBX 4 2 1 8
BITMAP
5582
7250
ENDCHAR
STARTCHAR Mu
ENCODING 924
SWIDTH 527 0
DWIDTH 7 0
BBX 6 10 1 -2
BITMAP
A00073
B00074
B00074
B00074
B00074
B00084
D745C4
B57632
B00000
500000
ENDCHAR
STARTCHAR Pi
ENCODING 928
SWIDTH 605 0
DWIDTH 8 0
BBX 8 9 0 0
BITMAP
5BEBBCDA
00B00460
00B00460
00B00460
00B00460
00B00460
00B00460
00B00460
00500230
ENDCHAR
STARTCHAR Sigma
ENCODING 931
SWIDTH 481 0
DWIDTH 7 0
BBX 6 9 0 0
BITMAP
1EBBBA
083000
01A100
004800
000B00
008400
038000
0B4443
178887
ENDCHAR
STARTCHAR uni0901
ENCODING 2305
SWIDTH 0 0
DWIDTH 0 0
BBX 5 3 -4 10
BITMAP
207020
A00280
399920
ENDCHAR
STARTCHAR uni0902
ENCODING 2306
SWIDTH 0 0
DWIDTH 0 0
BBX 1 1 -2 10
BITMAP
80
ENDCHAR
STARTCHAR uni0903
ENCODING 2307
SWIDTH 247 0
DWIDTH 3 0
BBX 2 5 1 1
BITMAP
71
00
00
00
71
ENDCHAR
STARTCHAR uni0905
ENCODING 2309
SWIDTH 598 0
DWIDTH 8 0
BBX 9 9 0 0
BITMAP
0BBB109C60
0005609100
0006509100
07CB009100
0007CBE100
0004609100
0006509100
5BBA009100
0000004000
ENDCHAR
STARTCHAR uni0906
ENCODING 2310
SWIDTH 828 0
DWIDTH 12 0
BBX 12 9 0 0
BITMAP
0BBB109CBDD8
000650910640
000740910640
07CC00910640
0008CBE10640
000460910640
000740910640
5BBA00910640
000000400320
ENDCHAR
STARTCHAR uni0907
ENCODING 2311
SWIDTH 478 0
DWIDTH 7 0
BBX 8 9 -1 0
BITMAP
2BBBBCD9
00000460
007BBC50
00B00000
007BBB40
000001A0
009000A0
00D54590
00968610
ENDCHAR
STARTCHAR uni0908
ENCODING 2312
SWIDTH 478 0
DWIDTH 7 0
BBX 8 13 -1 0
BITMAP
00001BB4
00006500
00007300
00006400
2BBBBCD9
00000460
007BBC50
00B00000
007BBB40
000001A0
009000A0
00D54590
00968610
ENDCHAR
STARTCHAR uni0909
ENCODING 2313
SWIDTH 471 0
DWIDTH 7 0
BBX 8 9 -1 0
BITMAP
2BBBBEB8
00000370
00000380
0004CD10
00000470
044001A0
04600190
01B44950
00277400
ENDCHAR
STARTCHAR uni090A
ENCODING 2314
SWIDTH 661 0
DWIDTH 9 0
BBX 11 9 -1 0
BITMAP
2BBBBEBBBB50
000003600000
000003800000
0004CF500000
000004CBB300
022001801A00
055001900A00
02B449626900
003774046000
ENDCHAR
STARTCHAR uni090B
ENCODING 2315
SWIDTH 753 0
DWIDTH 11 0
BBX 12 9 -1 0
BITMAP
2BBBBCEBBBB8
000001900000
005BB8902B60
00B00592B470
029001CB1370
014004C16950
00008890A000
002A3190C420
006100402750
ENDCHAR
STARTCHAR uni090C
ENCODING 2316
SWIDTH 676 0
DWIDTH 9 0
BBX 11 12 -1 -3
BITMAP
2BBBBBBBDC70
000000008300
004BB3ABA300
00B01D20A300
00A00A008300
00A005008300
00B000008300
006C90019300
0000001C8100
000000460000
000000380250
00000008BA20
ENDCHAR
STARTCHAR uni090D
ENCODING 2317
SWIDTH 521 0
DWIDTH 7 0
BBX 9 12 -1 1
BITMAP
004500A000
0009996000
0000000000
0000000000
2BEBBBCD60
00A0004600
00A0004600
00A0007400
00A02B9000
00A0000000
0092000000
002BBBB000
ENDCHAR
STARTCHAR uni090E
ENCODING 2318
SWIDTH 522 0
DWIDTH 7 0
BBX 9 12 -1 1
BITMAP
0003700000
0001B30000
00001A8000
0000007500
2BEBBBCD60
00A0004600
00A0004600
00A0007400
00A02B9000
00A0000000
0092000000
002BBBB000
ENDCHAR
STARTCHAR uni090F
ENCODING 2319
SWIDTH 526 0
DWIDTH 7 0
BBX 9 8 -1 1
BITMAP
2BEBBBCD60
00A0004600
00A0004600
00A0007400
00A02B9000
00A0000000
0092000000
002BBBB000
ENDCHAR
STARTCHAR uni0910
ENCODING 2320
SWIDTH 526 0
DWIDTH 7 0
BBX 9 12 -1 1
BITMAP
0000750000
00000B0000
0000047000
0000008200
2BEBBBCD60
00A0004600
00A0004600
00A0007400
00A02B9000
00A0000000
0092000000
002BBBB000
ENDCHAR
STARTCHAR uni0911
ENCODING 2321
SWIDTH 829 0
DWIDTH 12 0
BBX 12 13 0 0
BITMAP
000000400040
000000910280
000000299910
000000000000
0BBB109CBDD9
000560910550
000650910550
07CB00910550
0007CBE10550
000460910550
000650910550
5BBA00910550
000000400220
ENDCHAR
STARTCHAR uni0912
ENCODING 2322
SWIDTH 828 0
DWIDTH 12 0
BBX 12 13 0 0
BITMAP
000000460000
0000001B2000
00000002A700
000000000840
0BBB109CBDD8
000560910640
000650910640
07CB00910640
0007CBE10640
000460910640
000650910640
5BBA00910640
000000400320
ENDCHAR
STARTCHAR uni0913
ENCODING 2323
SWIDTH 829 0
DWIDTH 12 0
BBX 12 13 0 0
BITMAP
000000084000
00000001B000
000000005700
000000000910
0BBB109CBDD9
000560910550
000650910550
07CB00910550
0007CBE10550
000460910550
000650910550
5BBA00910550
000000400220
ENDCHAR
STARTCHAR uni0914
ENCODING 2324
SWIDTH 829 0
DWIDTH 12 0
BBX 12 13 0 0
BITMAP
000000092550
00000002A550
000000007850
000000000A50
0BBB109CBDD9
000560910550
000650910550
07CB00910550
0007CBE10550
000460910550
000650910550
5BBA00910550
000000400220
ENDCHAR
STARTCHAR uni0915
ENCODING 2325
SWIDTH 725 0
DWIDTH 10 0
BBX 12 9 -1 0
BITMAP
2BBBBCDBBBB3
005B749BB700
00B004A00920
028004600640
028004600640
01B007600920
005BB966B700
000004600000
000002300000
ENDCHAR
STARTCHAR uni0916
ENCODING 2326
SWIDTH 696 0
DWIDTH 10 0
BBX 11 9 -1 0
BITMAP
2BBCEBBBCDA0
000190003700
000191A83700
000486503700
07CB28203700
02A006506700
005701AB8700
000840003700
000050001300
ENDCHAR
STARTCHAR uni0917
ENCODING 2327
SWIDTH 494 0
DWIDTH 7 0
BBX 9 9 -1 0
BITMAP
2BCDBCEB10
0028019000
0028019000
0028019000
0057019000
08A1019000
0000019000
0000019000
0000004000
ENDCHAR
STARTCHAR uni0918
ENCODING 2328
SWIDTH 559 0
DWIDTH 8 0
BBX 9 9 -1 0
BITMAP
2BECBBCDB0
00A0002800
00A0002800
006D902800
00A0002800
00A0002800
00B1006800
004BBB8800
0000001400
ENDCHAR
STARTCHAR uni0919
ENCODING 2329
SWIDTH 505 0
DWIDTH 7 0
BBX 9 9 -1 0
BITMAP
2BBBBCDB20
0000045000
007BBC4000
00B0001600
007BBB4000
000001A000
007000A000
00B4469000
0027861000
ENDCHAR
STARTCHAR uni091A
ENCODING 2330
SWIDTH 563 0
DWIDTH 8 0
BBX 10 9 -1 0
BITMAP
2BBBBBCEB1
0000001900
07BDB51900
0056001900
0082001900
0066004900
0019BB8900
0000001900
0000000400
ENDCHAR
STARTCHAR uni091B
ENCODING 2331
SWIDTH 581 0
DWIDTH 8 0
BBX 10 8 -1 1
BITMAP
2BDCBBBEB3
00A0000A00
00B004BA00
006D700A00
00B1000820
00A0000820
00B0000A00
005CBBC700
ENDCHAR
STARTCHAR uni091C
ENCODING 2332
SWIDTH 547 0
DWIDTH 8 0
BBX 9 9 -1 0
BITMAP
2BBBBBCD90
0000004600
00BDCBD600
0001904600
0000A04600
0000A04600
0001A04600
06BB304600
0000002300
ENDCHAR
STARTCHAR uni091D
ENCODING 2333
SWIDTH 664 0
DWIDTH 9 0
BBX 11 9 -1 0
BITMAP
2BBBBEBBEB50
006BBB00A000
00B00000A000
00B00000A000
006BBDBBE000
00000640A000
01A00640A000
01CBBB10A000
019000005000
ENDCHAR
STARTCHAR uni091E
ENCODING 2334
SWIDTH 592 0
DWIDTH 8 0
BBX 10 9 -1 0
BITMAP
2BBBBBBEB5
0000000A00
01BB600A00
0000A00A00
00008CBE00
0000A10A00
04BB700A00
0000000A00
0000000500
ENDCHAR
STARTCHAR uni091F
ENCODING 2335
SWIDTH 485 0
DWIDTH 7 0
BBX 8 8 -1 1
BITMAP
2BBBBDDB
00000550
004BBC40
00B10000
01900000
01900071
00B000B0
006CBC60
ENDCHAR
STARTCHAR uni0920
ENCODING 2336
SWIDTH 512 0
DWIDTH 7 0
BBX 9 8 -1 1
BITMAP
2BBBBCDB40
0000047000
004BBD5000
00B000B100
0190008200
0190008200
00B000B100
006CBC7000
ENDCHAR
STARTCHAR uni0921
ENCODING 2337
SWIDTH 475 0
DWIDTH 7 0
BBX 8 9 -1 0
BITMAP
2BBBBCD9
00000450
007BBC40
00B00000
007BBB30
000001A0
007000A0
00A32490
00278610
ENDCHAR
STARTCHAR uni0922
ENCODING 2338
SWIDTH 485 0
DWIDTH 7 0
BBX 8 8 -1 1
BITMAP
2BBBBCDB
00000460
004BBC50
00B10000
00904B90
00909091
00B01091
006CBB80
ENDCHAR
STARTCHAR uni0923
ENCODING 2339
SWIDTH 681 0
DWIDTH 10 0
BBX 11 9 -1 0
BITMAP
2BEBBDCBDC80
00A007306400
00A007306400
00A007306400
00B10A206400
004BB8006400
000000006400
000000006400
000000003200
ENDCHAR
STARTCHAR uni0924
ENCODING 2340
SWIDTH 496 0
DWIDTH 7 0
BBX 9 9 -1 0
BITMAP
2BBBBBEB10
000000A000
005BBCA000
00B000A000
019000A000
019000A000
019000A000
00B510A000
0017205000
ENDCHAR
STARTCHAR uni0925
ENCODING 2341
SWIDTH 593 0
DWIDTH 8 0
BBX 9 9 0 0
BITMAP
06CC409C50
0A0190A000
010380A000
2CBB20A000
280000A000
0B1001D000
04BBBAB000
000000A000
0000005000
ENDCHAR
STARTCHAR uni0926
ENCODING 2342
SWIDTH 489 0
DWIDTH 7 0
BBX 8 9 -1 0
BITMAP
2BBBBCEB
00000190
005BBC70
00B00000
01900040
00B001B0
005BBAA0
000000A0
00000040
ENDCHAR
STARTCHAR uni0927
ENCODING 2343
SWIDTH 560 0
DWIDTH 8 0
BBX 9 9 -1 0
BITMAP
2BEC25CDB0
00A0002800
00A0002800
006D902800
00A0002800
00A0002800
00B0006800
004BBB8800
0000001400
ENDCHAR
STARTCHAR uni0928
ENCODING 2344
SWIDTH 473 0
DWIDTH 7 0
BBX 8 9 -1 0
BITMAP
2BBBBDD9
00000550
00000550
01BBBD50
05600550
02500550
00000550
00000550
00000220
ENDCHAR
STARTCHAR uni0928093C
ENCODING 2345
SWIDTH 473 0
DWIDTH 7 0
BBX 8 9 -1 0
BITMAP
2BBBBDD9
00000550
00000550
01BBBD50
05600550
02500550
00000550
00000550
00070220
ENDCHAR
STARTCHAR uni092A
ENCODING 2346
SWIDTH 503 0
DWIDTH 7 0
BBX 9 9 -1 0
BITMAP
2BEBBBEB20
00A000A000
00A000A000
00A000A000
00B102B000
003BB8A000
000000A000
000000A000
0000005000
ENDCHAR
STARTCHAR uni092B
ENCODING 2347
SWIDTH 739 0
DWIDTH 10 0
BBX 12 9 -1 0
BITMAP
2BEBBCEBBBB6
00A001AAB900
00A001C00750
00A001900370
00B104900370
003BB8900750
00000194B900
000001900000
000000400000
ENDCHAR
STARTCHAR uni092C
ENCODING 2348
SWIDTH 491 0
DWIDTH 7 0
BBX 8 9 -1 0
BITMAP
2BBBBCEB
005B9190
00D50190
02865190
02806690
00B00890
005BB890
00000190
00000040
ENDCHAR
STARTCHAR uni092D
ENCODING 2349
SWIDTH 491 0
DWIDTH 7 0
BBX 8 9 -1 0
BITMAP
2C605CEB
00B00190
00A00190
00DBBC90
00A00190
00700190
00000190
00000190
00000040
ENDCHAR
STARTCHAR uni092E
ENCODING 2350
SWIDTH 490 0
DWIDTH 7 0
BBX 8 9 -1 0
BITMAP
2BEBBCEB
00A00190
00A00190
00DBBC90
00A00190
00700190
00000190
00000190
00000140
ENDCHAR
STARTCHAR uni092F
ENCODING 2351
SWIDTH 564 0
DWIDTH 8 0
BBX 10 9 -1 0
BITMAP
2BBDCBCEB1
0001901900
0002A01900
01CB301900
0190001900
00B1005900
004BBB7900
0000001900
0000000400
ENDCHAR
STARTCHAR uni0930
ENCODING 2352
SWIDTH 337 0
DWIDTH 5 0
BBX 6 9 -1 0
BITMAP
2BBCEA
000190
000190
000480
07CB20
02A000
005700
000830
000050
ENDCHAR
STARTCHAR uni0930093C
ENCODING 2353
SWIDTH 347 0
DWIDTH 5 0
BBX 6 9 -1 0
BITMAP
2BBBEB
0000A0
0000A0
000290
05CB30
01A100
003900
000750
080050
ENDCHAR
STARTCHAR uni0932
ENCODING 2354
SWIDTH 676 0
DWIDTH 9 0
BBX 11 9 -1 0
BITMAP
2BBBBBBBDC70
000000008300
004BB3ABA300
00B01D20A300
00A00A008300
00A005008300
00B000008300
006C90008300
000000004100
ENDCHAR
STARTCHAR uni0933
ENCODING 2355
SWIDTH 672 0
DWIDTH 9 0
BBX 11 8 -1 1
BITMAP
2BBBBBBEBB60
0000000A0000
005BB36C8000
00B00C307400
01900A004600
01900A004600
00B00C206500
006CB5ABA000
ENDCHAR
STARTCHAR uni0933093C
ENCODING 2356
SWIDTH 672 0
DWIDTH 9 0
BBX 11 9 -1 0
BITMAP
2BBBBBBEBB60
0000000A0000
005BB36C8000
00B00C307400
01900A004600
01900A004600
00B00C206500
006CB5ABA000
000530000000
ENDCHAR
STARTCHAR uni0935
ENCODING 2357
SWIDTH 484 0
DWIDTH 7 0
BBX 8 9 -1 0
BITMAP
2BBBBCDA
005B8370
00B00370
02900370
02900370
00B00670
005BB870
00000370
00000130
ENDCHAR
STARTCHAR uni0936
ENCODING 2358
SWIDTH 614 0
DWIDTH 9 0
BBX 9 9 0 0
BITMAP
07BC405D80
0B01A05500
0600A05500
0002905500
5CBB205500
1A10005500
0390005500
0075005500
0005002200
ENDCHAR
STARTCHAR uni0937
ENCODING 2359
SWIDTH 505 0
DWIDTH 7 0
BBX 9 9 -1 0
BITMAP
2BEBBBEB30
00C700A000
00A370A000
00A037A000
00B104C000
003BB9A000
000000A000
000000A000
0000005000
ENDCHAR
STARTCHAR uni0938
ENCODING 2360
SWIDTH 575 0
DWIDTH 8 0
BBX 10 9 -1 0
BITMAP
2BBDDBBEB2
0006400A00
0006400A00
0008200A00
07CDBBBC00
02A0000A00
0075000A00
000A100A00
0002300500
ENDCHAR
STARTCHAR uni0939
ENCODING 2361
SWIDTH 481 0
DWIDTH 7 0
BBX 8 10 -1 -1
BITMAP
2BBBBCDA
00000370
005BBC60
00B00000
00A00000
004DBB30
00A101A0
00A00050
00B10000
003BBB60
ENDCHAR
STARTCHAR uni093C
ENCODING 2364
SWIDTH 0 0
DWIDTH 0 0
BBX 2 1 -3 -1
BITMAP
25
ENDCHAR
STARTCHAR uni093D
ENCODING 2365
SWIDTH 529 0
DWIDTH 7 0
BBX 6 9 1 0
BITMAP
1BBB60
370000
290000
059200
001770
000082
300083
5A44C1
027730
ENDCHAR
STARTCHAR uni093E
ENCODING 2366
SWIDTH 231 0
DWIDTH 3 0
BBX 5 9 -1 0
BITMAP
2BEB40
00A000
00A000
00A000
00A000
00A000
00A000
00A000
005000
ENDCHAR
STARTCHAR uni093F
ENCODING 2367
SWIDTH 231 0
DWIDTH 3 0
BBX 10 13 -1 0
BITMAP
003BBBBBB3
00A100001A
00A0000009
00A0000000
2BEB400000
00A0000000
00A0000000
00A0000000
00A0000000
00A0000000
00A0000000
00A0000000
0050000000
ENDCHAR
STARTCHAR uni0940
ENCODING 2368
SWIDTH 231 0
DWIDTH 3 0
BBX 6 13 -2 0
BITMAP
6CC500
B00B00
900A00
000A00
02BEB4
000A00
000A00
000A00
000A00
000A00
000A00
000A00
000500
ENDCHAR
STARTCHAR uni0941
ENCODING 2369
SWIDTH 0 0
DWIDTH 0 0
BBX 6 4 -5 -4
BITMAP
100781
A10045
480055
07CBB1
ENDCHAR
STARTCHAR uni0942
ENCODING 2370
SWIDTH 0 0
DWIDTH 0 0
BBX 6 4 -4 -4
BITMAP
2BB910
820480
910091
4C7045
ENDCHAR
STARTCHAR uni0943
ENCODING 2371
SWIDTH 0 0
DWIDTH 0 0
BBX 5 4 -4 -4
BITMAP
4B8000
A00000
A00330
5CB910
ENDCHAR
STARTCHAR uni0945
ENCODING 2373
SWIDTH 0 0
DWIDTH 0 0
BBX 5 3 -4 10
BITMAP
100010
A10380
3BBA20
ENDCHAR
STARTCHAR uni0946
ENCODING 2374
SWIDTH 0 0
DWIDTH 0 0
BBX 4 5 -5 8
BITMAP
A000
9500
07A1
003A
002B
ENDCHAR
STARTCHAR uni0947
ENCODING 2375
SWIDTH 0 0
DWIDTH 0 0
BBX 4 5 -5 8
BITMAP
2A00
0940
02B0
0076
0009
ENDCHAR
STARTCHAR uni0948
ENCODING 2376
SWIDTH 0 0
DWIDTH 0 0
BBX 4 5 -5 8
BITMAP
480A
0B2A
03A9
009A
001A
ENDCHAR
STARTCHAR uni0949
ENCODING 2377
SWIDTH 231 0
DWIDTH 3 0
BBX 5 13 -1 0
BITMAP
400040
730090
199930
000000
2BEB40
00A000
00A000
00A000
00A000
00A000
00A000
00A000
005000
ENDCHAR
STARTCHAR uni094A
ENCODING 2378
SWIDTH 231 0
DWIDTH 3 0
BBX 6 13 -2 0
BITMAP
A00000
680000
05B300
001B00
02BEB4
000A00
000A00
000A00
000A00
000A00
000A00
000A00
000500
ENDCHAR
STARTCHAR uni094B
ENCODING 2379
SWIDTH 231 0
DWIDTH 3 0
BBX 5 13 -1 0
BITMAP
B00000
570000
091000
018000
2BEB40
00A000
00A000
00A000
00A000
00A000
00A000
00A000
005000
ENDCHAR
STARTCHAR uni094C
ENCODING 2380
SWIDTH 231 0
DWIDTH 3 0
BBX 6 13 -2 0
BITMAP
1A0900
065A00
00A900
002C00
02BEB4
000A00
000A00
000A00
000A00
000A00
000A00
000A00
000500
ENDCHAR
STARTCHAR uni094D
ENCODING 2381
SWIDTH 0 0
DWIDTH 0 0
BBX 2 3 -2 -3
BITMAP
50
74
0B
ENDCHAR
STARTCHAR uni0950
ENCODING 2384
SWIDTH 847 0
DWIDTH 12 0
BBX 11 11 0 1
BITMAP
000000080000
000000000000
000000000470
01BBA009B910
000074000000
00008309BB20
008CA0000290
00009CB600A0
2500641900A0
2900830A00A0
08BB9008BC40
ENDCHAR
STARTCHAR uni0951
ENCODING 2385
SWIDTH 0 0
DWIDTH 0 0
BBX 1 3 -2 10
BITMAP
A0
A0
80
ENDCHAR
STARTCHAR uni0952
ENCODING 2386
SWIDTH 0 0
DWIDTH 0 0
BBX 5 1 -6 -2
BITMAP
9BBB80
ENDCHAR
STARTCHAR uni0953
ENCODING 2387
SWIDTH 0 0
DWIDTH 0 0
BBX 3 3 -4 10
BITMAP
5600
0920
0140
ENDCHAR
STARTCHAR uni0954
ENCODING 2388
SWIDTH 0 0
DWIDTH 0 0
BBX 3 3 -2 10
BITMAP
0A10
6500
5000
ENDCHAR
STARTCHAR uni0915093C
ENCODING 2392
SWIDTH 725 0
DWIDTH 10 0
BBX 12 9 -1 0
BITMAP
2BBBBCDBBBB3
005B749BB700
00B004A00920
028004600640
028004600640
01B007600920
005BB966B700
000004600000
000802300000
ENDCHAR
STARTCHAR uni0916093C
ENCODING 2393
SWIDTH 696 0
DWIDTH 10 0
BBX 11 9 -1 0
BITMAP
2BBCEBBBCDA0
000190003700
000191A83700
000486503700
07CB28203700
02A006506700
005701AB8700
000840003700
044050001300
ENDCHAR
STARTCHAR uni0917093C
ENCODING 2394
SWIDTH 494 0
DWIDTH 7 0
BBX 9 9 -1 0
BITMAP
2BCDBCEB10
0028019000
0028019000
0028019000
0057019000
08A1019000
0000019000
0000019000
0071004000
ENDCHAR
STARTCHAR uni091C093C
ENCODING 2395
SWIDTH 547 0
DWIDTH 8 0
BBX 9 9 -1 0
BITMAP
2BBBBBCD90
0000004600
00BDCBD600
0001904600
0000A04600
0000A04600
0001A04600
06BB304600
0080002300
ENDCHAR
STARTCHAR uni0921093C
ENCODING 2396
SWIDTH 475 0
DWIDTH 7 0
BBX 8 10 -1 -1
BITMAP
2BBBBCD9
00000450
007BBC40
00B00000
007BBB30
000001A0
007000A0
00A32490
00278610
00008000
ENDCHAR
STARTCHAR uni0922093C
ENCODING 2397
SWIDTH 485 0
DWIDTH 7 0
BBX 8 10 -1 -1
BITMAP
2BBBBCDB
00000460
004BBC50
00B10000
00904B90
00909091
00B01091
006CBB80
00000000
00008000
ENDCHAR
STARTCHAR uni092B093C
ENCODING 2398
SWIDTH 739 0
DWIDTH 10 0
BBX 12 9 -1 0
BITMAP
2BEBBCEBBBB6
00A001AAB900
00A001C00750
00A001900370
00B104900370
003BB8900750
00000194B900
000001900000
001700400000
ENDCHAR
STARTCHAR uni092F093C
ENCODING 2399
SWIDTH 564 0
DWIDTH 8 0
BBX 10 9 -1 0
BITMAP
2BBDCBCEB1
0001901900
0002A01900
01CB301900
0190001900
00B1005900
004BBB7900
0000001900
0062000400
ENDCHAR
STARTCHAR uni0960
ENCODING 2400
SWIDTH 753 0
DWIDTH 11 0
BBX 12 10 -1 -1
BITMAP
2BBBBCEBBBB8
000001900000
006BB8903B60
01B00496B470
018001E86A50
00001AA0A000
0002B590A000
003B21909C70
00610040B000
000000008B90
ENDCHAR
STARTCHAR uni0961
ENCODING 2401
SWIDTH 676 0
DWIDTH 9 0
BBX 11 13 -1 -4
BITMAP
2BBBBBBBDC70
000000008300
000000008300
005BB3ABA300
00B01D20A300
00A00A008300
00B007008300
007C90063000
000000460000
000000380000
0000000DC400
000000470000
0000001BB600
ENDCHAR
STARTCHAR uni0964
ENCODING 2404
SWIDTH 286 0
DWIDTH 4 0
BBX 1 9 2 0
BITMAP
A0
A0
A0
A0
A0
A0
A0
A0
50
ENDCHAR
STARTCHAR uni0965
ENCODING 2405
SWIDTH 518 0
DWIDTH 7 0
BBX 4 9 2 0
BITMAP
A00A
A00A
A00A
A00A
A00A
A00A
A00A
A00A
5005
ENDCHAR
STARTCHAR uni0966
ENCODING 2406
SWIDTH 519 0
DWIDTH 7 0
BBX 6 9 1 0
BITMAP
6CBB90
B00083
A00064
A00064
A00064
A00064
A00064
B544B1
168720
ENDCHAR
STARTCHAR uni0967
ENCODING 2407
SWIDTH 288 0
DWIDTH 4 0
BBX 3 9 0 0
BITMAP
18D0
73A0
00A0
00A0
00A0
00A0
00A0
00A0
0050
ENDCHAR
STARTCHAR uni0968
ENCODING 2408
SWIDTH 453 0
DWIDTH 6 0
BBX 6 9 0 0
BITMAP
09BBC3
38001A
34000A
000054
001740
038100
190000
494443
288886
ENDCHAR
STARTCHAR uni0969
ENCODING 2409
SWIDTH 489 0
DWIDTH 7 0
BBX 6 9 0 0
BITMAP
0ABBC5
37000B
00001A
001BD4
00001A
23000A
37000A
1B5478
027760
ENDCHAR
STARTCHAR uni096A
ENCODING 2410
SWIDTH 453 0
DWIDTH 6 0
BBX 7 9 0 0
BITMAP
0003D200
000A8300
00647300
01807300
08107300
45007300
9BBBDC40
00007300
00003100
ENDCHAR
STARTCHAR uni096B
ENCODING 2411
SWIDTH 480 0
DWIDTH 7 0
BBX 5 9 1 0
BITMAP
EBBB90
A00000
BBBB40
8001B0
0000A0
4000A0
A000A0
A646A0
168610
ENDCHAR
STARTCHAR uni096C
ENCODING 2412
SWIDTH 495 0
DWIDTH 7 0
BBX 6 9 1 0
BITMAP
6CBB80
B00000
A00000
BABB60
C100A1
A00073
A00083
B545C1
168720
ENDCHAR
STARTCHAR uni096D
ENCODING 2413
SWIDTH 380 0
DWIDTH 5 0
BBX 5 9 0 0
BITMAP
8BBBE0
0001A0
000640
000B00
003700
009200
01A000
074000
050000
ENDCHAR
STARTCHAR uni096E
ENCODING 2414
SWIDTH 523 0
DWIDTH 7 0
BBX 6 9 1 0
BITMAP
7CBBA1
B00065
B00074
6DBCB0
B10093
A00055
A00055
A544B1
168730
ENDCHAR
STARTCHAR uni096F
ENCODING 2415
SWIDTH 493 0
DWIDTH 7 0
BBX 6 9 0 0
BITMAP
0ABBC5
48000B
46000A
38000A
08BBBD
00000A
00000A
03446A
068761
ENDCHAR
STARTCHAR uni0970
ENCODING 2416
SWIDTH 391 0
DWIDTH 5 0
BBX 5 5 0 2
BITMAP
09BB30
5701A0
7400A0
5701A0
09BB30
ENDCHAR
STARTCHAR uni0972
ENCODING 2418
SWIDTH 598 0
DWIDTH 8 0
BBX 9 13 0 0
BITMAP
0000310040
00005500A0
0000089940
0000000000
0BBB109C60
0005609100
0006509100
07CB009100
0007CBE100
0004609100
0006509100
5BBA009100
0000004000
ENDCHAR
STARTCHAR Wgrave
ENCODING 7808
SWIDTH 795 0
DWIDTH 11 0
BBX 11 12 0 0
BITMAP
000060000000
000074000000
000004000000
74000E100390
48004A500660
1B0082900920
0B00A0A00B00
092190721A00
065550363700
028910097400
00AA000AA100
00A80006C000
ENDCHAR
STARTCHAR wgrave
ENCODING 7809
SWIDTH 682 0
DWIDTH 10 0
BBX 10 10 0 0
BITMAP
0009400000
0001900000
0000000000
9200B40092
5600A800B0
1A045A0290
0A08181640
0739045A00
0298019A00
00C400B600
ENDCHAR
STARTCHAR Wacute
ENCODING 7810
SWIDTH 795 0
DWIDTH 11 0
BBX 11 12 0 0
BITMAP
000000610000
000003900000
000004100000
74000E100390
48004A500660
1B0082900920
0B00A0A00B00
092190721A00
065550363700
028910097400
00AA000AA100
00A80006C000
ENDCHAR
STARTCHAR wacute
ENCODING 7811
SWIDTH 682 0
DWIDTH 10 0
BBX 10 10 0 0
BITMAP
00000A3000
0000370000
0000000000
9200B40092
5600A800B0
1A045A0290
0A08181640
0739045A00
0298019A00
00C400B600
ENDCHAR
STARTCHAR Wdieresis
ENCODING 7812
SWIDTH 795 0
DWIDTH 11 0
BBX 11 12 0 0
BITMAP
000080800000
0000A0910000
000000000000
74000E100390
48004A500660
1B0082900920
0B00A0A00B00
092190721A00
065550363700
028910097400
00AA000AA100
00A80006C000
ENDCHAR
STARTCHAR wdieresis
ENCODING 7813
SWIDTH 682 0
DWIDTH 10 0
BBX 10 10 0 0
BITMAP
000A064000
0008053000
0000000000
9200B40092
5600A800B0
1A045A0290
0A08181640
0739045A00
0298019A00
00C400B600
ENDCHAR
STARTCHAR uni1E9E
ENCODING 7838
SWIDTH 542 0
DWIDTH 8 0
BBX 6 9 1 0
BITMAP
4CBBC7
B10082
A00190
A00820
A00BC4
A0001B
A0000A
A0001A
A06BC3
ENDCHAR
STARTCHAR Ygrave
ENCODING 7922
SWIDTH 493 0
DWIDTH 7 0
BBX 7 12 0 0
BITMAP
00600000
00740000
00040000
75000650
1B000B00
07506500
01B0B000
007A5000
001D0000
000B0000
000B0000
000A0000
ENDCHAR
STARTCHAR ygrave
ENCODING 7923
SWIDTH 459 0
DWIDTH 6 0
BBX 6 12 0 -2
BITMAP
01C100
003700
000000
74000A
290038
0A0083
0650B0
01A480
00AA20
003C00
006600
3B9000
ENDCHAR
STARTCHAR uni200B
ENCODING 8203
SWIDTH 0 0
DWIDTH 0 0
BBX 1 1 0 0
BITMAP
00
ENDCHAR
STARTCHAR uni200C
ENCODING 8204
SWIDTH 0 0
DWIDTH 0 0
BBX 2 15 -1 -3
BITMAP
23
55
55
55
55
55
55
55
55
55
55
55
55
55
55
ENDCHAR
STARTCHAR uni200D
ENCODING 8205
SWIDTH 0 0
DWIDTH 0 0
BBX 4 15 -2 -3
BITMAP
2002
6886
0BB0
7AA7
0550
0550
0550
0550
0550
0550
0550
0550
0550
0550
0550
ENDCHAR
STARTCHAR endash
ENCODING 8211
SWIDTH 408 0
DWIDTH 6 0
BBX 6 1 0 4
BITMAP
4BBBB1
ENDCHAR
STARTCHAR emdash
ENCODING 8212
SWIDTH 537 0
DWIDTH 8 0
BBX 7 1 0 4
BITMAP
4BBBBBA0
ENDCHAR
STARTCHAR quoteleft
ENCODING 8216
SWIDTH 179 0
DWIDTH 3 0
BBX 2 4 0 6
BITMAP
01
07
19
29
ENDCHAR
STARTCHAR quoteright
ENCODING 8217
SWIDTH 179 0
DWIDTH 3 0
BBX 2 4 0 5
BITMAP
29
28
25
01
ENDCHAR
STARTCHAR quotesinglbase
ENCODING 8218
SWIDTH 187 0
DWIDTH 3 0
BBX 2 3 0 -1
BITMAP
1A
19
14
ENDCHAR
STARTCHAR quotedblleft
ENCODING 8220
SWIDTH 329 0
DWIDTH 5 0
BBX 4 4 0 6
BITMAP
0101
0706
190A
290A
ENDCHAR
STARTCHAR quotedblright
ENCODING 8221
SWIDTH 329 0
DWIDTH 5 0
BBX 4 4 0 5
BITMAP
290A
280A
2506
0101
ENDCHAR
STARTCHAR quotedblbase
ENCODING 8222
SWIDTH 337 0
DWIDTH 5 0
BBX 4 4 0 -2
BITMAP
1A0B
190A
1605
0100
ENDCHAR
STARTCHAR dagger
ENCODING 8224
SWIDTH 427 0
DWIDTH 6 0
BBX 6 9 0 0
BITMAP
005400
005400
38AA83
005400
006500
005500
005400
004400
004300
ENDCHAR
STARTCHAR daggerdbl
ENCODING 8225
SWIDTH 427 0
DWIDTH 6 0
BBX 6 9 0 0
BITMAP
005400
005400
38AA83
005400
005500
005400
4BCCB4
005400
005400
ENDCHAR
STARTCHAR bullet
ENCODING 8226
SWIDTH 273 0
DWIDTH 4 0
BBX 2 3 1 3
BITMAP
11
B8
A8
ENDCHAR
STARTCHAR ellipsis
ENCODING 8230
SWIDTH 591 0
DWIDTH 8 0
BBX 8 2 0 0
BITMAP
1A037065
1B048075
ENDCHAR
STARTCHAR perthousand
ENCODING 8240
SWIDTH 1027 0
DWIDTH 14 0
BBX 14 9 0 0
BITMAP
1BBB1071000000
45063180000000
45063630000000
0ABA0900000000
00004500000000
00009078802885
00027360449009
00081360459009
001800BBB14CB8
ENDCHAR
STARTCHAR guilsinglleft
ENCODING 8249
SWIDTH 290 0
DWIDTH 4 0
BBX 4 5 0 1
BITMAP
0061
0750
1A00
0570
0041
ENDCHAR
STARTCHAR guilsinglright
ENCODING 8250
SWIDTH 290 0
DWIDTH 4 0
BBX 4 5 0 1
BITMAP
1700
0570
0091
0650
1500
ENDCHAR
STARTCHAR fraction
ENCODING 8260
SWIDTH 117 0
DWIDTH 2 0
BBX 8 9 -3 0
BITMAP
00000072
00000550
00002800
00009100
00073000
00460000
01900000
09100000
63000000
ENDCHAR
STARTCHAR Euro
ENCODING 8364
SWIDTH 523 0
DWIDTH 7 0
BBX 7 9 0 0
BITMAP
01BBBA00
06500750
07300220
5DCB6000
07300000
5DCB6000
07300220
06500750
01BBBA00
ENDCHAR
STARTCHAR uni20B9
ENCODING 8377
SWIDTH 414 0
DWIDTH 6 0
BBX 6 9 0 0
BITMAP
5BCEB3
5BBEB3
000A00
002900
6CB200
1A0000
039000
006600
000500
ENDCHAR
STARTCHAR trademark
ENCODING 8482
SWIDTH 591 0
DWIDTH 8 0
BBX 8 4 0 5
BITMAP
1BD5B055
00709586
00707856
00607115
ENDCHAR
STARTCHAR uni2126
ENCODING 8486
SWIDTH 629 0
DWIDTH 9 0
BBX 9 9 0 0
BITMAP
02BBBBB100
0930006600
0A10004700
0A10004700
0A10004700
0A10004700
0910004600
179304A510
3886078820
ENDCHAR
STARTCHAR partialdiff
ENCODING 8706
SWIDTH 481 0
DWIDTH 7 0
BBX 6 10 0 0
BITMAP
02A710
0014B2
000028
05BB9A
1B002D
28000B
28000B
29000B
0B5479
017760
ENDCHAR
STARTCHAR uni2206
ENCODING 8710
SWIDTH 594 0
DWIDTH 8 0
BBX 8 9 0 0
BITMAP
0007B000
000A8300
00472800
00910A00
01900550
074000A0
0A000082
3A444468
48888886
ENDCHAR
STARTCHAR minus
ENCODING 8722
SWIDTH 523 0
DWIDTH 7 0
BBX 6 1 1 4
BITMAP
BBBBB3
ENDCHAR
STARTCHAR approxequal
ENCODING 8776
SWIDTH 523 0
DWIDTH 7 0
BBX 6 4 1 3
BITMAP
9B7134
705BB1
000000
9BBBA2
ENDCHAR
STARTCHAR notequal
ENCODING 8800
SWIDTH 523 0
DWIDTH 7 0
BBX 6 7 1 1
BITMAP
000500
99AC93
007100
009000
BCDBB3
063000
030000
ENDCHAR
STARTCHAR lessequal
ENCODING 8804
SWIDTH 523 0
DWIDTH 7 0
BBX 6 6 1 2
BITMAP
000373
489720
B83000
026992
000011
BBBBB3
ENDCHAR
STARTCHAR greaterequal
ENCODING 8805
SWIDTH 523 0
DWIDTH 7 0
BBX 6 6 1 2
BITMAP
840000
159951
0026C3
898300
200000
BBBBB3
ENDCHAR
STARTCHAR uni25CC
ENCODING 9676
SWIDTH 701 0
DWIDTH 10 0
BBX 8 8 1 1
BITMAP
086D4C00
010101B3
A5000010
1000002D
C2000001
2C00003A
011014B0
00A4D110
ENDCHAR
STARTCHAR commaaccent
ENCODING 63171
SWIDTH 0 0
DWIDTH 0 0
BBX 2 3 2 -4
BITMAP
38
36
32
ENDCHAR
STARTCHAR .notdef
ENCODING -1
SWIDTH 600 0
DWIDTH 8 0
BBX 6 9 1 0
BITMAP
4CBBB9
56000B
56000B
56000B
56000B
56000B
56000B
56000B
4CBBB9
ENDCHAR
STARTCHAR .null
ENCODING -1
SWIDTH 0 0
DWIDTH 0 0
BBX 1 1 0 0
BITMAP
00
ENDCHAR
STARTCHAR nonmarkingreturn
ENCODING -1
SWIDTH 333 0
DWIDTH 5 0
BBX 1 1 0 0
BITMAP
00
ENDCHAR
STARTCHAR uni0915094D
ENCODING -1
SWIDTH 519 0
DWIDTH 7 0
BBX 11 9 -1 0
BITMAP
2BBBBCDBBB10
005B749BB600
00B004A00700
028004600000
028004600000
01B007600000
005BB9600000
000004600000
000002300000
ENDCHAR
STARTCHAR uni0916094D
ENCODING -1
SWIDTH 468 0
DWIDTH 7 0
BBX 10 9 -1 0
BITMAP
2BBCEBBBB0
0001900000
000191A800
0004865000
07CB282000
02A0065031
004701AB80
0008400000
0000500000
ENDCHAR
STARTCHAR uni0917094D
ENCODING -1
SWIDTH 264 0
DWIDTH 4 0
BBX 5 6 -1 3
BITMAP
2BCD90
002800
002800
002800
005700
08A100
ENDCHAR
STARTCHAR uni0918094D
ENCODING -1
SWIDTH 321 0
DWIDTH 5 0
BBX 8 8 -1 1
BITMAP
2BECBBB2
00A00000
00A00000
006D9000
00A00000
00A00000
00B10052
004BBC70
ENDCHAR
STARTCHAR uni0919094D
ENCODING -1
SWIDTH 505 0
DWIDTH 7 0
BBX 9 12 -1 -3
BITMAP
2BBBBCDB20
0000045000
007BBC4000
00B0001600
007BBB4000
000001A000
007000A000
00B4469000
0027861000
0000800000
0000480000
0000050000
ENDCHAR
STARTCHAR uni091A094D
ENCODING -1
SWIDTH 330 0
DWIDTH 5 0
BBX 8 8 -1 1
BITMAP
2BBBBBB3
00000000
00000000
07BDB500
00560000
00820000
00660042
0019BB80
ENDCHAR
STARTCHAR uni091B094D
ENCODING -1
SWIDTH 581 0
DWIDTH 8 0
BBX 10 8 -1 1
BITMAP
2BDCBBBBB3
00A0000000
00B004B700
006D700A10
00B1000820
00A0000820
00B0000A10
005CBBC700
ENDCHAR
STARTCHAR uni091C094D
ENCODING -1
SWIDTH 309 0
DWIDTH 4 0
BBX 7 8 -1 1
BITMAP
2BBBBB90
00000000
00000000
00BCCB90
00019000
0000A000
0001B000
06BB4000
ENDCHAR
STARTCHAR uni091D094D
ENCODING -1
SWIDTH 432 0
DWIDTH 6 0
BBX 9 9 -1 0
BITMAP
2BBBBEBB50
006BBB0000
00B0000000
00B0000000
006BBDBB50
0190074000
01B0064000
01CBBB1000
0190000000
ENDCHAR
STARTCHAR uni091E094D
ENCODING -1
SWIDTH 359 0
DWIDTH 5 0
BBX 8 8 -1 1
BITMAP
2BBBBBB5
00000000
01BB4000
0000A000
00009100
00009CB5
0000B100
04BC7000
ENDCHAR
STARTCHAR uni091F094D
ENCODING -1
SWIDTH 485 0
DWIDTH 7 0
BBX 8 12 -1 -3
BITMAP
2BBBBDDB
00000550
004BBC40
00B10000
01900000
01900071
00B000B0
006CBC60
00000000
00008200
00002A00
00000410
ENDCHAR
STARTCHAR uni0920094D
ENCODING -1
SWIDTH 512 0
DWIDTH 7 0
BBX 9 12 -1 -3
BITMAP
2BBBBCDB40
0000047000
004BBD5000
00B000B100
0190008200
0190008200
00B000B100
006CBC7000
0000000000
0000910000
0000390000
0000050000
ENDCHAR
STARTCHAR uni0921094D
ENCODING -1
SWIDTH 475 0
DWIDTH 7 0
BBX 8 12 -1 -3
BITMAP
2BBBBCD9
00000450
007BBC40
00B00000
007BBB30
000001A0
007000A0
00A32490
00278610
00007100
00003900
00000500
ENDCHAR
STARTCHAR uni0922094D
ENCODING -1
SWIDTH 485 0
DWIDTH 7 0
BBX 8 12 -1 -3
BITMAP
2BBBBCDB
00000460
004BBC50
00B10000
00904B90
00909091
00B01091
006CBB80
00000000
00008100
00002900
00000510
ENDCHAR
STARTCHAR uni0923094D
ENCODING -1
SWIDTH 454 0
DWIDTH 6 0
BBX 8 7 -1 2
BITMAP
2BEBBDC6
00A00730
00A00730
00A00730
00A00730
00A10A10
003BB700
ENDCHAR
STARTCHAR uni0924094D
ENCODING -1
SWIDTH 263 0
DWIDTH 4 0
BBX 7 9 -1 0
BITMAP
2BBBBB10
00000000
005BBB10
00B00000
01900000
01900000
01900000
00B51000
00172000
ENDCHAR
STARTCHAR uni0925094D
ENCODING -1
SWIDTH 359 0
DWIDTH 5 0
BBX 7 8 0 1
BITMAP
04CB2000
0A028000
07019000
00047000
2CBA1000
28000000
0B100250
04BBBA20
ENDCHAR
STARTCHAR uni0926094D
ENCODING -1
SWIDTH 489 0
DWIDTH 7 0
BBX 8 11 -1 -2
BITMAP
2BBBBCEB
00000190
005BBC70
00B00000
01900040
00B001B0
005BBAA0
000000A0
00006040
00005600
00000500
ENDCHAR
STARTCHAR uni0927094D
ENCODING -1
SWIDTH 321 0
DWIDTH 5 0
BBX 8 8 -1 1
BITMAP
2BEC47B3
00A00000
00A00000
006D9000
00A00000
00A00000
00B10052
004BBC70
ENDCHAR
STARTCHAR uni0928094D
ENCODING -1
SWIDTH 233 0
DWIDTH 3 0
BBX 6 7 -1 2
BITMAP
2BBBB7
000000
000000
000000
03CBB7
064000
011000
ENDCHAR
STARTCHAR uni092A094D
ENCODING -1
SWIDTH 269 0
DWIDTH 4 0
BBX 7 7 -1 2
BITMAP
2BEBBB60
00A00000
00A00000
00A00000
00A00000
00A10250
003BBA10
ENDCHAR
STARTCHAR uni092B094D
ENCODING -1
SWIDTH 530 0
DWIDTH 7 0
BBX 11 9 -1 0
BITMAP
2BEBBCEBBB30
00A001AAC900
00A001C00620
00A001900000
00B104900000
003BB8900000
000001900000
000001900000
000000400000
ENDCHAR
STARTCHAR uni092C094D
ENCODING -1
SWIDTH 265 0
DWIDTH 4 0
BBX 7 8 -1 1
BITMAP
2BBBBB50
00000000
005B9000
00D50000
02864000
02806450
00B00860
005BB910
ENDCHAR
STARTCHAR uni092D094D
ENCODING -1
SWIDTH 261 0
DWIDTH 4 0
BBX 7 7 -1 2
BITMAP
2C505B10
00A00000
00A00000
00A00000
00DBBB10
00A00000
00700000
ENDCHAR
STARTCHAR uni092E094D
ENCODING -1
SWIDTH 261 0
DWIDTH 4 0
BBX 7 7 -1 2
BITMAP
2BEBBB10
00A00000
00A00000
00A00000
00DBBB10
00A00000
00700000
ENDCHAR
STARTCHAR uni092F094D
ENCODING -1
SWIDTH 323 0
DWIDTH 5 0
BBX 8 8 -1 1
BITMAP
2BBDCBA0
00019000
0002A000
00CB3000
01900000
00A00000
00A10062
002BBB70
ENDCHAR
STARTCHAR uni0930094D
ENCODING -1
SWIDTH 337 0
DWIDTH 5 0
BBX 6 12 -1 -3
BITMAP
2BBCEA
000190
000190
000480
07CB20
02A000
005700
000830
000050
000900
000660
000050
ENDCHAR
STARTCHAR uni0932094D
ENCODING -1
SWIDTH 431 0
DWIDTH 6 0
BBX 9 8 -1 1
BITMAP
2BBBBBBBA0
0000000000
004BB3AB40
00B01D2040
00A00A0000
00A0050000
00B0000000
006C900000
ENDCHAR
STARTCHAR uni0933094D
ENCODING -1
SWIDTH 677 0
DWIDTH 9 0
BBX 11 8 -1 1
BITMAP
2BBBBBBBBB70
000000000000
005BB39B8000
00B00C307400
01900A004600
01900A004600
00B00C206500
006CB5ABA000
ENDCHAR
STARTCHAR uni0935094D
ENCODING -1
SWIDTH 255 0
DWIDTH 4 0
BBX 7 8 -1 1
BITMAP
2BBBBB50
00000000
005B9000
00B00000
02800000
02800050
00B00460
005BB910
ENDCHAR
STARTCHAR uni0936094D
ENCODING -1
SWIDTH 378 0
DWIDTH 5 0
BBX 5 9 0 0
BITMAP
07BC40
0B01A0
0600A0
000290
5CBB20
1A1000
039000
007500
000500
ENDCHAR
STARTCHAR uni0937094D
ENCODING -1
SWIDTH 282 0
DWIDTH 4 0
BBX 7 7 -1 2
BITMAP
2BEBBB80
00C60000
00A64000
00A08200
00A00910
00A104A0
003BBA10
ENDCHAR
STARTCHAR uni0938094D
ENCODING -1
SWIDTH 338 0
DWIDTH 5 0
BBX 8 9 -1 0
BITMAP
2BBDDBB3
00064000
00064000
00082000
07CDBBB3
02A00000
00750000
000A1000
00023000
ENDCHAR
STARTCHAR uni0939094D
ENCODING -1
SWIDTH 457 0
DWIDTH 6 0
BBX 9 10 -1 -1
BITMAP
2BBBBCDA00
0000037000
005BBC6000
00B0000000
00A0000000
004DBBBB90
00A1000000
00A0000000
00B1000000
003BBB6000
ENDCHAR
STARTCHAR uni0915093C094D
ENCODING -1
SWIDTH 519 0
DWIDTH 7 0
BBX 11 9 -1 0
BITMAP
2BBBBCDBBB10
005B749BB600
00B004A00700
028004600000
028004600000
01B007600000
005BB9600000
000004600000
004302300000
ENDCHAR
STARTCHAR uni0916093C094D
ENCODING -1
SWIDTH 463 0
DWIDTH 6 0
BBX 10 9 -1 0
BITMAP
2BBCEBBBB0
0001900000
000191A800
0004865000
07CB282000
02A0065031
004701AB80
0008400000
0070500000
ENDCHAR
STARTCHAR uni0917093C094D
ENCODING -1
SWIDTH 264 0
DWIDTH 4 0
BBX 5 9 -1 0
BITMAP
2BCD90
002800
002800
004800
08B200
000000
000000
002000
004100
ENDCHAR
STARTCHAR uni091C093C094D
ENCODING -1
SWIDTH 314 0
DWIDTH 4 0
BBX 7 10 -1 -1
BITMAP
2BBBBB90
00000000
00000000
00BCCB90
00019000
0000A000
0001B000
06BB4000
00000000
00700000
ENDCHAR
STARTCHAR uni0928093C094D
ENCODING -1
SWIDTH 241 0
DWIDTH 3 0
BBX 5 10 0 -1
BITMAP
BBBB80
000000
000000
000000
1BBB80
560000
250000
000000
000000
025000
ENDCHAR
STARTCHAR uni092B093C094D
ENCODING -1
SWIDTH 530 0
DWIDTH 7 0
BBX 11 9 -1 0
BITMAP
2BEBBCEBBB30
00A001AAC900
00A001C00620
00A001900000
00B104900000
003BB8900000
000001900000
000001900000
000700400000
ENDCHAR
STARTCHAR uni092F093C094D
ENCODING -1
SWIDTH 325 0
DWIDTH 5 0
BBX 8 10 -1 -1
BITMAP
2BBDCBA0
00019000
0002A000
00CB3000
01900000
00A00000
00A10062
002BBB70
00000000
00080000
ENDCHAR
STARTCHAR uni09080902
ENCODING -1
SWIDTH 478 0
DWIDTH 7 0
BBX 8 13 -1 0
BITMAP
00001BB4
00006500
00007370
00006400
2BBBBCD9
00000460
007BBC50
00B00000
007BBB40
000001A0
009000A0
00D54590
00968610
ENDCHAR
STARTCHAR uni09300941
ENCODING -1
SWIDTH 533 0
DWIDTH 7 0
BBX 9 9 -1 0
BITMAP
2BBCEBBB70
0001900000
0001DBB200
0004703800
07CB102800
02A0008400
0057085000
0008300000
0000500000
ENDCHAR
STARTCHAR uni09300942
ENCODING -1
SWIDTH 645 0
DWIDTH 9 0
BBX 11 9 -1 0
BITMAP
2BBCEBBBBB20
000190000000
000191AB8000
000485509100
07CB25308200
02A00001A000
005700691000
000830100000
000050000000
ENDCHAR
STARTCHAR uni09390941
ENCODING -1
SWIDTH 495 0
DWIDTH 7 0
BBX 9 13 -1 -4
BITMAP
2BBBBCDB10
0000037000
005BBC6000
00B0000000
00A0000000
004DBB3000
00A101A000
00A0005000
00B1000000
003BBB7000
013000A000
00B200A000
002ABB6000
ENDCHAR
STARTCHAR uni09390942
ENCODING -1
SWIDTH 492 0
DWIDTH 7 0
BBX 8 13 -1 -4
BITMAP
2BBBBCDA
00000370
00000370
006BBC60
00A00000
006DBB40
00A00190
00A53100
005B8B10
00910380
00A000A0
00910082
003C6044
ENDCHAR
STARTCHAR uni09260943
ENCODING -1
SWIDTH 390 0
DWIDTH 5 0
BBX 7 8 -1 1
BITMAP
2BBBDD70
00004600
007BC400
00A00000
008DA000
00A00000
00A00000
007BB800
ENDCHAR
STARTCHAR uni09390943
ENCODING -1
SWIDTH 519 0
DWIDTH 7 0
BBX 9 11 -1 -2
BITMAP
2BBBBCDB50
0000037000
008BBC5000
00B0000000
008DCCB300
00B0A02900
0190A00200
0190A54100
0190178200
00B1000000
004BBB5000
ENDCHAR
STARTCHAR uni094D0930
ENCODING -1
SWIDTH 0 0
DWIDTH 0 0
BBX 5 3 -6 -2
BITMAP
007000
096900
660650
ENDCHAR
STARTCHAR uni0930094D.1
ENCODING -1
SWIDTH 192 0
DWIDTH 3 0
BBX 6 4 -1 5
BITMAP
2BB900
000000
500051
5BBB60
ENDCHAR
STARTCHAR uni0930094D.2
ENCODING -1
SWIDTH 0 0
DWIDTH 0 0
BBX 3 5 -2 8
BITMAP
6C30
B000
A000
A000
3000
ENDCHAR
STARTCHAR uni0930094D0902
ENCODING -1
SWIDTH 0 0
DWIDTH 0 0
BBX 3 5 -2 8
BITMAP
7C30
B000
A610
A000
3000
ENDCHAR
STARTCHAR uni093E0930094D
ENCODING -1
SWIDTH 231 0
DWIDTH 3 0
BBX 5 13 -1 0
BITMAP
004C60
00A100
00A000
00A000
2BEB40
00A000
00A000
00A000
00A000
00A000
00A000
00A000
005000
ENDCHAR
STARTCHAR uni093E0930094D0902
ENCODING -1
SWIDTH 231 0
DWIDTH 3 0
BBX 5 13 -1 0
BITMAP
004C60
00A260
00A000
00A000
2BEB40
00A000
00A000
00A000
00A000
00A000
00A000
00A000
005000
ENDCHAR
STARTCHAR uni0930094D.aMatraI
ENCODING -1
SWIDTH 0 0
DWIDTH 0 0
BBX 3 3 -1 9
BITMAP
3B60
9200
A000
ENDCHAR
STARTCHAR uni0902.aMatraI
ENCODING -1
SWIDTH 0 0
DWIDTH 0 0
BBX 2 1 0 10
BITMAP
44
ENDCHAR
STARTCHAR uni0930094D0902.aMatraI
ENCODING -1
SWIDTH 0 0
DWIDTH 0 0
BBX 3 3 -1 9
BITMAP
3B60
9450
A000
ENDCHAR
STARTCHAR uni09400930094D
ENCODING -1
SWIDTH 231 0
DWIDTH 3 0
BBX 6 13 -2 0
BITMAP
6CB6B6
B00C10
900A00
000A00
02BEB4
000A00
000A00
000A00
000A00
000A00
000A00
000A00
000500
ENDCHAR
STARTCHAR uni09400902
ENCODING -1
SWIDTH 231 0
DWIDTH 3 0
BBX 6 13 -2 0
BITMAP
6CC500
B00B35
700A00
000A00
02BEB4
000A00
000A00
000A00
000A00
000A00
000A00
000A00
000500
ENDCHAR
STARTCHAR uni09400930094D0902
ENCODING -1
SWIDTH 231 0
DWIDTH 3 0
BBX 6 13 -2 0
BITMAP
7BB7B6
B00C26
100A00
000A00
02BEB4
000A00
000A00
000A00
000A00
000A00
000A00
000A00
000500
ENDCHAR
STARTCHAR uni0940.aLong
ENCODING -1
SWIDTH 231 0
DWIDTH 3 0
BBX 10 13 -6 0
BITMAP
0ABBBBC500
5600000B00
6300000A00
0000000A00
000002BEB4
0000000A00
0000000A00
0000000A00
0000000A00
0000000A00
0000000A00
0000000A00
0000000500
ENDCHAR
STARTCHAR uni09400930094D.aLong
ENCODING -1
SWIDTH 231 0
DWIDTH 3 0
BBX 10 13 -6 0
BITMAP
0ABBBBB6B6
5600000C10
6300000A00
0000000A00
000002BEB4
0000000A00
0000000A00
0000000A00
0000000A00
0000000A00
0000000A00
0000000A00
0000000500
ENDCHAR
STARTCHAR uni09400902.aLong
ENCODING -1
SWIDTH 231 0
DWIDTH 3 0
BBX 10 13 -6 0
BITMAP
1BBBBBC500
5500000B17
4200000A00
0000000A00
000002BEB4
0000000A00
0000000A00
0000000A00
0000000A00
0000000A00
0000000A00
0000000A00
0000000500
ENDCHAR
STARTCHAR uni09400930094D0902.aLong
ENCODING -1
SWIDTH 231 0
DWIDTH 3 0
BBX 10 13 -6 0
BITMAP
1BBBBBB7C6
6500000C16
1000000A00
0000000A00
000002BEB4
0000000A00
0000000A00
0000000A00
0000000A00
0000000A00
0000000A00
0000000A00
0000000500
ENDCHAR
STARTCHAR uni09470930094D
ENCODING -1
SWIDTH 0 0
DWIDTH 0 0
BBX 6 4 -5 9
BITMAP
2A06C3
075A00
009900
001A00
ENDCHAR
STARTCHAR uni09470902
ENCODING -1
SWIDTH 0 0
DWIDTH 0 0
BBX 5 5 -5 8
BITMAP
3A0000
0A4000
02C080
007600
000900
ENDCHAR
STARTCHAR uni09470901
ENCODING -1
SWIDTH 0 0
DWIDTH 0 0
BBX 8 5 -5 8
BITMAP
2A010701
0949000A
02B82028
00779992
00090000
ENDCHAR
STARTCHAR uni09470930094D0902
ENCODING -1
SWIDTH 0 0
DWIDTH 0 0
BBX 6 4 -5 9
BITMAP
2A06C3
074900
008951
001A00
ENDCHAR
STARTCHAR uni09480930094D
ENCODING -1
SWIDTH 0 0
DWIDTH 0 0
BBX 6 4 -5 9
BITMAP
6576B4
0A6B10
02AB00
004B00
ENDCHAR
STARTCHAR uni09480902
ENCODING -1
SWIDTH 0 0
DWIDTH 0 0
BBX 6 4 -5 9
BITMAP
380A00
093A54
019900
002A00
ENDCHAR
STARTCHAR uni09480901
ENCODING -1
SWIDTH 0 0
DWIDTH 0 0
BBX 9 4 -5 9
BITMAP
480A207020
093A8200A0
0199299940
003A000000
ENDCHAR
STARTCHAR uni09480930094D0902
ENCODING -1
SWIDTH 0 0
DWIDTH 0 0
BBX 6 4 -5 9
BITMAP
6576B4
0A6B10
029B52
004B00
ENDCHAR
STARTCHAR uni094B0930094D
ENCODING -1
SWIDTH 231 0
DWIDTH 3 0
BBX 5 13 -1 0
BITMAP
B13C60
579100
09A000
01D000
2BEB40
00A000
00A000
00A000
00A000
00A000
00A000
00A000
005000
ENDCHAR
STARTCHAR uni094B0902
ENCODING -1
SWIDTH 231 0
DWIDTH 3 0
BBX 5 13 -1 0
BITMAP
B00000
570800
091000
018000
2BEB40
00A000
00A000
00A000
00A000
00A000
00A000
00A000
005000
ENDCHAR
STARTCHAR uni094B0930094D0902
ENCODING -1
SWIDTH 231 0
DWIDTH 3 0
BBX 5 13 -1 0
BITMAP
B13C60
579100
09A160
01D000
2BEB40
00A000
00A000
00A000
00A000
00A000
00A000
00A000
005000
ENDCHAR
STARTCHAR uni094C0930094D
ENCODING -1
SWIDTH 231 0
DWIDTH 3 0
BBX 6 13 -2 0
BITMAP
3938B6
094C30
019D00
004D00
02BEB4
000A00
000A00
000A00
000A00
000A00
000A00
000A00
000500
ENDCHAR
STARTCHAR uni094C0902
ENCODING -1
SWIDTH 231 0
DWIDTH 3 0
BBX 6 13 -2 0
BITMAP
1A0900
065A35
00A900
002D00
02BEB4
000A00
000A00
000A00
000A00
000A00
000A00
000A00
000500
ENDCHAR
STARTCHAR uni094C0930094D0902
ENCODING -1
SWIDTH 231 0
DWIDTH 3 0
BBX 6 13 -2 0
BITMAP
3938B6
095C46
01AD00
004E00
02BEB4
000A00
000A00
000A00
000A00
000A00
000A00
000A00
000500
ENDCHAR
STARTCHAR uni0915094D0937
ENCODING -1
SWIDTH 656 0
DWIDTH 9 0
BBX 10 9 0 0
BITMAP
01ABB10CB4
0560460A00
0360540A00
08DCDBBD00
1A00230A00
1A00660A00
08BBA60A00
0000460A00
0000230500
ENDCHAR
STARTCHAR uni0915094D0937094D
ENCODING -1
SWIDTH 429 0
DWIDTH 6 0
BBX 8 9 0 0
BITMAP
01ABB100
05604600
03605400
08DCDBB6
1A002300
1A006600
08BBA600
00004600
00002300
ENDCHAR
STARTCHAR uni0915094D0937094D092E
ENCODING -1
SWIDTH 933 0
DWIDTH 13 0
BBX 14 9 0 0
BITMAP
01BBB15EBBBEB2
0560460A000A00
0360540A000A00
0520200ABBBC00
1900230A000A00
1A006603000A00
08BBA600000A00
00004600000A00
00002300000500
ENDCHAR
STARTCHAR uni0915094D0937094D092E094D
ENCODING -1
SWIDTH 717 0
DWIDTH 10 0
BBX 12 9 0 0
BITMAP
01BBB15EBBB6
0560460A0000
0360540A0000
0520200ABBB6
1900230A0000
1A0066030000
08BBA6000000
000046000000
000023000000
ENDCHAR
STARTCHAR uni0915094D0937094D092E094D092F
ENCODING -1
SWIDTH 1283 0
DWIDTH 18 0
BBX 19 9 0 0
BITMAP
01BBB15EBBBBDDBBEB10
0560460A00000A00A000
0360540A00001700A000
0520200ABBB90000A000
1900230A000A0000A000
1A006606000A2004A000
08BBC6000002ABB6A000
0000460000000000A000
00002300000000005000
ENDCHAR
STARTCHAR uni0915094D0937094D092F
ENCODING -1
SWIDTH 989 0
DWIDTH 14 0
BBX 14 9 0 0
BITMAP
01ABB15BDCBCEB
05604600180290
04605400290290
07DCDBBCB30290
1A002319000290
1A00660B100690
08BBC604BBB790
00004600000290
00002300000140
ENDCHAR
STARTCHAR uni0915094D0937094D0935
ENCODING -1
SWIDTH 936 0
DWIDTH 13 0
BBX 14 9 0 0
BITMAP
01ABB15BBBBEB3
05604601AB1A00
03605407200A00
08DCDBBC000A00
1A00230A000A00
1A00660B201B00
08BBB603BB9A00
00004600000A00
00002300000400
ENDCHAR
STARTCHAR uni091C094D091E
ENCODING -1
SWIDTH 629 0
DWIDTH 9 0
BBX 10 10 -1 -1
BITMAP
2BBBBBBCDB
0000000370
007BBBBC70
00C0000370
007BBB3370
0000029370
00A0019370
00DBBC3370
00A0000130
00A0000000
ENDCHAR
STARTCHAR uni091C094D091E094D
ENCODING -1
SWIDTH 398 0
DWIDTH 6 0
BBX 8 9 -1 0
BITMAP
2BBBBBBB
00000000
007BBBBB
00C00000
007BBB30
00A00290
00C00190
00DBBC30
00A00000
ENDCHAR
STARTCHAR uni091C094D091E094D092F
ENCODING -1
SWIDTH 975 0
DWIDTH 14 0
BBX 15 10 -1 -1
BITMAP
2BBBBBBBBEBBDD90
0000000004605500
007BBBBB14605500
00C00007CB105500
007BBB3550005500
0000029390009500
00A001907BBB9500
00DBBC3000005500
00A0000000002200
00A0000000000000
ENDCHAR
STARTCHAR uni0915094D0928
ENCODING -1
SWIDTH 1003 0
DWIDTH 14 0
BBX 16 9 -1 0
BITMAP
2BBBBCDBBBBBBEB2
005B749BB5000A00
00B004A00A100A00
0280046009CBBB00
028004600A000A00
01B0076004000A00
005BB96000000A00
0000046000000A00
0000023000000500
ENDCHAR
STARTCHAR uni0916094D0928
ENCODING -1
SWIDTH 958 0
DWIDTH 13 0
BBX 15 9 -1 0
BITMAP
2BBCEBBBBBBBDC60
0001900000008200
000191ABA1008200
000487406DBBE200
07CB274073008200
02A001ABD3008200
0047000023008200
0008400000008200
0000500000004100
ENDCHAR
STARTCHAR uni0917094D0928
ENCODING -1
SWIDTH 736 0
DWIDTH 10 0
BBX 12 9 -1 0
BITMAP
2BCDBBBBBEC5
002800000A00
002800000A00
002803CBBE00
00570A200A00
08A108100A00
000001000A00
000000000A00
000000000500
ENDCHAR
STARTCHAR uni0918094D0928
ENCODING -1
SWIDTH 814 0
DWIDTH 11 0
BBX 13 9 -1 0
BITMAP
2BECBBBBBBDC60
00A00000008200
008D9000008200
0081003BBBE200
00A00083008200
00B100A2008200
004BBB84008200
00000000008200
00000000004100
ENDCHAR
STARTCHAR uni091A094D0928
ENCODING -1
SWIDTH 829 0
DWIDTH 12 0
BBX 13 9 -1 0
BITMAP
2BBBBBBBBBDD90
00000000005500
07BDC500005500
0046001BBBD500
00730056005500
00560085005500
0009BB77005500
00000000005500
00000000002200
ENDCHAR
STARTCHAR uni091B094D0928
ENCODING -1
SWIDTH 977 0
DWIDTH 14 0
BBX 15 9 -1 0
BITMAP
2BDCBBBBBBBBCD90
00A004B700004600
00B0000A10004600
007D70083BBBD600
0081000867004600
00A0000834004600
00B0000A00004600
006CBBC600004600
0000000000002300
ENDCHAR
STARTCHAR uni091C094D0928
ENCODING -1
SWIDTH 831 0
DWIDTH 12 0
BBX 13 9 -1 0
BITMAP
2BBBBBBBBBDD90
00000000005500
00000000005500
00BCCBCDBBD500
00019056005500
0000A025005500
0000B000005500
06BC5000005500
00000000002200
ENDCHAR
STARTCHAR uni091D094D0928
ENCODING -1
SWIDTH 935 0
DWIDTH 13 0
BBX 15 9 -1 0
BITMAP
2BBBBEBBBBBBEB30
006BBB000000A000
00B000000000A000
00B000006BBBC000
006BBDBBC000A000
019007403000A000
01B006400000A000
01CBBB100000A000
0190000000005000
ENDCHAR
STARTCHAR uni091F094D0928
ENCODING -1
SWIDTH 494 0
DWIDTH 7 0
BBX 9 13 -1 -4
BITMAP
2BBBBCDB10
0000046000
0000046000
004BBC5000
00B0000000
0190006200
00B000A100
005BBC8000
0000037000
007CBC7000
00B0037000
0090037000
0000037000
ENDCHAR
STARTCHAR uni0920094D0928
ENCODING -1
SWIDTH 516 0
DWIDTH 7 0
BBX 9 13 -1 -4
BITMAP
2BBBBCEB40
0000028000
0000047000
005BBE5000
00B000A100
0190008300
00B000A100
005BBC8000
0000037000
007CBC7000
00B0037000
0090037000
0000037000
ENDCHAR
STARTCHAR uni0921094D0928
ENCODING -1
SWIDTH 481 0
DWIDTH 7 0
BBX 8 13 -1 -4
BITMAP
2BBBBCDA
00000370
005BBC50
00B00000
00B00000
006BBB40
003000B0
00A000A0
006BBC70
00000370
008CBC70
00B00370
00400370
ENDCHAR
STARTCHAR uni0924094D0928
ENCODING -1
SWIDTH 756 0
DWIDTH 11 0
BBX 12 9 -1 0
BITMAP
2BBBBBBBBDD8
000000000650
005BBB200650
00B003DBBD50
019005500650
019002400650
019000000650
00B510000650
001720000320
ENDCHAR
STARTCHAR uni0925094D0928
ENCODING -1
SWIDTH 855 0
DWIDTH 12 0
BBX 13 9 0 0
BITMAP
06CB36BBBBEB10
0A01900000A000
0103800000A000
2CBB208CBBA000
280000B000A000
0B1003B000A000
04BBB96000A000
0000000000A000
00000000005000
ENDCHAR
STARTCHAR uni0926094D0928
ENCODING -1
SWIDTH 955 0
DWIDTH 13 0
BBX 15 12 -1 -3
BITMAP
2BBBBCEBBBBBEC60
0000019000009100
005BBC7000009100
00B000004CBBE100
0190004082009100
00B001B011009100
005BBAA000009100
000000A000009100
0000004000004000
0000007100000000
0000003900000000
0000000500000000
ENDCHAR
STARTCHAR uni0927094D0928
ENCODING -1
SWIDTH 814 0
DWIDTH 11 0
BBX 13 9 -1 0
BITMAP
2BEC50ABBBDC60
00A00000008200
008D9000008200
0081003BBBE200
00A00083008200
00B100B2008200
004BBB83008200
00000000008200
00000000004100
ENDCHAR
STARTCHAR uni0928094D0928
ENCODING -1
SWIDTH 738 0
DWIDTH 10 0
BBX 12 9 -1 0
BITMAP
2BBBBBBBBEC5
000000000910
000000000910
01BBBCCBBE10
056009200910
025006100910
000000000910
000000000910
000000000400
ENDCHAR
STARTCHAR uni092A094D0928
ENCODING -1
SWIDTH 782 0
DWIDTH 11 0
BBX 13 9 -1 0
BITMAP
2BEBBBBBBBEB10
00A0000000A000
00A0000000A000
00A0008CBCA000
00A103B000A000
003BBAA000A000
0000000000A000
0000000000A000
00000000005000
ENDCHAR
STARTCHAR uni092B094D0928
ENCODING -1
SWIDTH 1013 0
DWIDTH 14 0
BBX 16 9 -1 0
BITMAP
2BEBBCEBBBBBBEB4
00A001AAB6000A00
00A001C00A100A00
00A0019008CBBD00
00B104900A000A00
003BB89006000A00
0000019000000A00
0000019000000A00
0000004000000500
ENDCHAR
STARTCHAR uni092C094D0928
ENCODING -1
SWIDTH 810 0
DWIDTH 11 0
BBX 13 9 -1 0
BITMAP
2BBBBBBBBBEC50
005B9000009100
00E40000009100
0299304CBBE100
02808391009100
00A00951009100
005BB900009100
00000000009100
00000000004000
ENDCHAR
STARTCHAR uni092D094D0928
ENCODING -1
SWIDTH 757 0
DWIDTH 11 0
BBX 12 9 -1 0
BITMAP
2C605BBBBDD8
00B000000550
00A000000550
00DBBCDBBD50
00A005500550
007001300550
000000000550
000000000550
000000000220
ENDCHAR
STARTCHAR uni092E094D0928
ENCODING -1
SWIDTH 757 0
DWIDTH 11 0
BBX 12 9 -1 0
BITMAP
2BEBBBBBBDD8
00A000000550
00A000000550
00DBBCDBBD50
00A005500550
007001300550
000000000550
000000000550
000000000220
ENDCHAR
STARTCHAR uni092F094D0928
ENCODING -1
SWIDTH 829 0
DWIDTH 12 0
BBX 13 9 -1 0
BITMAP
2BBDCBBBBBDD80
00019000005500
0002A000005500
00CB301BBBD500
01A00056005500
00B10095005500
003BBB56005500
00000000005500
00000000002200
ENDCHAR
STARTCHAR uni0935094D0928
ENCODING -1
SWIDTH 798 0
DWIDTH 11 0
BBX 13 9 -1 0
BITMAP
2BBBBBBBBBEB40
005B900000A000
00B0000000A000
0280006CBBD000
028000A000A000
00B0036000A000
005BB90000A000
0000000000A000
00000000005000
ENDCHAR
STARTCHAR uni0936094D0928
ENCODING -1
SWIDTH 845 0
DWIDTH 12 0
BBX 12 9 0 0
BITMAP
07BC42BBBCEB
0A01A0000280
0400A0000280
0002909CBC80
5CBB22900280
1A1000800280
039000000280
007500000280
000500000140
ENDCHAR
STARTCHAR uni0938094D0928
ENCODING -1
SWIDTH 831 0
DWIDTH 12 0
BBX 13 9 -1 0
BITMAP
2BBDDBBBBBDD90
00064000005500
00064000005500
0008200ABBD500
07CDBBC6005500
02A00036005500
00750000005500
000A1000005500
00023000002200
ENDCHAR
STARTCHAR uni0939094D0928
ENCODING -1
SWIDTH 500 0
DWIDTH 7 0
BBX 9 10 -1 -1
BITMAP
2BBBBBEB20
000000A000
006BBBA000
00A0000000
005DBBD300
00A109A400
00A0836400
00A0835400
00B1010000
003BBB6000
ENDCHAR
STARTCHAR uni0915094D0930
ENCODING -1
SWIDTH 725 0
DWIDTH 10 0
BBX 12 9 -1 0
BITMAP
2BBBBCDBBBB3
005B749BB700
00B004A00920
028004600640
028004600640
01B007600920
006CDB66B700
000384600000
002902300000
ENDCHAR
STARTCHAR uni0916094D0930
ENCODING -1
SWIDTH 698 0
DWIDTH 10 0
BBX 11 9 -1 0
BITMAP
2BBCEBBBCDA0
000190003700
000190993700
000486603700
07CB27303700
02A006606700
005701ACA700
000840273700
000051901300
ENDCHAR
STARTCHAR uni0917094D0930
ENCODING -1
SWIDTH 494 0
DWIDTH 7 0
BBX 9 9 -1 0
BITMAP
2BCDBCEB10
0028019000
0028019000
0028019000
0057029000
08A11B9000
0001A29000
001A219000
0042004000
ENDCHAR
STARTCHAR uni0918094D0930
ENCODING -1
SWIDTH 559 0
DWIDTH 8 0
BBX 9 9 -1 0
BITMAP
2BECBBCDB0
00A0002800
00A0002800
006D902800
00A0002800
00B0005800
005BBD9800
0000762800
0008501400
ENDCHAR
STARTCHAR uni0919094D0930
ENCODING -1
SWIDTH 505 0
DWIDTH 7 0
BBX 9 11 -1 -2
BITMAP
2BBBBCDB20
0000045000
007BBC4000
00B0001600
007BBB4000
000001A000
000000A000
00B4469000
003BE81000
001B2A0000
0083075000
ENDCHAR
STARTCHAR uni091A094D0930
ENCODING -1
SWIDTH 563 0
DWIDTH 8 0
BBX 10 9 -1 0
BITMAP
2BBBBBCEB1
0000001900
07BDB51900
0056001900
0082001900
0066004900
001ABD9900
0000581900
0006700400
ENDCHAR
STARTCHAR uni091B094D0930
ENCODING -1
SWIDTH 581 0
DWIDTH 8 0
BBX 10 10 -1 -1
BITMAP
2BDCBBBEB3
00A0000A00
00B004BA00
006D700A00
00B1000820
00A0000820
00B0000A00
005CBBC700
0002A84000
000A10A100
ENDCHAR
STARTCHAR uni091C094D0930
ENCODING -1
SWIDTH 547 0
DWIDTH 8 0
BBX 9 9 -1 0
BITMAP
2BBBBBCD90
0000004600
00BCCBD600
0001904600
0000A04600
0001B08600
06BB45A600
0000394600
0001B12300
ENDCHAR
STARTCHAR uni091D094D0930
ENCODING -1
SWIDTH 684 0
DWIDTH 10 0
BBX 11 9 -1 0
BITMAP
2BBBBEBBDD80
006BBB006400
00B000006400
00B000006400
006BBDBBD400
01900740A400
01B00646D400
01CBBB4B6400
019001B13200
ENDCHAR
STARTCHAR uni091E094D0930
ENCODING -1
SWIDTH 598 0
DWIDTH 8 0
BBX 10 9 -1 0
BITMAP
2BBBBBBEC6
01BB400910
0000A00910
0000910910
00009CBE10
0000B11C10
04BC708A10
0000092910
0000320410
ENDCHAR
STARTCHAR uni091F094D0930
ENCODING -1
SWIDTH 485 0
DWIDTH 7 0
BBX 8 10 -1 -1
BITMAP
2BBBBDDB
00000550
004BBC40
00B10000
01900000
01900081
00B000B0
006CBC60
00086A00
00480470
ENDCHAR
STARTCHAR uni0920094D0930
ENCODING -1
SWIDTH 512 0
DWIDTH 7 0
BBX 9 10 -1 -1
BITMAP
2BBBBCDB40
0000047000
004BBD5000
00B000B100
0190008200
0190008200
00B000B100
006CBC7000
00086A0000
0048047000
ENDCHAR
STARTCHAR uni0921094D0930
ENCODING -1
SWIDTH 475 0
DWIDTH 7 0
BBX 8 10 -1 -1
BITMAP
2BBBBCD9
00000450
007BBC40
00B00000
007BBB40
000001A0
009000A0
00B44690
002BCA10
00570840
ENDCHAR
STARTCHAR uni0922094D0930
ENCODING -1
SWIDTH 485 0
DWIDTH 7 0
BBX 8 10 -1 -1
BITMAP
2BBBBCDB
00000460
004BBC50
00B10000
00904B90
00909091
00B01091
006CBB90
00076A00
00480480
ENDCHAR
STARTCHAR uni0923094D0930
ENCODING -1
SWIDTH 681 0
DWIDTH 10 0
BBX 11 9 -1 0
BITMAP
2BEBBDCBDC80
00A007306400
00A007306400
00A007306400
00B10A20A400
004BB8079400
000000556400
000004806400
000005003200
ENDCHAR
STARTCHAR uni0924094D0930
ENCODING -1
SWIDTH 493 0
DWIDTH 7 0
BBX 9 9 -1 0
BITMAP
2BBBBCEB10
0000019000
005BB89000
00B0049000
0280019000
0010089000
0001A59000
003A219000
0061004000
ENDCHAR
STARTCHAR uni0925094D0930
ENCODING -1
SWIDTH 593 0
DWIDTH 8 0
BBX 9 9 0 0
BITMAP
06CC409C50
0A0190A000
010380A000
2CBB20A000
280000A000
0B1001D000
04BBCBB000
000491A000
0068005000
ENDCHAR
STARTCHAR uni0926094D0930
ENCODING -1
SWIDTH 489 0
DWIDTH 7 0
BBX 8 9 -1 0
BITMAP
2BBBBCEB
00000190
005BBC70
00B00000
01900040
00B001B0
005BCCA0
0000A3A0
00066040
ENDCHAR
STARTCHAR uni0927094D0930
ENCODING -1
SWIDTH 560 0
DWIDTH 8 0
BBX 9 9 -1 0
BITMAP
2BEC25CDB0
00A0002800
00A0002800
006D902800
00A0002800
00B0005800
005BBDA800
0000592800
0004901400
ENDCHAR
STARTCHAR uni0928094D0930
ENCODING -1
SWIDTH 473 0
DWIDTH 7 0
BBX 8 9 -1 0
BITMAP
2BBBBDD9
00000550
00000550
01BBBD50
05600950
02506B50
00057550
00490550
00500220
ENDCHAR
STARTCHAR uni092A094D0930
ENCODING -1
SWIDTH 503 0
DWIDTH 7 0
BBX 9 9 -1 0
BITMAP
2BEBBBEB20
00A000A000
00A000A000
00A000A000
00B102B000
004BCBA000
000181A000
000910A000
0042005000
ENDCHAR
STARTCHAR uni092B094D0930
ENCODING -1
SWIDTH 741 0
DWIDTH 10 0
BBX 12 9 -1 0
BITMAP
2BEBBCEBBBB6
00A001BAB900
00A001C10650
00A001900370
00B104900370
004BCA900650
00018193B900
001901900000
004100400000
ENDCHAR
STARTCHAR uni092C094D0930
ENCODING -1
SWIDTH 491 0
DWIDTH 7 0
BBX 8 9 -1 0
BITMAP
2BBBBCEB
005B9190
00D50190
02865190
02806690
00B00990
005BDA90
00029290
001A1040
ENDCHAR
STARTCHAR uni092D094D0930
ENCODING -1
SWIDTH 491 0
DWIDTH 7 0
BBX 8 9 -1 0
BITMAP
2C605CEB
00B00190
00A00190
00DBBC90
00A00890
00705890
00039190
001A0190
00420040
ENDCHAR
STARTCHAR uni092E094D0930
ENCODING -1
SWIDTH 490 0
DWIDTH 7 0
BBX 8 9 -1 0
BITMAP
2BEBBCEB
00A00190
00A00190
00DBBC90
00A00990
00706790
00049190
002A0190
00410140
ENDCHAR
STARTCHAR uni092F094D0930
ENCODING -1
SWIDTH 564 0
DWIDTH 8 0
BBX 10 9 -1 0
BITMAP
2BBDCBCEB1
0001901900
0002A01900
01CB301900
0190001900
00B1005900
004BBD8900
0000861900
0009500400
ENDCHAR
STARTCHAR uni0935094D0930
ENCODING -1
SWIDTH 484 0
DWIDTH 7 0
BBX 8 9 -1 0
BITMAP
2BBBBCDA
005B8370
00B00370
02900370
02900370
00B00670
005BDA70
00039370
002A0130
ENDCHAR
STARTCHAR uni0936094D0930
ENCODING -1
SWIDTH 558 0
DWIDTH 8 0
BBX 8 9 0 0
BITMAP
08BB32DA
0A01A280
0A019280
077A3280
05BB3280
5701AC80
00079380
00950280
00000140
ENDCHAR
STARTCHAR uni0938094D0930
ENCODING -1
SWIDTH 604 0
DWIDTH 8 0
BBX 10 9 -1 0
BITMAP
2BBDDBBDC7
0006400830
0006400830
0008200830
07CDBBCE30
02A000A930
0075093830
000A110830
0002300410
ENDCHAR
STARTCHAR uni0939094D0930
ENCODING -1
SWIDTH 505 0
DWIDTH 7 0
BBX 9 10 -1 -1
BITMAP
2BBBBBEB20
000000A000
008BBB8000
00B0000000
007DBCD100
00B009A200
0190587200
0191B07200
00B1000000
004BBB5000
ENDCHAR
STARTCHAR uni0915093C094D0930
ENCODING -1
SWIDTH 725 0
DWIDTH 10 0
BBX 12 10 -1 -1
BITMAP
2BBBBCDBBBB3
005B749BB700
00B004A00920
028004600640
028004600640
01B007600920
006CDB66B700
000384600000
002902300000
000070000000
ENDCHAR
STARTCHAR uni0916093C094D0930
ENCODING -1
SWIDTH 698 0
DWIDTH 10 0
BBX 11 10 -1 -1
BITMAP
2BBCEBBBCDA0
000190003700
000190993700
000486603700
07CB27303700
02A006606700
005701ACA700
000840273700
000051901300
000000080000
ENDCHAR
STARTCHAR uni0917093C094D0930
ENCODING -1
SWIDTH 494 0
DWIDTH 7 0
BBX 9 10 -1 -1
BITMAP
2BCDBCEB10
0028019000
0028019000
0028019000
0057029000
08A11B9000
0001A29000
001A219000
0042004000
0000700000
ENDCHAR
STARTCHAR uni091C093C094D0930
ENCODING -1
SWIDTH 547 0
DWIDTH 8 0
BBX 9 9 -1 0
BITMAP
2BBBBBCD90
0000004600
00BDCBD600
0001904600
0000A04600
0000A04600
0001A1C600
06BB5B7600
0710812300
ENDCHAR
STARTCHAR uni0921093C094D0930
ENCODING -1
SWIDTH 475 0
DWIDTH 7 0
BBX 8 10 -1 -1
BITMAP
2BBBBCD9
00000450
007BBC40
00B00000
007BBB40
000001A0
009000A0
00B44690
002BDA10
08480940
ENDCHAR
STARTCHAR uni0922093C094D0930
ENCODING -1
SWIDTH 485 0
DWIDTH 7 0
BBX 8 10 -1 -1
BITMAP
2BBBBCDB
00000460
004BBC50
00B10000
00904B90
00909091
00B01091
006CBB90
08076A00
00480480
ENDCHAR
STARTCHAR uni0928093C094D0930
ENCODING -1
SWIDTH 473 0
DWIDTH 7 0
BBX 8 10 -1 -1
BITMAP
2BBBBDD9
00000550
00000550
01BBBD50
05600950
02506B50
00057550
00490550
00500220
00071000
ENDCHAR
STARTCHAR uni092B093C094D0930
ENCODING -1
SWIDTH 741 0
DWIDTH 10 0
BBX 12 10 -1 -1
BITMAP
2BEBBCEBBBB6
00A001BAB900
00A001C10650
00A001900370
00B104900370
004BCA900650
00018193B900
001901900000
004100400000
000160000000
ENDCHAR
STARTCHAR uni092F093C094D0930
ENCODING -1
SWIDTH 564 0
DWIDTH 8 0
BBX 10 10 -1 -1
BITMAP
2BBDCBCEB1
0001901900
0002A01900
01CB301900
0190001900
00B1005900
004BBD8900
0000861900
0009500400
0000260000
ENDCHAR
STARTCHAR uni0915094D0930094D
ENCODING -1
SWIDTH 518 0
DWIDTH 7 0
BBX 11 9 -1 0
BITMAP
2BBBBCDBBB10
005B749BB600
00B004A00700
028004600000
028004600000
01B007600000
006CDB600000
000374600000
002902300000
ENDCHAR
STARTCHAR uni0916094D0930094D
ENCODING -1
SWIDTH 469 0
DWIDTH 7 0
BBX 10 9 -1 0
BITMAP
2BBCEBBBB0
0001900000
0001909900
0004866000
07CB273000
02A0066062
005701AC70
0008402700
0000529000
ENDCHAR
STARTCHAR uni0917094D0930094D
ENCODING -1
SWIDTH 264 0
DWIDTH 4 0
BBX 7 9 -1 0
BITMAP
2BCD9000
00280000
00280000
00480120
08B20930
00007500
00048000
002A0000
00410000
ENDCHAR
STARTCHAR uni0918094D0930094D
ENCODING -1
SWIDTH 319 0
DWIDTH 4 0
BBX 8 10 -1 -1
BITMAP
2BECBBA0
00A00000
00A00000
006D9000
00A00000
00A00000
00B10062
004BBD60
00008400
00073000
ENDCHAR
STARTCHAR uni091A094D0930094D
ENCODING -1
SWIDTH 331 0
DWIDTH 5 0
BBX 8 10 -1 -1
BITMAP
2BBBBB80
00000000
00000000
07BDB500
00560000
00820000
00660053
001ABD90
00006700
00054000
ENDCHAR
STARTCHAR uni091C094D0930094D
ENCODING -1
SWIDTH 312 0
DWIDTH 4 0
BBX 8 10 -1 -1
BITMAP
2BBBBB90
00000000
00000000
00BCCB90
00019000
0000A000
0001B031
06BB4390
00003900
00018000
ENDCHAR
STARTCHAR uni091D094D0930094D
ENCODING -1
SWIDTH 441 0
DWIDTH 6 0
BBX 9 9 -1 0
BITMAP
2BBBBEBB70
006BBB0000
00B0000000
00B0000000
006BBDBBB0
01900740A0
01B0064680
01CBBB4B00
019001B100
ENDCHAR
STARTCHAR uni091E094D0930094D
ENCODING -1
SWIDTH 374 0
DWIDTH 5 0
BBX 8 9 -1 0
BITMAP
2BBBBBB6
01BB4000
0000A000
00009100
00009CBC
0000B10A
04BC7094
00000940
00002400
ENDCHAR
STARTCHAR uni091F094D0930094D
ENCODING -1
SWIDTH 485 0
DWIDTH 7 0
BBX 8 13 -1 -4
BITMAP
2BBBBDDB
00000550
00000550
005BBC40
00B00000
01900000
00B00091
007CBB90
00068A00
001B0840
00423150
00005700
00000A20
ENDCHAR
STARTCHAR uni0920094D0930094D
ENCODING -1
SWIDTH 512 0
DWIDTH 7 0
BBX 9 13 -1 -4
BITMAP
2BBBBCDB40
0000037000
0000056000
005BBE5000
00B000B100
0190008200
01A000A100
007CBC8000
00077A0000
002A075000
0031514000
0000380000
0000092000
ENDCHAR
STARTCHAR uni0921094D0930094D
ENCODING -1
SWIDTH 475 0
DWIDTH 7 0
BBX 8 13 -1 -4
BITMAP
2BBBBCD9
00000450
007BBC40
00B00000
007BBB40
000001A0
000000A0
00B44690
003AE910
000B2B00
00740660
00007200
00001A00
ENDCHAR
STARTCHAR uni0922094D0930094D
ENCODING -1
SWIDTH 485 0
DWIDTH 7 0
BBX 8 13 -1 -4
BITMAP
2BBBBCDB
00000460
004BBC50
00B10000
00904B90
00909091
00B01091
006CBB90
00077A00
00390480
00106310
00001A00
00000320
ENDCHAR
STARTCHAR uni0923094D0930094D
ENCODING -1
SWIDTH 457 0
DWIDTH 6 0
BBX 9 9 -1 0
BITMAP
2BEBBDC600
00A0073000
00A0073000
00A0073000
00B10A2080
004BB80740
0000006600
0000048000
0000050000
ENDCHAR
STARTCHAR uni0924094D0930094D
ENCODING -1
SWIDTH 268 0
DWIDTH 4 0
BBX 7 9 -1 0
BITMAP
2BBBBB90
00000000
005BB900
00B00450
02800170
00100840
00019400
003A2000
00610000
ENDCHAR
STARTCHAR uni0925094D0930094D
ENCODING -1
SWIDTH 358 0
DWIDTH 5 0
BBX 7 10 0 -1
BITMAP
04CB2000
0A028000
07019000
00047000
2CBA1000
28000000
0B100250
04BBCB10
00057000
00550000
ENDCHAR
STARTCHAR uni0926094D0930094D
ENCODING -1
SWIDTH 489 0
DWIDTH 7 0
BBX 8 12 -1 -3
BITMAP
2BBBBCEB
00000190
005BBC70
00B00000
01900040
00B001B0
005BCCA0
0000A3A0
00066040
00000A00
00000560
00000050
ENDCHAR
STARTCHAR uni0927094D0930094D
ENCODING -1
SWIDTH 322 0
DWIDTH 5 0
BBX 8 10 -1 -1
BITMAP
2BEC26A0
00A00000
00A00000
006D9000
00A00000
00A00000
00B10052
004BBD80
00006700
00046000
ENDCHAR
STARTCHAR uni0928094D0930094D
ENCODING -1
SWIDTH 247 0
DWIDTH 3 0
BBX 7 9 -1 0
BITMAP
2BBBBB30
00000000
00000000
01BBBC30
05600630
02504700
00048000
00390000
00500000
ENDCHAR
STARTCHAR uni092A094D0930094D
ENCODING -1
SWIDTH 270 0
DWIDTH 4 0
BBX 7 9 -1 0
BITMAP
2BEBB800
00A00000
00A00000
00A00000
00B10350
004BCB00
00018100
00191000
00420000
ENDCHAR
STARTCHAR uni092B094D0930094D
ENCODING -1
SWIDTH 523 0
DWIDTH 7 0
BBX 10 9 -1 0
BITMAP
4BEBBCDBBB
00A003ABC7
00A003A007
00A0037000
00B0067000
005CDA7000
0003737000
0038037000
0050013000
ENDCHAR
STARTCHAR uni092C094D0930094D
ENCODING -1
SWIDTH 267 0
DWIDTH 4 0
BBX 7 10 -1 -1
BITMAP
2BBBBB40
00000000
005B9000
00D50000
02865000
02806420
00B00950
005BDA00
00039000
00180000
ENDCHAR
STARTCHAR uni092D094D0930094D
ENCODING -1
SWIDTH 257 0
DWIDTH 4 0
BBX 7 9 -1 0
BITMAP
2C605B30
00B00000
00A00000
00DBBC40
00A00910
00707500
00048000
001A0000
00420000
ENDCHAR
STARTCHAR uni092E094D0930094D
ENCODING -1
SWIDTH 261 0
DWIDTH 4 0
BBX 7 9 -1 0
BITMAP
2BEBBB30
00A00000
00A00000
00DBBC40
00A00910
00707500
00048000
001A0000
00420000
ENDCHAR
STARTCHAR uni092F094D0930094D
ENCODING -1
SWIDTH 323 0
DWIDTH 5 0
BBX 8 10 -1 -1
BITMAP
2BBDCB50
00019000
0002A000
00CB3000
01900000
00A00000
00B10072
003BBD50
00008400
00073000
ENDCHAR
STARTCHAR uni0935094D0930094D
ENCODING -1
SWIDTH 255 0
DWIDTH 4 0
BBX 7 10 -1 -1
BITMAP
2BBBB600
00000000
005B8000
00B00000
02900000
02900000
00B00520
005BD900
00048000
00270000
ENDCHAR
STARTCHAR uni0938094D0930094D
ENCODING -1
SWIDTH 347 0
DWIDTH 5 0
BBX 8 9 -1 0
BITMAP
2BBDDBB0
00064000
00064000
00082000
07CDBBC6
02A00191
00751A20
000A3200
00023000
ENDCHAR
STARTCHAR uni0915093C094D0930094D
ENCODING -1
SWIDTH 518 0
DWIDTH 7 0
BBX 11 10 -1 -1
BITMAP
2BBBBCDBBB10
005B749BB600
00B004A00700
028004600000
028004600000
01B007600000
006CDB600000
000384600000
002902300000
000170000000
ENDCHAR
STARTCHAR uni0916093C094D0930094D
ENCODING -1
SWIDTH 466 0
DWIDTH 7 0
BBX 10 10 -1 -1
BITMAP
2BBCEBBBB0
0001900000
0001909900
0004866000
07CB273000
02A0066062
005701AC80
0008402800
0000519000
0000000800
ENDCHAR
STARTCHAR uni0917093C094D0930094D
ENCODING -1
SWIDTH 264 0
DWIDTH 4 0
BBX 7 10 -1 -1
BITMAP
2BCD9000
00280000
00280000
00480120
08B20930
00007500
00048000
002A0000
00410000
00008000
ENDCHAR
STARTCHAR uni091C093C094D0930094D
ENCODING -1
SWIDTH 320 0
DWIDTH 4 0
BBX 8 10 -1 -1
BITMAP
2BBBBB90
00000000
00000000
00BCCB90
00019000
0000A000
0001B091
06BB5A30
0000A300
07101000
ENDCHAR
STARTCHAR uni0928093C094D0930094D
ENCODING -1
SWIDTH 247 0
DWIDTH 3 0
BBX 7 10 -1 -1
BITMAP
2BBBBB30
00000000
00000000
01BBBC30
05600630
02504700
00048000
00390000
00500000
00053000
ENDCHAR
STARTCHAR uni092B093C094D0930094D
ENCODING -1
SWIDTH 523 0
DWIDTH 7 0
BBX 10 10 -1 -1
BITMAP
4BEBBCDBBB
00A003ABC7
00A003A007
00A0037000
00B0067000
005CDA7000
0003737000
0038037000
0050013000
0005300000
ENDCHAR
STARTCHAR uni092F093C094D0930094D
ENCODING -1
SWIDTH 323 0
DWIDTH 5 0
BBX 8 11 -1 -2
BITMAP
2BBDCB50
00019000
0002A000
00CB3000
01900000
00A00000
00B10072
003BBE60
00008600
00095000
00001600
ENDCHAR
STARTCHAR uni0915094D0915
ENCODING -1
SWIDTH 1255 0
DWIDTH 18 0
BBX 19 9 -1 0
BITMAP
2BBBBCDBBBBBBEBBBB80
005B749BB7AB1A9BA100
00B004A00B300C203900
028004600A000A000A00
028004600A000A000A00
01B0076009301B003900
005BB96002AB9A1BA200
0000046000000A000000
00000230000004000000
ENDCHAR
STARTCHAR uni0915094D0916
ENCODING -1
SWIDTH 1256 0
DWIDTH 18 0
BBX 19 9 -1 0
BITMAP
2BBBBCDBBBBCDBBBDD80
005B749BB20460005400
00B004A01A0462B65400
02800460090659305400
028004600ACA1A005400
01B00760039004209400
005BB960007500016400
00000460000A20005400
00000230000140002200
ENDCHAR
STARTCHAR uni0915094D091A
ENCODING -1
SWIDTH 1086 0
DWIDTH 15 0
BBX 17 9 -1 0
BITMAP
2BBBBCDBBBBBBBEB40
005B749BA10000A000
00B004A04CCC90A000
0280046001A000A000
02800460037000A000
01B0076001A001C000
005BB960006BB9B000
00000460000000A000
000002300000005000
ENDCHAR
STARTCHAR uni0915094D091C
ENCODING -1
SWIDTH 1071 0
DWIDTH 15 0
BBX 17 9 -1 0
BITMAP
2BBBBCDBBBBBBBEB20
005B7460000000A000
00B0049BA3CDBBB000
02800490000910A000
02800460000730A000
01B00760000730A000
005BB960000A20A000
000004602BB700A000
000002300000005000
ENDCHAR
STARTCHAR uni0915094D091F
ENCODING -1
SWIDTH 984 0
DWIDTH 14 0
BBX 15 9 -1 0
BITMAP
2BBBBCDBBBBBDCA0
005B749BC6006400
00B004A00CCBC300
028004600B000000
0280046019000100
01B0076019000910
005BB9600B000B00
0000046006CBC600
0000023000000000
ENDCHAR
STARTCHAR uni0915094D0923
ENCODING -1
SWIDTH 1183 0
DWIDTH 17 0
BBX 18 9 -1 0
BITMAP
2BBBBCDBBEBBDCBDD8
005B74600A00740640
00B0049BBC00740640
028004900A00740640
028004600A10930640
01B0076003BB800640
005BB9600000000640
000004600000000640
000002300000000320
ENDCHAR
STARTCHAR uni0915094D0924
ENCODING -1
SWIDTH 761 0
DWIDTH 11 0
BBX 12 9 -1 0
BITMAP
2BBBBBEBBBB9
000000A00000
02BDBBE8BA20
004700B30390
006400A000A0
006400A000A0
004700A00390
0009B1A0AA20
000000500000
ENDCHAR
STARTCHAR uni0915094D0925
ENCODING -1
SWIDTH 1118 0
DWIDTH 16 0
BBX 17 9 -1 0
BITMAP
2BBBBCDB53BB704D90
005B74600310A05500
00B004600000B05500
0280049BBDBB505500
028004900A00005500
01B007600A20009500
005BB96002ABBB8500
000004600000005500
000002300000002200
ENDCHAR
STARTCHAR uni0915094D0926
ENCODING -1
SWIDTH 1009 0
DWIDTH 14 0
BBX 16 9 -1 0
BITMAP
2BBBBCDBBBBBBEB3
005B749BC5000A00
00B004A00CDBBB00
0280046009200000
028004600A000400
01B007600A200A10
005BB86003BBBB10
0000046000000810
0000023000000400
ENDCHAR
STARTCHAR uni0915094D092A
ENCODING -1
SWIDTH 1007 0
DWIDTH 14 0
BBX 16 9 -1 0
BITMAP
2BBBBCDBBEBBBEB3
005B74600A000A00
00B0049BBC000A00
028004900A000A00
028004600A102C00
01B0076003BB9A00
005BB96000000A00
0000046000000A00
0000023000000500
ENDCHAR
STARTCHAR uni0915094D092B
ENCODING -1
SWIDTH 1242 0
DWIDTH 17 0
BBX 19 9 -1 0
BITMAP
2BBBBCDBBEBBBEBBBB60
005B74600A000BAB9000
00B0049BBC000D106600
028004900A000A002800
028004600A103A002800
01B0076003BB8A006600
005BB96000000A3B9000
0000046000000A000000
00000230000004000000
ENDCHAR
STARTCHAR uni0915094D092E
ENCODING -1
SWIDTH 994 0
DWIDTH 14 0
BBX 16 9 -1 0
BITMAP
2BBBBCDBBEBBCEB1
005B74600A001900
00B004ABBC001900
028004900CBBC900
028004600A001900
01B0076005001900
005BB96000001900
0000046000001900
0000023000000400
ENDCHAR
STARTCHAR uni0915094D092F
ENCODING -1
SWIDTH 1076 0
DWIDTH 15 0
BBX 17 9 -1 0
BITMAP
2BBBBCDBBBCDBBEB20
005B7460000A00A000
00B0049BBDB600A000
028004A00A0000A000
028004600A0000A000
01B00760093003C000
005BB96001ABB8A000
00000460000000A000
000002300000005000
ENDCHAR
STARTCHAR uni0915094D0932
ENCODING -1
SWIDTH 1178 0
DWIDTH 16 0
BBX 18 9 -1 0
BITMAP
2BBBBCDBBBBBBBBDC7
005B749BB500000730
00B004A00CCB4ABA30
028004600B10C20A30
028004600A00A00730
01B007600A00300730
005BB9600B00000730
0000046006CA000730
000002300000000310
ENDCHAR
STARTCHAR uni0915094D0935
ENCODING -1
SWIDTH 1013 0
DWIDTH 14 0
BBX 16 9 -1 0
BITMAP
2BBBBCDBBBBBBEB4
005B749BB6AB2A00
00B004A00B300A00
028004600A000A00
028004600A000A00
01B0076009301C00
005BB96002AB9A00
0000046000000A00
0000023000000400
ENDCHAR
STARTCHAR uni0915094D0936
ENCODING -1
SWIDTH 1194 0
DWIDTH 17 0
BBX 18 9 -1 0
BITMAP
2BBBBCDBB16CC503DA
005B746000A00A0460
00B0049BB6100A0460
028004900A101A0460
0280046007CBB30460
01B0076001A0000460
005BB9600039000460
000004600006500460
000002300000500230
ENDCHAR
STARTCHAR uni0915094D0938
ENCODING -1
SWIDTH 1143 0
DWIDTH 16 0
BBX 18 9 -1 0
BITMAP
2BBBBCDBBBBDCBBEB2
005B749BB307400A00
00B004A01A07300A00
028004600909200A00
0280046009CDBBBB00
01B007600290000A00
005BB9600074000A00
00000460000B100A00
000002300003300500
ENDCHAR
STARTCHAR uni0916094D0916
ENCODING -1
SWIDTH 1223 0
DWIDTH 17 0
BBX 19 9 -1 0
BITMAP
2BBCEBBBBBBEBBBBEB30
00019000000A0000A000
000191A8000A06B1A000
00048650000B1A00A000
07CB28201DB52800A000
02A006502D301A01C000
005701ABA2A106B9A000
0008400000390000A000
00005000000410005000
ENDCHAR
STARTCHAR uni0916094D0924
ENCODING -1
SWIDTH 984 0
DWIDTH 14 0
BBX 15 9 -1 0
BITMAP
2BBCEBBBBBBBCDA0
0001900000003800
000191A806BBC800
0004865019003800
07CB282046003800
02A0065046003800
005701ABC7003800
000840002C503800
0000500003711400
ENDCHAR
STARTCHAR uni0916094D092E
ENCODING -1
SWIDTH 965 0
DWIDTH 14 0
BBX 15 9 -1 0
BITMAP
2BBCEBBBCDBBDC70
0001900046007300
000191A846007300
000486504DBBD300
07CB282046007300
02A0065054007300
0047019B90007300
0008400000007300
0000500000003100
ENDCHAR
STARTCHAR uni0916094D092F
ENCODING -1
SWIDTH 1047 0
DWIDTH 15 0
BBX 16 9 -1 0
BITMAP
2BBCEBBBBBEBBCD9
0001900000460460
000191A800560460
000486503CA10460
07CB282046000460
02A006506A000960
005701AB77BBB960
0008400000000460
0000500000000230
ENDCHAR
STARTCHAR uni0916094D0935
ENCODING -1
SWIDTH 975 0
DWIDTH 14 0
BBX 15 9 -1 0
BITMAP
2BBCEBBBBBBBDD90
0001900006B75500
000191A82A005500
0004875047005500
07CB282047005500
02A006506A008500
005701AB78BB9500
0008400000005500
0000500000002200
ENDCHAR
STARTCHAR uni0916094D0936
ENCODING -1
SWIDTH 1123 0
DWIDTH 16 0
BBX 17 9 -1 0
BITMAP
2BBCEBBB16CC503DA0
000190000A00A04700
000191A80500A04700
000486500001A04700
07CB28209BBB304700
02A006508700004700
004701AB7930004700
0008400001B1004700
000050000023002300
ENDCHAR
STARTCHAR uni0917094D0917
ENCODING -1
SWIDTH 744 0
DWIDTH 10 0
BBX 12 9 -1 0
BITMAP
2BCDBBECBDC6
002800A10820
002800A10820
002800A10820
005700B00820
08A12B500820
000000000820
000000000820
000000000410
ENDCHAR
STARTCHAR uni0917094D0918
ENCODING -1
SWIDTH 823 0
DWIDTH 12 0
BBX 13 9 -1 0
BITMAP
2BCDBBEBBBDC80
00280370007400
00280370007400
002800AC607400
00570280007400
08A10460007400
0000039000B400
0000008BBB9400
00000000003200
ENDCHAR
STARTCHAR uni0917094D091C
ENCODING -1
SWIDTH 801 0
DWIDTH 11 0
BBX 13 9 -1 0
BITMAP
2BCDBBBBBBEB40
0028000000A000
002805CDBBD000
0028000740A000
0057000370A000
08A1000370A000
0000000750A000
00000BB900A000
00000000005000
ENDCHAR
STARTCHAR uni0917094D0923
ENCODING -1
SWIDTH 945 0
DWIDTH 13 0
BBX 15 9 -1 0
BITMAP
2BCDBCDBBEBBEB40
002803700A00A000
002803700A00A000
002803700A00A000
005702A01B00A000
08A1007BB400A000
000000000000A000
000000000000A000
0000000000005000
ENDCHAR
STARTCHAR uni0917094D0926
ENCODING -1
SWIDTH 748 0
DWIDTH 10 0
BBX 12 9 -1 0
BITMAP
2BCDBBBBBDC7
002800000730
0028009BBC20
002805700000
005706400130
08A105600560
0000009BBA60
000000000360
000000000130
ENDCHAR
STARTCHAR uni0917094D0927
ENCODING -1
SWIDTH 823 0
DWIDTH 12 0
BBX 13 9 -1 0
BITMAP
2BCDBBEA09DC80
00280370006400
00280380006400
002800BC606400
00570280006400
08A10460006400
0000039000A400
0000008BBB9400
00000000003200
ENDCHAR
STARTCHAR uni0917094D092C
ENCODING -1
SWIDTH 755 0
DWIDTH 11 0
BBX 12 9 -1 0
BITMAP
2BCDBBBBBDD8
0028008B6640
002804D10640
002806680640
005706425640
08A104702940
0000008BA940
000000000640
000000000320
ENDCHAR
STARTCHAR uni0917094D092D
ENCODING -1
SWIDTH 755 0
DWIDTH 11 0
BBX 12 9 -1 0
BITMAP
2BCDBC309DC8
002804700640
002803700640
002803DBBD40
005703700640
08A103700640
000001300640
000000000640
000000000320
ENDCHAR
STARTCHAR uni0917094D092E
ENCODING -1
SWIDTH 754 0
DWIDTH 11 0
BBX 12 9 -1 0
BITMAP
2BCDBCDBBDC8
002803700640
002803700640
002803DBBD40
005703700640
08A103700640
000001300640
000000000640
000000000320
ENDCHAR
STARTCHAR uni0917094D092F
ENCODING -1
SWIDTH 828 0
DWIDTH 12 0
BBX 13 9 -1 0
BITMAP
2BCDBBBEBBDD80
00280005506400
00280006506400
002805CA106400
00570550006400
08A1038000A400
0000007BBB9400
00000000006400
00000000003200
ENDCHAR
STARTCHAR uni0917094D0932
ENCODING -1
SWIDTH 924 0
DWIDTH 13 0
BBX 15 9 -1 0
BITMAP
2BCDBBBBBBBBEB10
002800000000A000
002801AB76B8A000
002806507903A000
005708204601A000
08A108204600A000
000007400000A000
000001BB3000A000
0000000000005000
ENDCHAR
STARTCHAR uni0917094D0935
ENCODING -1
SWIDTH 747 0
DWIDTH 10 0
BBX 12 9 -1 0
BITMAP
2BCDBBBBBDC7
0028008B5730
002804800730
002806400730
005706400730
08A104700A30
0000008BBA30
000000000730
000000000310
ENDCHAR
STARTCHAR uni0917094D0938
ENCODING -1
SWIDTH 839 0
DWIDTH 12 0
BBX 13 9 -1 0
BITMAP
2BCDBBBEBBCDA0
0028000A003700
0028000A003700
0028000A003700
00570ACCBBC700
08A10660003700
000000A1003700
00000029003700
00000005101300
ENDCHAR
STARTCHAR uni0918094D092E
ENCODING -1
SWIDTH 818 0
DWIDTH 11 0
BBX 13 9 -1 0
BITMAP
2BECBBDDBBDC70
00A00046008300
00800046008300
008D904DBBD300
00C00046008300
00A00045008300
00A10073008300
004BBB80008300
00000000004100
ENDCHAR
STARTCHAR uni0918094D092F
ENCODING -1
SWIDTH 867 0
DWIDTH 12 0
BBX 14 9 -1 0
BITMAP
2BECBBBCDBBEB3
00A00000A00A00
00B00000B00A00
007D90AB500A00
009000A0000A00
00A00092002C00
00B100BDBB8A00
004BBC60000A00
00000000000500
ENDCHAR
STARTCHAR uni091A094D091A
ENCODING -1
SWIDTH 868 0
DWIDTH 12 0
BBX 14 9 -1 0
BITMAP
2BBBBBBBBBBEB3
00000000000A00
07BDB0BDC80A00
00560029000A00
00820046000A00
00660059001C00
0019BB86BB9B00
00000000000A00
00000000000500
ENDCHAR
STARTCHAR uni091A094D091B
ENCODING -1
SWIDTH 922 0
DWIDTH 13 0
BBX 15 8 -1 1
BITMAP
2BBBBBBECBBCDB10
0000002900028000
07BDB529006C7000
00560009C400A000
0082001A0000A000
006600580000A000
0019BB9A0000A000
00000008BBBC4000
ENDCHAR
STARTCHAR uni091A094D092E
ENCODING -1
SWIDTH 830 0
DWIDTH 12 0
BBX 13 9 -1 0
BITMAP
2BBBBBCDBBDD90
00000028005500
07BDC528005500
0056002DBBD500
00820028005500
00660056005500
0009BB90005500
00000000005500
00000000002200
ENDCHAR
STARTCHAR uni091A094D092F
ENCODING -1
SWIDTH 904 0
DWIDTH 13 0
BBX 14 9 -1 0
BITMAP
2BBBBBBBEBBCD9
00000000460460
07BDB500560460
0056004CA10460
00820046000560
00660059000960
0019BB85BBB860
00000000000460
00000000000230
ENDCHAR
STARTCHAR uni091B094D092F
ENCODING -1
SWIDTH 1068 0
DWIDTH 15 0
BBX 17 9 -1 0
BITMAP
2BDCBBBBBBBBBBEB10
00A004CDBBB700A000
00B0000A100920A000
006D7008200920A000
00B1000827B800A000
00A00008275005A000
00B0000B019BB7A000
005CBBC6000000A000
000000000000005000
ENDCHAR
STARTCHAR uni091B094D0935
ENCODING -1
SWIDTH 581 0
DWIDTH 8 0
BBX 10 11 -1 -2
BITMAP
2BDCBBBEB3
00A0000A00
00B003BA00
006D700A00
00B1000820
00A0000810
00B1000A00
004EBBBA00
0074000A00
0074003800
001ABBA100
ENDCHAR
STARTCHAR uni091C094D0915
ENCODING -1
SWIDTH 1054 0
DWIDTH 15 0
BBX 16 9 -1 0
BITMAP
2BBBBBBBBBEBBBBA
00000008B3A8BB30
00BDCBD600A401A0
0001908200A000A0
0000A08200A000A0
0000A06600C001B0
0001A019BAB0AB30
06BB300000A00000
0000000000400000
ENDCHAR
STARTCHAR uni091C094D091C
ENCODING -1
SWIDTH 903 0
DWIDTH 13 0
BBX 14 9 -1 0
BITMAP
2BBBBBBBBBBDD9
00000000000550
00BDCB47DCBD50
00019000190550
0000A0000A0550
0000A0000A0550
0001B0001A0550
06BB308BB30550
00000000000220
ENDCHAR
STARTCHAR uni091C094D091D
ENCODING -1
SWIDTH 990 0
DWIDTH 14 0
BBX 15 9 -1 0
BITMAP
2BBBBBBBBCDBCEB0
0000001ABC601900
00BDCBD600001900
0001905600001900
0000A01ABCCBC900
0000A00000A01900
0001A07300A01900
06BB307CBC701900
0000007200001400
ENDCHAR
STARTCHAR uni091C094D091F
ENCODING -1
SWIDTH 815 0
DWIDTH 11 0
BBX 13 8 -1 1
BITMAP
2BBBBBBBBBEB60
0000000000A000
01BDCB98BBB000
00029067000000
0000A074000000
0000A074000800
0002A056002900
07BB300ABBB200
ENDCHAR
STARTCHAR uni091C094D0921
ENCODING -1
SWIDTH 797 0
DWIDTH 11 0
BBX 13 9 -1 0
BITMAP
2BBBBBBBBBEB30
0000000000A000
01BDCBCDBBA000
00029065000000
0000A02ABB9000
0000A000008300
00029031006400
0699206744B200
00000006774000
ENDCHAR
STARTCHAR uni091C094D0924
ENCODING -1
SWIDTH 830 0
DWIDTH 12 0
BBX 13 9 -1 0
BITMAP
2BBBBBBBBBDD80
00000000005500
01BDCBB9BBD500
00029057005500
0000A064005500
0000A064005500
0002A064005500
0699202B405500
00000003702200
ENDCHAR
STARTCHAR uni091C094D0926
ENCODING -1
SWIDTH 817 0
DWIDTH 11 0
BBX 13 9 -1 0
BITMAP
2BBBBBBBBBDC70
00000000008300
00BDCBCDCBC200
00019066000000
0000A073002300
0000A056006600
0001A009BBC600
06BB3000004600
00000000002300
ENDCHAR
STARTCHAR uni091C094D092C
ENCODING -1
SWIDTH 820 0
DWIDTH 11 0
BBX 13 9 -1 0
BITMAP
2BBBBBBBBBDC70
00000008B57300
00BDCBDC107300
00019083917300
0000A082198300
0000A06601E300
0001A019BBA300
06BB3000007300
00000000003100
ENDCHAR
STARTCHAR uni091C094D092E
ENCODING -1
SWIDTH 813 0
DWIDTH 11 0
BBX 13 9 -1 0
BITMAP
2BBBBBDCBBEC60
00000064009100
00BDCBD4009100
0001906DBBE100
0000A064009100
0000A054009100
0001A000009100
06BB3000009100
00000000004100
ENDCHAR
STARTCHAR uni091C094D092F
ENCODING -1
SWIDTH 893 0
DWIDTH 13 0
BBX 14 9 -1 0
BITMAP
2BBBBBBCEBBDC8
00000000630740
01BDCBA0740740
0001907C900740
0000A064000740
0000A047000B40
0002A007BBB940
07BB3000000740
00000000000320
ENDCHAR
STARTCHAR uni091C094D0935
ENCODING -1
SWIDTH 813 0
DWIDTH 11 0
BBX 13 9 -1 0
BITMAP
2BBBBBBBBBDC60
00000008B48100
00BDCBC6008100
00019083008100
0000A083008100
0000A06600B100
0001A009BAA100
06BB3000008100
00000000004100
ENDCHAR
STARTCHAR uni091D094D092E
ENCODING -1
SWIDTH 936 0
DWIDTH 13 0
BBX 15 9 -1 0
BITMAP
2BBBBEBBEBBBEB30
006BBB00A000A000
00B00000A000A000
00B00000ACBBC000
006BBDBBE000A000
019007406000A000
01B006400000A000
01CBBB100000A000
0190000000005000
ENDCHAR
STARTCHAR uni091D094D092F
ENCODING -1
SWIDTH 1000 0
DWIDTH 14 0
BBX 16 9 -1 0
BITMAP
2BBBBEBBBDDBBEB2
006BBB0000A00A00
00B0000001B00A00
00B00000CB400A00
006BBDBBB0000A00
01900740B1004B00
01B006403BBB7A00
01CBBB1000000A00
0190000000000500
ENDCHAR
STARTCHAR uni091E094D091B
ENCODING -1
SWIDTH 913 0
DWIDTH 13 0
BBX 14 8 -1 1
BITMAP
2BBBBBBEBBBCDB
02BB4037000460
0000A047008D50
0000901EC301A0
00009CC80000A0
0000B0460000A0
04BC60480001A0
0000000ABBBB30
ENDCHAR
STARTCHAR uni091E094D091C
ENCODING -1
SWIDTH 932 0
DWIDTH 13 0
BBX 15 9 -1 0
BITMAP
2BBBBBBBBBBBEB20
000000000000A000
01BB5006CDBBB000
0000B0000920A000
00008C900640A000
0000B0000640A000
04BB50000920A000
0000002BB800A000
0000000000005000
ENDCHAR
STARTCHAR uni091E094D0936
ENCODING -1
SWIDTH 975 0
DWIDTH 14 0
BBX 15 9 -1 0
BITMAP
2BBBBB08BC404D90
01BB500900A05600
0000A00000A05600
0000910002A05600
00009CCCBB205600
0000B10A10005600
04BC700290005600
0000000066005600
0000000005002300
ENDCHAR
STARTCHAR uni091F094D091F
ENCODING -1
SWIDTH 494 0
DWIDTH 7 0
BBX 9 13 -1 -4
BITMAP
2BBBBDDB10
0000064000
005BBC3000
00B0000000
0280004000
00B000B000
005BBD6000
0003484000
0099872000
0190000000
0280006000
00B000B000
005BBB4000
ENDCHAR
STARTCHAR uni091F094D0920
ENCODING -1
SWIDTH 495 0
DWIDTH 7 0
BBX 9 13 -1 -4
BITMAP
2BBBBDDB10
0000064000
005BBC3000
00B0000000
0280004000
00B000B000
005BBD8000
0003484000
0099898000
00A0009100
0190008200
00B100B000
004BBB5000
ENDCHAR
STARTCHAR uni091F094D092F
ENCODING -1
SWIDTH 990 0
DWIDTH 14 0
BBX 16 9 -1 0
BITMAP
2BBBBDDBBBBBCEB1
0000055000001900
004BBCCBBB701900
00B0000000A11900
0190000000A11900
019000408B701900
00B000A173005900
006CBB701BBB8900
0000000000000400
ENDCHAR
STARTCHAR uni091F094D0935
ENCODING -1
SWIDTH 501 0
DWIDTH 7 0
BBX 9 11 -1 -2
BITMAP
2BBBBCDB20
0000046000
004BBC5000
00B1000000
0190002100
0190007300
00B100B100
006DBBC000
00A000A000
00B001A000
004BBB3000
ENDCHAR
STARTCHAR uni0920094D092F
ENCODING -1
SWIDTH 998 0
DWIDTH 14 0
BBX 16 9 -1 0
BITMAP
2BBBBCDBBBBBBEB2
0000046000000A00
004BBD49BB800A00
00B000B500820A00
0190008200920A00
019000827B800A00
00B000B164003B00
006CBC701ABB8A00
0000000000000500
ENDCHAR
STARTCHAR uni0921094D0921
ENCODING -1
SWIDTH 493 0
DWIDTH 7 0
BBX 9 14 -1 -5
BITMAP
2BBBBCDB10
0000046000
007BBC5000
00B0000000
007BBB5000
003000B000
00A000B000
009DBB4000
00A0000000
00B0000000
006BBB5000
003000B000
00A000A000
006BBB4000
ENDCHAR
STARTCHAR uni0921094D0922
ENCODING -1
SWIDTH 493 0
DWIDTH 7 0
BBX 9 13 -1 -4
BITMAP
2BBBBCDB10
0000046000
0000046000
007BBC5000
00B0000000
007BBC6000
003000B000
0072414000
008149B000
0090908100
00A0608100
00B000A000
005CBB7000
ENDCHAR
STARTCHAR uni0921094D092F
ENCODING -1
SWIDTH 973 0
DWIDTH 14 0
BBX 15 9 -1 0
BITMAP
2BBBBCDBBBBBDD90
0000045000005500
007BBCCBBB605500
00B0000000A05500
007BBB40BB505500
000001A0A0005500
004000A09300A500
00B4469018997500
0037861000002200
ENDCHAR
STARTCHAR uni0921094D0935
ENCODING -1
SWIDTH 493 0
DWIDTH 7 0
BBX 9 11 -1 -2
BITMAP
2BBBBCDB10
0000046000
007BBC5000
00B0000000
007BBB5000
003000B000
00A000B000
008DBBC000
00A100A000
00A101A000
004BBB3000
ENDCHAR
STARTCHAR uni0922094D092F
ENCODING -1
SWIDTH 981 0
DWIDTH 14 0
BBX 15 9 -1 0
BITMAP
2BBBBCDBBBBBCDA0
0000046000003700
004BBCCBBB503700
00B1000000A03700
00903B9000A03700
00909191AB503700
00B04091A1007700
006CBB803BBB9700
0000000000001300
ENDCHAR
STARTCHAR uni0923094D091F
ENCODING -1
SWIDTH 908 0
DWIDTH 13 0
BBX 14 8 -1 1
BITMAP
2BEBBDCBBBBDCA
00A00730000740
00A007305BBC30
00A00731B00000
00B10A22800000
004BB802800090
00000001A000B0
000000007CBC50
ENDCHAR
STARTCHAR uni0923094D0920
ENCODING -1
SWIDTH 936 0
DWIDTH 13 0
BBX 15 8 -1 1
BITMAP
2BEBBDCBBBBCDB30
00A0073000056000
00A007305BBE4000
00A00731B001B000
00B10A2280009100
004BB80280009100
00000001A000B000
000000007CBC6000
ENDCHAR
STARTCHAR uni0923094D0921
ENCODING -1
SWIDTH 892 0
DWIDTH 12 0
BBX 14 9 -1 0
BITMAP
2BEBBDCBBBBDC7
00A00730000730
00A007309BBC20
00A00731A00000
00B10A209BBB20
004BB800000380
00000002400190
00000001B44870
00000000377600
ENDCHAR
STARTCHAR uni0923094D0922
ENCODING -1
SWIDTH 908 0
DWIDTH 13 0
BBX 14 8 -1 1
BITMAP
2BEBBDCBBBBDDA
00A00730000550
00A007305BBC40
00A00730B00000
00B10A22805B80
004BB80280A0A0
00000000A010A0
000000007CBB70
ENDCHAR
STARTCHAR uni0923094D0923
ENCODING -1
SWIDTH 1127 0
DWIDTH 16 0
BBX 17 9 -1 0
BITMAP
2BEBBDCBECBCDBCDB0
00A007309104603800
00A007309104603800
00A007309104603800
00B10A208306503800
004BB8002BBA103800
000000000000003800
000000000000003800
000000000000001400
ENDCHAR
STARTCHAR uni0923094D092E
ENCODING -1
SWIDTH 932 0
DWIDTH 13 0
BBX 15 9 -1 0
BITMAP
2BEBBDCBEBBBEB20
00A00730A000A000
00A00730A000A000
00A00730BBBBB000
00B10A20A000A000
004BB8008000A000
000000000000A000
000000000000A000
0000000000005000
ENDCHAR
STARTCHAR uni0923094D092F
ENCODING -1
SWIDTH 998 0
DWIDTH 14 0
BBX 16 9 -1 0
BITMAP
2BEBBDCBBDDBBEB1
00A0073000900A00
00A0073001A00A00
00A00730CB400A00
00B10A20A0000A00
004BB800B1004A00
000000003BBB7A00
0000000000000A00
0000000000000500
ENDCHAR
STARTCHAR uni0923094D0935
ENCODING -1
SWIDTH 923 0
DWIDTH 13 0
BBX 15 9 -1 0
BITMAP
2BEBBDCBBBBBEB10
00A007303BA0A000
00A00730B100A000
00A00730A000A000
00B10A20A000A000
004BB700B103A000
000000004BB8A000
000000000000A000
0000000000004000
ENDCHAR
STARTCHAR uni0924094D0915
ENCODING -1
SWIDTH 992 0
DWIDTH 14 0
BBX 16 9 -1 0
BITMAP
2BBBBBBBBDCBBBB1
0000007B588BB400
005BBC8008601B00
00B0064008200A00
0190064008200A00
019004800A201B00
0190009BAA29B400
00B5100008200000
0017200004100000
ENDCHAR
STARTCHAR uni0924094D0916
ENCODING -1
SWIDTH 1014 0
DWIDTH 14 0
BBX 16 9 -1 0
BITMAP
2BBBBBBBECBBBEB4
00000000A0000A00
005BBA10A05B2A00
00B00460B0B00A00
029001EB61900A00
0290009300B01C00
0190000A105B9A00
00B5100290000A00
0017200041000500
ENDCHAR
STARTCHAR uni0924094D0924
ENCODING -1
SWIDTH 542 0
DWIDTH 8 0
BBX 9 9 -1 0
BITMAP
2BBBBBDD80
0000006400
06BDBBD400
0047006400
0064006400
0074006400
0064006400
003B406400
0003703200
ENDCHAR
STARTCHAR uni0924094D0925
ENCODING -1
SWIDTH 869 0
DWIDTH 12 0
BBX 14 9 -1 0
BITMAP
2BBBB07BB20BB3
000000A0470A00
00000000560A00
006BBCCBA10A00
00B00460000A00
029002A0002D00
0190006BBB9A00
00C51000000A00
00272000000500
ENDCHAR
STARTCHAR uni0924094D092A
ENCODING -1
SWIDTH 757 0
DWIDTH 11 0
BBX 12 9 -1 0
BITMAP
2BBBBDDBBDD8
000005500550
006BBC500550
00B005500550
029003800850
0280007BB950
019000000550
00B510000550
001720000220
ENDCHAR
STARTCHAR uni0924094D092B
ENCODING -1
SWIDTH 992 0
DWIDTH 14 0
BBX 15 9 -1 0
BITMAP
2BBBBCDBBDCBBBB0
00000550088BB400
006BBC5008601B00
00B0055008200A00
029003800B200A00
0280007BBA201B00
019000000829B400
00B5100008200000
0017200004100000
ENDCHAR
STARTCHAR uni0924094D092E
ENCODING -1
SWIDTH 764 0
DWIDTH 11 0
BBX 12 9 -1 0
BITMAP
2BBBBCEBBCD9
000001900460
005BBC900460
00B001EBBD60
019001900460
019001600460
01A000000460
00B510000460
001720000230
ENDCHAR
STARTCHAR uni0924094D092F
ENCODING -1
SWIDTH 830 0
DWIDTH 12 0
BBX 13 9 -1 0
BITMAP
2BBBBBBEBBDD90
00000004505500
00000005605500
006BBCCA105500
00B00550005500
02900390009500
0190007BBB8500
00C51000005500
00272000002200
ENDCHAR
STARTCHAR uni0924094D0932
ENCODING -1
SWIDTH 957 0
DWIDTH 13 0
BBX 15 9 -1 0
BITMAP
2BBBBBBBBBBBDC60
0000000000008200
006BB94BB3BBB200
00B003C01D10B200
029001900A009200
0290019005008200
019000B000008200
00B5107C80008200
0017200000004100
ENDCHAR
STARTCHAR uni0924094D0935
ENCODING -1
SWIDTH 751 0
DWIDTH 11 0
BBX 12 9 -1 0
BITMAP
2BBBBBBBBDC7
0000007B5730
005BBC800730
00B006500730
019006500730
019004800930
0190008BBA30
00B510000730
001720000310
ENDCHAR
STARTCHAR uni0924094D0938
ENCODING -1
SWIDTH 876 0
DWIDTH 12 0
BBX 14 9 -1 0
BITMAP
2BBBBBBCDBBEB5
00000003800A00
005BB803700A00
00B00735500A00
029005DDBBBE00
029000A1000A00
01900038000A00
00B51009300A00
00172001500500
ENDCHAR
STARTCHAR uni0925094D092F
ENCODING -1
SWIDTH 931 0
DWIDTH 13 0
BBX 14 9 0 0
BITMAP
05CC43BDDBBEB2
0A019000900A00
03038001A00A00
2CBB20BB400A00
280000A0000A00
0B1002C1003B00
04BBBA3ABB8A00
00000000000A00
00000000000500
ENDCHAR
STARTCHAR uni0925094D0935
ENCODING -1
SWIDTH 862 0
DWIDTH 12 0
BBX 13 9 0 0
BITMAP
07BC43BBBBEB20
0501902BB1A000
000380A200A000
2CBB20A000A000
280000A000A000
0B1002D202B000
04BBBA4BB9A000
0000000000A000
00000000005000
ENDCHAR
STARTCHAR uni0926094D0917
ENCODING -1
SWIDTH 489 0
DWIDTH 7 0
BBX 8 10 -1 -1
BITMAP
2BBBBCEB
004BBB80
00B10000
01A00000
01A00040
00B101B0
004CCAA0
000820A0
000A1040
01B70000
ENDCHAR
STARTCHAR uni0926094D0918
ENCODING -1
SWIDTH 686 0
DWIDTH 10 0
BBX 11 9 -1 0
BITMAP
2BBBBBBBDD80
000000005500
000007BBC400
01ABC8000000
047046001400
00CC48003800
037008CB9800
047007301800
009BB9000400
ENDCHAR
STARTCHAR uni0926094D0926
ENCODING -1
SWIDTH 506 0
DWIDTH 7 0
BBX 9 9 -1 0
BITMAP
2BBBBBEB20
005BBB9000
00B0000000
00A0000000
006DB40000
00A0008100
00B000B100
007CBBC100
0000008100
ENDCHAR
STARTCHAR uni0926094D0927
ENCODING -1
SWIDTH 686 0
DWIDTH 10 0
BBX 11 9 -1 0
BITMAP
2BBBBBBBDD80
000000005500
000008BBC400
01A938000000
047046001400
00CC48003800
037008CB9800
047007301800
009BB9000400
ENDCHAR
STARTCHAR uni0926094D092C
ENCODING -1
SWIDTH 481 0
DWIDTH 7 0
BBX 8 11 -1 -2
BITMAP
2BBBBCEA
00000190
004BBC70
00B10000
01A00000
01900060
00B101B0
006EBAA0
00A66090
00B038A0
005BBB20
ENDCHAR
STARTCHAR uni0926094D092D
ENCODING -1
SWIDTH 499 0
DWIDTH 7 0
BBX 9 12 -1 -3
BITMAP
2BBBBBEB20
000000A000
003BBB8000
00B1000000
00A0005000
00B102A000
003BB9A000
04B100A000
004700A000
003DBBA000
003700A000
0000007000
ENDCHAR
STARTCHAR uni0926094D092E
ENCODING -1
SWIDTH 706 0
DWIDTH 10 0
BBX 11 9 -1 0
BITMAP
2BBBBDCBCEB0
006BBC202800
01A000002800
037000002800
01A006502800
006BBA502800
000005DBC800
000005502800
000000001400
ENDCHAR
STARTCHAR uni0926094D092F
ENCODING -1
SWIDTH 583 0
DWIDTH 8 0
BBX 10 9 -1 0
BITMAP
2BBBDCBEB3
005BC20A00
00B0000A00
00A0000A00
006D800A00
00A0000A00
00A0000C00
007BBBBB00
0000000500
ENDCHAR
STARTCHAR uni0926094D0935
ENCODING -1
SWIDTH 483 0
DWIDTH 7 0
BBX 8 11 -1 -2
BITMAP
2BBBBCEA
00000190
004BBC70
00B10000
01A00000
01900060
00B101B0
006EBAA0
00A100A0
00A002A0
004BBB20
ENDCHAR
STARTCHAR uni0927094D092E
ENCODING -1
SWIDTH 817 0
DWIDTH 11 0
BBX 13 9 -1 0
BITMAP
2BEC41CDBBDC70
00A00046007300
00800046007300
0072004DBBD300
00A00046007300
00A00046007300
00B10073007300
004BBB80007300
00000000003100
ENDCHAR
STARTCHAR uni0927094D092F
ENCODING -1
SWIDTH 886 0
DWIDTH 12 0
BBX 14 9 -1 0
BITMAP
2BEC41BCEBBDC6
00A00000820820
00B00000920820
007D907C800820
00900082000920
00A00066001C20
00B10099BBAA20
004BBB50000820
00000000000410
ENDCHAR
STARTCHAR uni0927094D0935
ENCODING -1
SWIDTH 810 0
DWIDTH 11 0
BBX 13 9 -1 0
BITMAP
2BEC41BBBBEC50
00A00009B49100
00A00065009100
006D9082009100
00A00082009100
00A0006500C100
00B100ACBAB100
004BBB50009100
00000000004000
ENDCHAR
STARTCHAR uni0928094D0915
ENCODING -1
SWIDTH 973 0
DWIDTH 14 0
BBX 15 9 -1 0
BITMAP
2BBBBBBBBEBBBB90
0000009B1A9BA200
000007300C203900
03CBBE000A000A00
06400A000A000A00
022009301C003900
000002BB9A1BA200
000000000A000000
0000000004000000
ENDCHAR
STARTCHAR uni0928094D091A
ENCODING -1
SWIDTH 820 0
DWIDTH 11 0
BBX 13 9 -1 0
BITMAP
2BBBBBBBBBDC70
00000000007300
000008CDB17300
00000091007300
03CBB4A0007300
065000B100A300
0010004BBBA300
00000000007300
00000000003100
ENDCHAR
STARTCHAR uni0928094D091B
ENCODING -1
SWIDTH 781 0
DWIDTH 11 0
BBX 13 8 -1 1
BITMAP
2BBBBECBBCDB10
00001900028000
00001A006C7000
01BBBEC500B000
0560090000A000
0240280000A000
00001A0000B000
000008BBBC4000
ENDCHAR
STARTCHAR uni0928094D091F
ENCODING -1
SWIDTH 715 0
DWIDTH 10 0
BBX 12 8 -1 1
BITMAP
2BBBBBBBCDB2
000000002800
000002ABC700
02CBBD200000
07400A000000
03300A000440
00000A100830
000004CBB900
ENDCHAR
STARTCHAR uni0928094D0921
ENCODING -1
SWIDTH 705 0
DWIDTH 10 0
BBX 11 9 -1 0
BITMAP
2BBBBBBBCEB0
000000001900
000005BBC700
03CBBE100000
064006BBB600
012000000B00
000007000A00
000009545B00
000001687200
ENDCHAR
STARTCHAR uni0928094D0924
ENCODING -1
SWIDTH 717 0
DWIDTH 10 0
BBX 12 9 -1 0
BITMAP
2BBBBBBBBEB2
000000000A00
000002BBBB00
02CBBC100A00
07400A000A00
03300A000A00
00000A000A00
00000B610A00
000001630500
ENDCHAR
STARTCHAR uni0928094D0925
ENCODING -1
SWIDTH 804 0
DWIDTH 11 0
BBX 13 9 -1 0
BITMAP
2BBB16CB30AB50
00000A0280A000
0000010380A000
02CBCCBA20A000
0740370000A000
03301B0002D000
000005BBB9B000
0000000000A000
00000000005000
ENDCHAR
STARTCHAR uni0928094D0926
ENCODING -1
SWIDTH 724 0
DWIDTH 10 0
BBX 12 9 -1 0
BITMAP
2BBBBBBBBEB3
000000000A00
000003BBBB00
03CBBD200000
06400A000400
01100A200A10
000003BBBB10
000000000810
000000000400
ENDCHAR
STARTCHAR uni0928094D0927
ENCODING -1
SWIDTH 753 0
DWIDTH 11 0
BBX 12 9 -1 0
BITMAP
2BBBBEB09DC8
000037000640
000038000640
02BBBFC60640
074028000640
044046000640
000029000A40
000007BBB940
000000000320
ENDCHAR
STARTCHAR uni0928094D092A
ENCODING -1
SWIDTH 742 0
DWIDTH 10 0
BBX 12 9 -1 0
BITMAP
2BBBBDCBBDC6
000008300820
000008300820
01BBBD300820
056006500B20
0350009BAA20
000000000820
000000000820
000000000410
ENDCHAR
STARTCHAR uni0928094D092B
ENCODING -1
SWIDTH 970 0
DWIDTH 14 0
BBX 15 9 -1 0
BITMAP
2BBBBECBBEBBBB80
000009100A9BA100
000009100C203900
02CBBE100A000A00
074008401C000A00
033001AB9A003900
000000000A1BA100
000000000A000000
0000000005000000
ENDCHAR
STARTCHAR uni0928094D092D
ENCODING -1
SWIDTH 739 0
DWIDTH 10 0
BBX 12 9 -1 0
BITMAP
2BBBBB10BEC6
000007400910
000006400910
01BBBDDBBE10
056006400910
025004300910
000000000910
000000000910
000000000400
ENDCHAR
STARTCHAR uni0928094D092E
ENCODING -1
SWIDTH 735 0
DWIDTH 10 0
BBX 12 9 -1 0
BITMAP
2BBBBDCBBEB5
000007300A00
000007300A00
01BBBDCBBE00
056007300A00
025005200A00
000000000A00
000000000A00
000000000500
ENDCHAR
STARTCHAR uni0928094D092F
ENCODING -1
SWIDTH 801 0
DWIDTH 11 0
BBX 13 9 -1 0
BITMAP
2BBBBBCEBBEB40
0000000A00A000
0000000B00A000
03CBBDB600A000
06400A0000A000
0120093002D000
000001ABB9A000
0000000000A000
00000000005000
ENDCHAR
STARTCHAR uni0928094D0935
ENCODING -1
SWIDTH 732 0
DWIDTH 10 0
BBX 12 9 -1 0
BITMAP
2BBBBBBBBEB4
0000009B2A00
000006400A00
03CBBE100A00
06400A100A00
022008401C00
000002ABAB00
000000000A00
000000000500
ENDCHAR
STARTCHAR uni0928094D0938
ENCODING -1
SWIDTH 867 0
DWIDTH 12 0
BBX 14 9 -1 0
BITMAP
2BBBBBBDDBBEB3
00000005500A00
00000005500A00
02CBB907300A00
074008CDBBBC00
033001A0000A00
00000056000A00
0000000A200A00
00000002400500
ENDCHAR
STARTCHAR uni0928094D0939
ENCODING -1
SWIDTH 714 0
DWIDTH 10 0
BBX 12 10 -1 -1
BITMAP
2BBBBBBBBEB2
000000000A00
000001ABB900
000007300000
02BBBE300000
056003EBB600
012008300B00
00000A000500
000008300000
000001ABB900
ENDCHAR
STARTCHAR uni092A094D091F
ENCODING -1
SWIDTH 489 0
DWIDTH 7 0
BBX 8 9 -1 0
BITMAP
2BEBBBEB
00A000A0
00A000A0
007DBB90
00B00000
01900040
00A00091
00A645B0
00168610
ENDCHAR
STARTCHAR uni092A094D0920
ENCODING -1
SWIDTH 506 0
DWIDTH 7 0
BBX 9 9 -1 0
BITMAP
2BEBBBEB30
00A000A000
00B000B000
006DBD8000
00A000B000
00A0009100
00A0009100
00A545B000
0016861000
ENDCHAR
STARTCHAR uni092A094D0924
ENCODING -1
SWIDTH 495 0
DWIDTH 7 0
BBX 9 9 -1 0
BITMAP
2BEBBBEB10
00A000A000
00B000A000
007DBCA000
00B000A000
019000A000
019000A000
00B510A000
0017204000
ENDCHAR
STARTCHAR uni092A094D092A
ENCODING -1
SWIDTH 770 0
DWIDTH 11 0
BBX 12 9 -1 0
BITMAP
2BEBBCDBBCDB
00A002800380
00A002800380
00A002800380
00B102B00680
003BB95BB880
000000000380
000000000380
000000000140
ENDCHAR
STARTCHAR uni092A094D092B
ENCODING -1
SWIDTH 1003 0
DWIDTH 14 0
BBX 16 9 -1 0
BITMAP
2BEBBCDBBDCBBBB2
00A00280069BB600
00A0028006800B10
00A0028006500830
00B103A009400830
003BB95BB9400B10
000000000647B600
0000000006400000
0000000003200000
ENDCHAR
STARTCHAR uni092A094D092E
ENCODING -1
SWIDTH 774 0
DWIDTH 11 0
BBX 12 9 -1 0
BITMAP
2BEBBBEBBCDB
00A000A00280
00A000A00280
00A000DBBC80
00A106B00280
003BBAA00280
000000200280
000000000280
000000000140
ENDCHAR
STARTCHAR uni092A094D092F
ENCODING -1
SWIDTH 855 0
DWIDTH 12 0
BBX 14 9 -1 0
BITMAP
2BEBBBBDDBBEB1
00A00000900A00
00A00001A00A00
00A000CB400A00
00B101A0000A00
003BB9A1004A00
0000003BBB7A00
00000000000A00
00000000000500
ENDCHAR
STARTCHAR uni092A094D0932
ENCODING -1
SWIDTH 960 0
DWIDTH 13 0
BBX 15 9 -1 0
BITMAP
2BEBBBBBBBBBDC70
00A0000000008200
00A0005BB4BBA200
00A000B01D10B200
00B102A00A008200
003BBAA004008200
000000B000008200
0000006C90008200
0000000000004100
ENDCHAR
STARTCHAR uni092A094D0935
ENCODING -1
SWIDTH 780 0
DWIDTH 11 0
BBX 13 9 -1 0
BITMAP
2BEBBBBBBCEB10
00A0003BA19000
00A000B1019000
00A000A0019000
00B103B0019000
003BBAC1049000
0000004BB89000
00000000019000
00000000004000
ENDCHAR
STARTCHAR uni092A094D0938
ENCODING -1
SWIDTH 880 0
DWIDTH 12 0
BBX 14 9 -1 0
BITMAP
2BEBBBBCDBBEC5
00A00002800A00
00A00002800A00
00A00005600A00
00B103CDBBBE00
003BB971000A00
00000018000A00
00000007300A00
00000000500500
ENDCHAR
STARTCHAR uni092B094D091C
ENCODING -1
SWIDTH 1100 0
DWIDTH 15 0
BBX 17 9 -1 0
BITMAP
2BEBBCEBBBBBBBDC60
00A001900000008200
00A001BAB28DBBE200
00A001C00004608200
00B104900001908200
003BB8900001A08200
000001900004808200
000001900BBA108200
000000400000004100
ENDCHAR
STARTCHAR uni092B094D091F
ENCODING -1
SWIDTH 1006 0
DWIDTH 14 0
BBX 16 9 -1 0
BITMAP
2BEBBCEBBBBBCEB3
00A001AAB8001900
00A001C009CBC700
00A0019009200000
00B104900A000000
003BB9900A000350
000001900A100740
0000019003BBBA00
0000004000000000
ENDCHAR
STARTCHAR uni092B094D0924
ENCODING -1
SWIDTH 1034 0
DWIDTH 14 0
BBX 16 9 -1 0
BITMAP
2BEBBCEBBBBBBDC7
00A0019000000730
00A001D107BBBD30
00A0019006500730
00B1049008200730
003BB89008200730
0000019008200730
0000019004A30730
0000004000460310
ENDCHAR
STARTCHAR uni092B094D092A
ENCODING -1
SWIDTH 1021 0
DWIDTH 14 0
BBX 16 9 -1 0
BITMAP
2BEBBCEBBECBBEB5
00A0019009100A00
00A001AABE100A00
00A001C009100A00
00B1049008401D00
003BB89001ABAC00
0000019000000A00
0000019000000A00
0000004000000500
ENDCHAR
STARTCHAR uni092B094D092B
ENCODING -1
SWIDTH 1256 0
DWIDTH 18 0
BBX 19 9 -1 0
BITMAP
2BEBBCEBBECBBEBBBB80
00A0019009100A9BA100
00A001AABE100C203900
00A001C009100A000A00
00B1049008401C000A00
003BB89001AB9A003900
0000019000000A1BA200
0000019000000A000000
00000040000005000000
ENDCHAR
STARTCHAR uni092B094D092F
ENCODING -1
SWIDTH 1120 0
DWIDTH 16 0
BBX 17 9 -1 0
BITMAP
2BEBBCEBBBCEBBEB50
00A00190000A10A000
00A001AABDB900A000
00A001C00A0000A000
00B10490091000A000
003BB890066001D000
00000190008BBAB000
00000190000000A000
000000400000005000
ENDCHAR
STARTCHAR uni092B094D0932
ENCODING -1
SWIDTH 1202 0
DWIDTH 17 0
BBX 18 9 -1 0
BITMAP
2BEBBCEBBBBBBBBCDB
00A001AAB800000280
00A001C009CB68B980
00A001900830870580
00B104900A00640280
003BB8900A00320280
000001900830000280
0000019002BB200280
000000400000000140
ENDCHAR
STARTCHAR uni092B094D0936
ENCODING -1
SWIDTH 1211 0
DWIDTH 17 0
BBX 19 9 -1 0
BITMAP
2BEBBCEBB83BB800EB10
00A0019000820A00A000
00A001AAB5600910A000
00A001C00B000B00A000
00B1049009CBB500A000
003BB89002900000A000
0000019000660000A000
0000019000092000A000
00000040000140005000
ENDCHAR
STARTCHAR uni092C094D091C
ENCODING -1
SWIDTH 883 0
DWIDTH 12 0
BBX 14 9 -1 0
BITMAP
2BBBBBBBBBBEC6
00000000000910
0052003BDBBE10
009A0000460910
02838000190910
02806400190910
00B00920470910
005BBCCBA10910
00000000000400
ENDCHAR
STARTCHAR uni092C094D091D
ENCODING -1
SWIDTH 962 0
DWIDTH 13 0
BBX 15 10 -1 -1
BITMAP
2BBBBBBBBECBDC70
005B907BBC107300
00D400B000007300
028640B000007300
028064DBBDCBD300
00B0087004707300
005BBA1003707300
000000A648507300
000000A575003100
0000009000000000
ENDCHAR
STARTCHAR uni092C094D0924
ENCODING -1
SWIDTH 786 0
DWIDTH 11 0
BBX 13 9 -1 0
BITMAP
2BBBBBBBBBEB20
005B900000A000
00D5005BBBB000
028650B000A000
028065A000A000
00B008A000A000
005BB9A000A000
000000A510A000
00000016305000
ENDCHAR
STARTCHAR uni092C094D0926
ENCODING -1
SWIDTH 775 0
DWIDTH 11 0
BBX 12 9 -1 0
BITMAP
2BBBBBBBBCEB
005C90000190
00E3005BBB80
02B810B00000
028183A00040
00A008C001B0
005BB93BBAB0
0000000000A0
000000000040
ENDCHAR
STARTCHAR uni092C094D0927
ENCODING -1
SWIDTH 844 0
DWIDTH 12 0
BBX 13 9 -1 0
BITMAP
2BBBBBEC26CDB0
005B90A0002800
00E400A0002800
0299307D902800
028083B0002800
00A008A0002800
005BB980006800
0000002BBB7800
00000000001400
ENDCHAR
STARTCHAR uni092C094D092C
ENCODING -1
SWIDTH 783 0
DWIDTH 11 0
BBX 13 9 -1 0
BITMAP
2BBBBBBBBBEB10
005B904BA0A000
00D500C600A000
028640A560A000
028065A056A000
00B008C107A000
005BB94BB8A000
0000000000A000
00000000005000
ENDCHAR
STARTCHAR uni092C094D092D
ENCODING -1
SWIDTH 764 0
DWIDTH 11 0
BBX 12 9 -1 0
BITMAP
2BBBBC407CD9
005B92900460
00D501900460
028641EBBC60
028065900460
00B008700460
005BBA100460
000000000460
000000000230
ENDCHAR
STARTCHAR uni092C094D092F
ENCODING -1
SWIDTH 852 0
DWIDTH 12 0
BBX 14 9 -1 0
BITMAP
2BBBBBBDCBBEB1
005C9001900A00
00E30001A00A00
02BB10CB300A00
028191A0001A00
00A018D1005A00
005BB93ABB7A00
00000000000A00
00000000000400
ENDCHAR
STARTCHAR uni092C094D0932
ENCODING -1
SWIDTH 961 0
DWIDTH 13 0
BBX 15 9 -1 0
BITMAP
2BBBBBBBBBBBDC70
005C900000008300
00E3005BB4BBA300
029920B01C10B300
028083A00A008300
00A008A002008300
005BB89000008300
0000004B90008300
0000000000004100
ENDCHAR
STARTCHAR uni092C094D0935
ENCODING -1
SWIDTH 776 0
DWIDTH 11 0
BBX 12 9 -1 0
BITMAP
2BBBBBBBBCEB
005B904B9190
00D400B10190
028640A00190
028064A00190
00B008D10490
005BB94BB890
000000000190
000000000040
ENDCHAR
STARTCHAR uni092C094D0936
ENCODING -1
SWIDTH 926 0
DWIDTH 13 0
BBX 15 9 -1 0
BITMAP
2BBBB34CB800EB10
005B90920A00A000
00E400000910A000
029820000B00A000
028072DBB600A000
00B007C50000A000
005BBA191000A000
00000001A000A000
0000000041005000
ENDCHAR
STARTCHAR uni092C094D0938
ENCODING -1
SWIDTH 897 0
DWIDTH 13 0
BBX 14 9 -1 0
BITMAP
2BBBBBBBEBBDC8
005B9000A00640
00E30000A00640
02992001900640
028072DDCBBD40
00A007C4000640
005BBA1A000640
00000004700640
00000000500320
ENDCHAR
STARTCHAR uni092D094D092F
ENCODING -1
SWIDTH 827 0
DWIDTH 12 0
BBX 13 9 -1 0
BITMAP
2C605BBEBBDD80
00B00005506400
00A00005306400
00DBBC40006400
00A00550006400
007002A000A400
0000005BBB8400
00000000006400
00000000003200
ENDCHAR
STARTCHAR uni092D094D0932
ENCODING -1
SWIDTH 941 0
DWIDTH 13 0
BBX 15 9 -1 0
BITMAP
2C605BBBBBBBEB30
00B000000000A000
00A001ABA5BAB000
00DBBC803B01C000
00A005501900A000
007005500300A000
000003800000A000
0000009B6000A000
0000000000005000
ENDCHAR
STARTCHAR uni092D094D0935
ENCODING -1
SWIDTH 755 0
DWIDTH 11 0
BBX 12 9 -1 0
BITMAP
2C605BBBBDC8
00B0007B6640
00A003900640
00DBBC500640
00A005500640
005003900940
0000007BB940
000000000640
000000000320
ENDCHAR
STARTCHAR uni092E094D0924
ENCODING -1
SWIDTH 765 0
DWIDTH 11 0
BBX 12 9 -1 0
BITMAP
2BEBBBBBBCDA
00A000000460
00A0009CBC60
00DBBC900460
00A005500460
007005500460
000004600460
000001B40460
000000270230
ENDCHAR
STARTCHAR uni092E094D0926
ENCODING -1
SWIDTH 766 0
DWIDTH 11 0
BBX 12 9 -1 0
BITMAP
2BEBBBBBBCDA
00A000000370
00A0009CBC60
00DBBCA00000
00A003800040
005001A002A0
0000006BB9A0
0000000000A0
000000000040
ENDCHAR
STARTCHAR uni092E094D092A
ENCODING -1
SWIDTH 762 0
DWIDTH 11 0
BBX 12 9 -1 0
BITMAP
2BEBBCDBBCD9
00A003700460
00A003700460
00DBBC700460
00A001900760
0080006BB960
000000000460
000000000460
000000000230
ENDCHAR
STARTCHAR uni092E094D092C
ENCODING -1
SWIDTH 768 0
DWIDTH 11 0
BBX 12 9 -1 0
BITMAP
2BEBBBBBBCDA
00A0007B8370
00A002C40370
00DBBC764370
00A003707770
005002A00A70
0000006BB870
000000000370
000000000130
ENDCHAR
STARTCHAR uni092E094D092D
ENCODING -1
SWIDTH 768 0
DWIDTH 11 0
BBX 12 9 -1 0
BITMAP
2BEBBC507CDA
00A000A00370
00A000A00370
00DBBBEBBC70
00A000A00370
007000700370
000000000370
000000000370
000000000130
ENDCHAR
STARTCHAR uni092E094D092E
ENCODING -1
SWIDTH 759 0
DWIDTH 11 0
BBX 12 9 -1 0
BITMAP
2BEBBCDBBDD9
00A002800550
00A002800550
00DBBCEBBD50
00A002800550
007001600550
000000000550
000000000550
000000000220
ENDCHAR
STARTCHAR uni092E094D092F
ENCODING -1
SWIDTH 834 0
DWIDTH 12 0
BBX 13 9 -1 0
BITMAP
2BEBBBBECBCD90
00A00004604600
00A00004404600
00DBBC50004600
00A00460004600
007001A0009600
0000005BBB8600
00000000004600
00000000002300
ENDCHAR
STARTCHAR uni092E094D0932
ENCODING -1
SWIDTH 945 0
DWIDTH 13 0
BBX 15 9 -1 0
BITMAP
2BEBBBBBBBBBEB40
00A000000000A000
00A0009CB5BAB000
00DBBCA02C01D000
00A004700A00A000
007003700300A000
000002900000A000
0000008B7000A000
0000000000005000
ENDCHAR
STARTCHAR uni092E094D0935
ENCODING -1
SWIDTH 761 0
DWIDTH 11 0
BBX 12 9 -1 0
BITMAP
2BEBBBBBBCD9
00A0006B7450
00A002A00450
00DBBC700450
00A003700450
005002A00750
0000006BB950
000000000450
000000000230
ENDCHAR
STARTCHAR uni092E094D0936
ENCODING -1
SWIDTH 884 0
DWIDTH 12 0
BBX 14 9 -1 0
BITMAP
2BEB80ABB208C6
00A00280460910
00A00140370910
00A00000660910
00DBBCCBA10910
00A00290000910
00400066000910
00000009200910
00000001400410
ENDCHAR
STARTCHAR uni092E094D0938
ENCODING -1
SWIDTH 816 0
DWIDTH 11 0
BBX 13 9 -1 0
BITMAP
2BEBBBBEBBDC70
00A0000A008200
00A0000A008200
00A00038008200
00DBBDDCBBD200
00A00A20008200
004002A0008200
00000075008200
00000005004100
ENDCHAR
STARTCHAR uni092E094D0939
ENCODING -1
SWIDTH 758 0
DWIDTH 11 0
BBX 12 10 -1 -1
BITMAP
2BEBBBBBBDD9
00A000000550
00A0006BBC40
00A000B00000
00DBBBB00000
00A0007DBB20
006000B00380
000001900050
000000B00000
0000005BBB40
ENDCHAR
STARTCHAR uni092F094D092F
ENCODING -1
SWIDTH 897 0
DWIDTH 13 0
BBX 14 9 -1 0
BITMAP
2BBDCBBCEBBDC8
00019000640640
0002A000650640
01CB305CA00640
01900064000640
00B10068000A40
004BBB66BBB940
00000000000640
00000000000320
ENDCHAR
STARTCHAR uni0930094D092F
ENCODING -1
SWIDTH 713 0
DWIDTH 10 0
BBX 12 9 -1 0
BITMAP
2BBBBDDBBEB1
000000900A00
050001A00A00
04BBDB400A00
0000A0000A00
0000B1004B00
00003BBB7A00
000000000A00
000000000500
ENDCHAR
STARTCHAR uni0930094D0939
ENCODING -1
SWIDTH 619 0
DWIDTH 9 0
BBX 10 10 -1 -1
BITMAP
2BBBBBBCD9
0000000460
04006CBC50
04BBC00000
0000A00000
00005DBB20
0000A00290
0000A00050
0000B10000
00004BBB50
ENDCHAR
STARTCHAR uni0932094D0915
ENCODING -1
SWIDTH 1182 0
DWIDTH 17 0
BBX 18 9 -1 0
BITMAP
2BBBBBBBBBBBEBBBB8
000000001AB1A9BA10
004BB4ABB300C10380
00B01C10B000A000A0
00A00A00A000A000A0
00A00300A301B00380
00B000002BB9A1BA10
006C90000000A00000
000000000000400000
ENDCHAR
STARTCHAR uni0932094D0916
ENCODING -1
SWIDTH 1195 0
DWIDTH 17 0
BBX 18 9 -1 0
BITMAP
2BBBBBBBBBCEBBBCDA
000000000028000370
004BB3AB40281A8370
00B01D209047650370
00A00A008CB1820370
00A008002A00650670
00B0000005701AB870
006C90000084000370
000000000005000130
ENDCHAR
STARTCHAR uni0932094D0917
ENCODING -1
SWIDTH 950 0
DWIDTH 13 0
BBX 15 9 -1 0
BITMAP
2BBBBBBBBEBBEC50
000000000A00A000
004BB3A90A00A000
00B01D200A00A000
00A00A001B00A000
00A00903B400A000
00B000000000A000
006C90000000A000
0000000000005000
ENDCHAR
STARTCHAR uni0932094D091C
ENCODING -1
SWIDTH 1035 0
DWIDTH 14 0
BBX 16 9 -1 0
BITMAP
2BBBBBBBBBBBBDC7
0000000000000730
004BB3A91BDCBD30
00B01D2000280730
00A00A00000A0730
00A00800000A0730
00B0000000290730
006C9002BBB20730
0000000000000310
ENDCHAR
STARTCHAR uni0932094D091F
ENCODING -1
SWIDTH 929 0
DWIDTH 13 0
BBX 15 8 -1 1
BITMAP
2BBBBBBBBBBCDB20
0000000000028000
004BB4AB6ABC7000
00B01D20B2000000
00A00A00A0000000
00A00500A0004400
00B00000A1008300
006C90003CBB9000
ENDCHAR
STARTCHAR uni0932094D0920
ENCODING -1
SWIDTH 953 0
DWIDTH 13 0
BBX 15 8 -1 1
BITMAP
2BBBBBBBBBBBEB60
0000000000019000
004BB3AB6ABD7000
00B01D20B1009200
00A00A00A0006400
00A00500A0006400
00B00000B1008300
006C90004CBB9000
ENDCHAR
STARTCHAR uni0932094D0921
ENCODING -1
SWIDTH 916 0
DWIDTH 13 0
BBX 14 9 -1 0
BITMAP
2BBBBBBBBBBCDB
00000000000280
004BA3AA6BBC60
00B01D10B00000
00A00A005BBB50
00A003000000B0
00B000007000A0
006C9000A545B0
00000000178720
ENDCHAR
STARTCHAR uni0932094D0922
ENCODING -1
SWIDTH 924 0
DWIDTH 13 0
BBX 15 8 -1 1
BITMAP
2BBBBBBBBBBCDB10
0000000000028000
004BB4BB6BBC7000
00B01D20B1000000
00A00A00A02BA000
00A00600A0726300
00B00000A0107300
006C90004CBBA000
ENDCHAR
STARTCHAR uni0932094D0924
ENCODING -1
SWIDTH 929 0
DWIDTH 13 0
BBX 15 9 -1 0
BITMAP
2BBBBBBBBBBBEB20
000000000000A000
004BB5BB6ABBB000
00B01D20B000A000
00A00A00A000A000
00A00400A000A000
00B00000A000A000
006C9000B510A000
0000000016305000
ENDCHAR
STARTCHAR uni0932094D0925
ENCODING -1
SWIDTH 1061 0
DWIDTH 15 0
BBX 16 9 -1 0
BITMAP
2BBBBBB81BBA01DB
0000000037082290
004BB4AC60092290
00B01D10CBB80290
00A00A00A1000290
00A0030085000690
00B0000019BBB790
006C900000000290
0000000000000140
ENDCHAR
STARTCHAR uni0932094D0926
ENCODING -1
SWIDTH 939 0
DWIDTH 13 0
BBX 15 9 -1 0
BITMAP
2BBBBBBBBBBBEB30
000000000000A000
004BB4BB5ABBB000
00B00C10B2000000
00A00A00A0004100
00A001009200A200
00B000002BBBB200
006C900000008200
0000000000004100
ENDCHAR
STARTCHAR uni0932094D092A
ENCODING -1
SWIDTH 939 0
DWIDTH 13 0
BBX 15 9 -1 0
BITMAP
2BBBBBBBEBBBEB30
00000000A000A000
004BB4ABD000A000
00B01D20A000A000
00A00A00A201C000
00A004002BB9B000
00B000000000A000
006C90000000A000
0000000000005000
ENDCHAR
STARTCHAR uni0932094D092B
ENCODING -1
SWIDTH 1176 0
DWIDTH 16 0
BBX 18 9 -1 0
BITMAP
2BBBBBBBEBBBEBBBB7
00000000A000BABA10
004BB4ABD000D10570
00B01D20A000A00190
00A00A009202B00190
00A005002AB8A00570
00B000000000A2BA10
006C90000000A00000
000000000000500000
ENDCHAR
STARTCHAR uni0932094D092C
ENCODING -1
SWIDTH 949 0
DWIDTH 13 0
BBX 15 9 -1 0
BITMAP
2BBBBBBBBBBBEB50
000000000AB3A000
004BB4ABA900A000
00B01C10B570A000
00A00A00A047A000
00A002009303E000
00B000002ABAB000
006C90000000A000
0000000000005000
ENDCHAR
STARTCHAR uni0932094D092D
ENCODING -1
SWIDTH 931 0
DWIDTH 13 0
BBX 15 9 -1 0
BITMAP
2BBBBBBB803BEB20
00000000B000A000
004BB4ABD000A000
00B01D20BBBBB000
00A00A00A000A000
00A003007000A000
00B000000000A000
006C90000000A000
0000000000005000
ENDCHAR
STARTCHAR uni0932094D092E
ENCODING -1
SWIDTH 931 0
DWIDTH 13 0
BBX 15 9 -1 0
BITMAP
2BBBBBBBEBBBEB20
00000000A000A000
004BB4ABD000A000
00B01D20BBBBB000
00A00A00A000A000
00A003007000A000
00B000000000A000
006C90000000A000
0000000000005000
ENDCHAR
STARTCHAR uni0932094D092F
ENCODING -1
SWIDTH 1033 0
DWIDTH 14 0
BBX 16 9 -1 0
BITMAP
2BBBBBBBBCEBBDC7
0000000000730830
004BB4AB80740830
00B00D10AC900830
00A00A0073000830
00A0010057001B30
00B0000008BBA930
006C900000000830
0000000000000410
ENDCHAR
STARTCHAR uni0932094D0932
ENCODING -1
SWIDTH 1112 0
DWIDTH 16 0
BBX 17 9 -1 0
BITMAP
2BBBBBBBBBBBBBDD80
000000000000006400
004BB3AB7BB4ABA400
00B01D20B10C309400
00A00A00A00A006400
00A00500A005006400
00B00000B000006400
006C90005CB0006400
000000000000003200
ENDCHAR
STARTCHAR uni0932094D0935
ENCODING -1
SWIDTH 940 0
DWIDTH 13 0
BBX 15 9 -1 0
BITMAP
2BBBBBBBBBBBEB40
000000001AB2A000
004BB4BBB300A000
00B01C10B000A000
00A00A00A000A000
00A003009301C000
00B000002BB9A000
006C90000000A000
0000000000005000
ENDCHAR
STARTCHAR uni0932094D0938
ENCODING -1
SWIDTH 1068 0
DWIDTH 15 0
BBX 17 9 -1 0
BITMAP
2BBBBBBBBBDCBBEB10
00000000008300A000
004BB3AB408300A000
00B01D20A09100A000
00A00A009CDBBCA000
00A00800390000A000
00B00000083000A000
006C900001B000A000
000000000032005000
ENDCHAR
STARTCHAR uni0932094D0939
ENCODING -1
SWIDTH 922 0
DWIDTH 13 0
BBX 15 9 -1 0
BITMAP
2BBBBBBBBBBBEB10
000000000000A000
004BA3AA6BBB8000
00B01D10A1000000
00A00A003DBB4000
00A003009201B000
00B00000A0008000
006C9000A2000000
000000002ABB8000
ENDCHAR
STARTCHAR uni0933094D092F
ENCODING -1
SWIDTH 1050 0
DWIDTH 15 0
BBX 16 9 -1 0
BITMAP
2BBBBBBBBBECBCDA
004BB39B70460460
00B01C4082470460
01900A004DA10460
01900A0046000460
01900A004A000860
00B01A4076BBB860
004BB28B60000460
0000000000000230
ENDCHAR
STARTCHAR uni0935094D092F
ENCODING -1
SWIDTH 852 0
DWIDTH 12 0
BBX 14 9 -1 0
BITMAP
2BBBBBBDCBBEB1
005B9001900A00
00B00001A00A00
028000CB300A00
028000A0001A00
00B003D1005A00
005BBA3ABB7A00
00000000000A00
00000000000500
ENDCHAR
STARTCHAR uni0935094D0932
ENCODING -1
SWIDTH 961 0
DWIDTH 13 0
BBX 15 9 -1 0
BITMAP
2BBBBBBBBBBBDC70
005B900000008300
00B0005BB4BBB300
028000C00C10A300
028000A00A008300
00B003A001008300
005BB88000008300
0000003B90008300
0000000000004100
ENDCHAR
STARTCHAR uni0935094D0935
ENCODING -1
SWIDTH 776 0
DWIDTH 11 0
BBX 12 9 -1 0
BITMAP
2BBBBBBBBCEB
005B904B9190
00B000B10190
028000A00190
028000A00190
00B004D10490
005BB94BB790
000000000190
000000000040
ENDCHAR
STARTCHAR uni0935094D0939
ENCODING -1
SWIDTH 754 0
DWIDTH 11 0
BBX 12 10 -1 -1
BITMAP
2BBBBBBBBDD8
000000000640
005B907BBC30
00B001B00000
028000A00000
0280008DBB10
00B004B00470
005BB9800140
000001A00000
0000005BBB40
ENDCHAR
STARTCHAR uni0936094D0915
ENCODING -1
SWIDTH 1093 0
DWIDTH 15 0
BBX 16 9 0 0
BITMAP
09BC42BBBCDBBBB5
0901A04B92ABB800
0000A0B102C00740
000290A002900470
5CBB20A002800470
1A1000B104800750
0390004BB884B900
0075000002800000
0005000001400000
ENDCHAR
STARTCHAR uni0936094D091A
ENCODING -1
SWIDTH 950 0
DWIDTH 13 0
BBX 14 9 0 0
BITMAP
08BC42BBBBBEC5
0A01A000000A00
0100A2BCCA0A00
0002900A000A00
5CBB2019000A00
1A10000B001D00
03900005BBAB00
00750000000A00
00050000000500
ENDCHAR
STARTCHAR uni0936094D091B
ENCODING -1
SWIDTH 968 0
DWIDTH 14 0
BBX 14 9 0 0
BITMAP
09BC33CEBBBDC8
0A019063000830
0100A07400AD20
0003802DB10470
5CBA2045000280
1A000073000280
03800074000570
0074001BBBBB10
00050000000000
ENDCHAR
STARTCHAR uni0936094D091F
ENCODING -1
SWIDTH 854 0
DWIDTH 12 0
BBX 13 9 0 0
BITMAP
08BC43BBBCDB10
0A01A000037000
0200A03BBC6000
000290A1000000
5CBB20A0000000
1A1000A0004200
039000A1008300
0075004CBB9000
00050000000000
ENDCHAR
STARTCHAR uni0936094D0924
ENCODING -1
SWIDTH 864 0
DWIDTH 12 0
BBX 13 9 0 0
BITMAP
08BC43BBBBEB30
0A01A00000A000
0000A04BBBC000
000290B100A000
5CBB20A000A000
1A1000A000A000
039000A000A000
007500A620A000
00050016305000
ENDCHAR
STARTCHAR uni0936094D092E
ENCODING -1
SWIDTH 885 0
DWIDTH 12 0
BBX 13 9 0 0
BITMAP
08BC43DDBBDC60
0A01A055008200
0100A055008200
0002905DBBE200
5CBB2055008200
1A100055008200
03900010008200
00750000008200
00050000004100
ENDCHAR
STARTCHAR uni0936094D092F
ENCODING -1
SWIDTH 940 0
DWIDTH 13 0
BBX 14 9 0 0
BITMAP
07BC43BCDBBEB3
0B01A000A00A00
0600A000B00A00
000290AB600A00
5CBB20A0000A00
1A100092002D00
0390002ABB9B00
00750000000A00
00050000000500
ENDCHAR
STARTCHAR uni0936094D0932
ENCODING -1
SWIDTH 1039 0
DWIDTH 15 0
BBX 15 9 0 0
BITMAP
08BC42BBBBBBDC80
0A01A00000006400
0200A04BB4ABA400
000290B10C309400
5CBB20A00A006400
1A1000A007006400
039000B000006400
0075005CA0006400
0005000000003200
ENDCHAR
STARTCHAR uni0936094D0935
ENCODING -1
SWIDTH 850 0
DWIDTH 12 0
BBX 13 9 0 0
BITMAP
09BC42BBBCEB10
0901A04BA19000
0000A0B1019000
000290A0019000
5CBB20A0019000
1A1000B1049000
0390004BB89000
00750000019000
00050000004000
ENDCHAR
STARTCHAR uni0936094D0936
ENCODING -1
SWIDTH 1009 0
DWIDTH 14 0
BBX 15 9 0 0
BITMAP
07BC401BBA00CB30
0B01A0650830A000
0600A0420730A000
000290000920A000
5CBB20BBB700A000
1A1000660000A000
039000092000A000
00750001A000A000
0005000033005000
ENDCHAR
STARTCHAR uni0937094D0915
ENCODING -1
SWIDTH 1039 0
DWIDTH 15 0
BBX 16 9 -1 0
BITMAP
2BEBBBBBBBEBBBB8
00A4002AB1A9BA10
00A0609200C10480
00A018B000A000A0
00B104E000A000A0
003BB9A202B00480
0000002BB9A1BA10
0000000000A00000
0000000000400000
ENDCHAR
STARTCHAR uni0937094D091F
ENCODING -1
SWIDTH 493 0
DWIDTH 7 0
BBX 9 9 -1 0
BITMAP
2BFCBBEB10
00B740A000
00A037B000
007DBB9000
00B0000000
0190003100
00A0008200
00A645B000
0016871000
ENDCHAR
STARTCHAR uni0937094D0920
ENCODING -1
SWIDTH 511 0
DWIDTH 7 0
BBX 9 9 -1 0
BITMAP
2BDFFFFB30
00CFFFF000
00DFFFF000
009FFFA000
0087679000
00A0008100
00A0008200
00B545C000
0017872000
ENDCHAR
STARTCHAR uni0937094D0923
ENCODING -1
SWIDTH 980 0
DWIDTH 14 0
BBX 15 9 -1 0
BITMAP
2BEBBBEBBCDBCDA0
00C700A004503700
00A370A004503700
00A027A004503700
00B104E207403700
003BBA3AB9003700
0000000000003700
0000000000003700
0000000000001300
ENDCHAR
STARTCHAR uni0937094D092A
ENCODING -1
SWIDTH 980 0
DWIDTH 14 0
BBX 15 9 -1 0
BITMAP
2BEBBBEBBCDBCDA0
00C700A004503700
00A370A004503700
00A027A004503700
00B104E207403700
003BBA3AB9003700
0000000000003700
0000000000003700
0000000000001300
ENDCHAR
STARTCHAR uni0937094D092B
ENCODING -1
SWIDTH 1036 0
DWIDTH 15 0
BBX 16 9 -1 0
BITMAP
2BEBBBEBBBEBBBB7
00A400A000BABA10
00A160A000C10480
00A018A000A001A0
00B104F302B001A0
003BBA2AB8A00480
0000000000A2BA10
0000000000A00000
0000000000500000
ENDCHAR
STARTCHAR uni0937094D092E
ENCODING -1
SWIDTH 791 0
DWIDTH 11 0
BBX 13 9 -1 0
BITMAP
2BEBBBEBBBEB20
00B700A000A000
00A181A000A000
00A019CBBBC000
00B105F000A000
003BB99000A000
0000000000A000
0000000000A000
00000000005000
ENDCHAR
STARTCHAR uni0937094D092F
ENCODING -1
SWIDTH 877 0
DWIDTH 12 0
BBX 14 9 -1 0
BITMAP
2BEBBBBCEBBEB5
00C70000910A00
00A36000A10A00
00A0368B700A00
00B104E0000A00
003BB984001D00
00000009BBAB00
00000000000A00
00000000000500
ENDCHAR
STARTCHAR uni0937094D0935
ENCODING -1
SWIDTH 802 0
DWIDTH 11 0
BBX 13 9 -1 0
BITMAP
2BEBBBBBBBEB40
00A4001AB2A000
00A0608400A000
00A018B000A000
00B104F000A000
003BB99401C000
0000001ABAB000
0000000000A000
00000000004000
ENDCHAR
STARTCHAR uni0937094D0937
ENCODING -1
SWIDTH 804 0
DWIDTH 11 0
BBX 13 9 -1 0
BITMAP
2BEBBBECBBEB50
00C700A800A000
00A370A180A000
00A027A018B000
00B104E302E000
003BBA2ABAB000
0000000000A000
0000000000A000
00000000005000
ENDCHAR
STARTCHAR uni0938094D0915
ENCODING -1
SWIDTH 1089 0
DWIDTH 15 0
BBX 17 9 -1 0
BITMAP
2BBDDBBBBBCDBBBB50
00064003B92ABB8000
00064009102B008400
000820090028004600
07CDBBB90028004600
02A0000C1058008400
00750006CB885B8000
000A10000028000000
000230000014000000
ENDCHAR
STARTCHAR uni0938094D0916
ENCODING -1
SWIDTH 990 0
DWIDTH 14 0
BBX 15 9 -1 0
BITMAP
2BBDDBBBEBBBCEB0
00064000A0001900
00064000A09A1900
0008200295701900
07CDBCCB36401900
02A001A105705900
00750039009B8900
000A100650001900
0002300050001400
ENDCHAR
STARTCHAR uni0938094D091C
ENCODING -1
SWIDTH 970 0
DWIDTH 14 0
BBX 15 9 -1 0
BITMAP
2BBDDBBBBBBBDD80
0006400000006500
00064000BDCBD500
0008200002906500
07CDBBB300A06500
02A0000000A06500
0075000002A06500
000A1008BB306500
0002300000003200
ENDCHAR
STARTCHAR uni0938094D091F
ENCODING -1
SWIDTH 844 0
DWIDTH 12 0
BBX 13 9 -1 0
BITMAP
2BBDDBBBBBDDB0
00064000005500
00064003BBC400
0008200A100000
07CDBBBA000000
02A0000A000510
0075000B000A10
000A1006CBC700
00023000000000
ENDCHAR
STARTCHAR uni0938094D0924
ENCODING -1
SWIDTH 852 0
DWIDTH 12 0
BBX 14 9 -1 0
BITMAP
2BBDDBBBBBBEB1
00064000000A00
00064004BBCA00
00082009000A00
07CDBBB9000A00
02A00019000A00
00750019000A00
000A100C510A00
00023002720400
ENDCHAR
STARTCHAR uni0938094D0925
ENCODING -1
SWIDTH 960 0
DWIDTH 13 0
BBX 15 9 -1 0
BITMAP
2BBDCB34CC507C70
0006400910A08300
0007300301A08300
07CDBBBDBB408300
0390000A00008300
00A2000B1001C300
00390003BBBA9300
000A200000008300
0002300000004100
ENDCHAR
STARTCHAR uni0938094D0926
ENCODING -1
SWIDTH 851 0
DWIDTH 12 0
BBX 14 9 -1 0
BITMAP
2BBDDBBBBBBEB1
00064000000A00
00064004BBB800
0008200A000000
0697666A000400
00B0000B000B00
00570005BBAB00
000A1000000A00
00023000000400
ENDCHAR
STARTCHAR uni0938094D092A
ENCODING -1
SWIDTH 857 0
DWIDTH 12 0
BBX 14 9 -1 0
BITMAP
2BBDDBBEBBBEB2
0006400A000A00
0006400A000A00
0008200A000A00
07CDBBBD102B00
02A00005BB8A00
00750000000A00
000A1000000A00
00023000000500
ENDCHAR
STARTCHAR uni0938094D092B
ENCODING -1
SWIDTH 1092 0
DWIDTH 15 0
BBX 17 9 -1 0
BITMAP
2BBDDBBEBBCDBBBB50
0006400A002ABB8000
0006400A002C007400
0008200A0028004600
07CDBBBD1058004600
02A00005BB88007400
0075000000284B8000
000A10000028000000
000230000014000000
ENDCHAR
STARTCHAR uni0938094D092C
ENCODING -1
SWIDTH 857 0
DWIDTH 12 0
BBX 14 9 -1 0
BITMAP
2BBDDBBBBBBEB2
00064003BB0A00
0006400B500A00
0008200A830A00
07CDBBBA073A00
02A0000C007A00
00750006BB8A00
000A1000000A00
00023000000500
ENDCHAR
STARTCHAR uni0938094D092E
ENCODING -1
SWIDTH 850 0
DWIDTH 12 0
BBX 14 9 -1 0
BITMAP
2BBDDBBEBBCEB1
0006400A001900
0006400A001900
0008200A001900
07CDBBBEBBC900
02A0000A001900
00750004001900
000A1000001900
00023000000400
ENDCHAR
STARTCHAR uni0938094D092F
ENCODING -1
SWIDTH 920 0
DWIDTH 13 0
BBX 14 9 -1 0
BITMAP
2BBDDBBBDCBCEB
00064000190190
00064000290190
0008201CB30190
07CDBBC9000190
02A0000C100690
00750005BBB790
000A1000000190
00023000000040
ENDCHAR
STARTCHAR uni0938094D0932
ENCODING -1
SWIDTH 1027 0
DWIDTH 14 0
BBX 16 9 -1 0
BITMAP
2BBDDBBBBBBBBEC6
0006400000000920
00064005BB3BBB20
0008200A01D10C20
07CDBBC900A00920
02A0001900800920
0075001B00000920
000A1008C8000920
0002300000000410
ENDCHAR
STARTCHAR uni0938094D0935
ENCODING -1
SWIDTH 842 0
DWIDTH 12 0
BBX 13 9 -1 0
BITMAP
2BBDDBBBBBCDB0
00064003B92800
0006400A002800
00082019002800
07CDBBC9002800
02A0001C005800
00750007CB8800
000A1000002800
00023000001400
ENDCHAR
STARTCHAR uni0938094D0938
ENCODING -1
SWIDTH 871 0
DWIDTH 12 0
BBX 14 9 -1 0
BITMAP
2BBDDBBCDBBEB4
00064004700A00
00064004700A00
00082006400A00
07CDBCCDBBBD00
02A001A0000A00
00750047000A00
000A1009200A00
00023001400500
ENDCHAR
STARTCHAR uni0939094D0923
ENCODING -1
SWIDTH 1136 0
DWIDTH 16 0
BBX 18 13 -1 -4
BITMAP
2BBBBCDBDCBCDBCEB1
000003708302801900
005BBC608302801900
00B000008302801900
00A000007302801900
004DBB306605701900
00A102901ABA101900
00A000600000001900
00B100000000000400
003BBB600000000000
000031000000000000
000029000000000000
000007400000000000
ENDCHAR
STARTCHAR uni0939094D092E
ENCODING -1
SWIDTH 746 0
DWIDTH 10 0
BBX 12 10 -1 -1
BITMAP
2BBBBCDBBDC7
000002800820
006BBC700820
00B000000820
00A000000820
006DBC700820
00A002EBBD20
019002800820
00B001400820
005BBB500310
ENDCHAR
STARTCHAR uni0939094D092F
ENCODING -1
SWIDTH 785 0
DWIDTH 11 0
BBX 13 11 -1 -2
BITMAP
2BBBBCDBBBEB20
0000028000A000
006BBC7000A000
00B0000000A000
00A0000000A000
007DBBB900A000
00B0000830A000
019006B900B000
0190066005B000
00B0009BB6A000
003AA500007000
ENDCHAR
STARTCHAR uni0939094D0932
ENCODING -1
SWIDTH 1110 0
DWIDTH 16 0
BBX 17 13 -1 -4
BITMAP
2BBBBCDBBBBBBBDC80
000003700000006400
005BBC600000006400
00B000005BA3ABA400
00A00000B00C209400
004DBB40A00A006400
00A10190B001006400
00A000006CA0006400
00B100000000003200
003BBB600000000000
000020000000000000
000047000000000000
000009200000000000
ENDCHAR
STARTCHAR uni0939094D0935
ENCODING -1
SWIDTH 920 0
DWIDTH 13 0
BBX 15 13 -1 -4
BITMAP
2BBBBCDBBBBCEB10
0000037000009000
005BBC603BA09000
00B00000B1009000
00A00000A0009000
004DBB30A0019000
00A101A0B1049000
00A000504BB89000
00B1000000004000
003BBB6000000000
0000300000000000
0000380000000000
0000093000000000
ENDCHAR
STARTCHAR uni0915093C094D0915093C
ENCODING -1
SWIDTH 1275 0
DWIDTH 18 0
BBX 19 9 -1 0
BITMAP
2BBBBCDBBBBBBDCBBBB0
005B749BB67B488BB400
00B004A00A7008501B00
02800460073008200A00
02800460073008200A00
01B0076005700B201B00
005BB960009BAA29B400
00000460000008200000
00160230004304100000
ENDCHAR
STARTCHAR uni0915093C094D0924
ENCODING -1
SWIDTH 1016 0
DWIDTH 14 0
BBX 16 9 -1 0
BITMAP
2BBBBCDBBBBBBEB4
005B74ABC7000A00
00B004A00ABBBD00
028004600A200A00
028004600A000A00
01B007600A000A00
005BB9600A000A00
0000046008720A00
0016023000540500
ENDCHAR
STARTCHAR uni0915093C094D092B
ENCODING -1
SWIDTH 1246 0
DWIDTH 17 0
BBX 19 9 -1 0
BITMAP
2BBBBCDBBEBBBEBBBB70
005B74600A000BAB9100
00B0049BBD000D105700
028004900A000A001900
028004600A202B001900
01B0076002BB8A005700
005BB96000000A2BA100
0000046000000A000000
00160230000005000000
ENDCHAR
STARTCHAR uni0915093C094D092B093C
ENCODING -1
SWIDTH 1247 0
DWIDTH 17 0
BBX 19 9 -1 0
BITMAP
2BBBBCDBBEBBBEBBBB70
005B74600A000BABA100
00B0049BBD000D105700
028004900A000A001900
028004600A202B001900
01B0076002BB8A005700
005BB96000000A2BA100
0000046000000A000000
00160230008005000000
ENDCHAR
STARTCHAR uni0915093C094D092C
ENCODING -1
SWIDTH 1043 0
DWIDTH 15 0
BBX 16 9 -1 0
BITMAP
2BBBBCDBBBBBBDD8
005B749BB67B6550
00B004A009C20550
0280046006582550
0280046006408750
01B0076004800C50
005BB960008BBA50
0000046000000550
0016023000000220
ENDCHAR
STARTCHAR uni0915093C094D092E
ENCODING -1
SWIDTH 998 0
DWIDTH 14 0
BBX 16 9 -1 0
BITMAP
2BBBBCDBBEBBBEB1
005B74600A000A00
00B004ABBD000A00
028004900CBBBA00
028004600A000A00
01B0076006000A00
005BB96000000A00
0000046000000A00
0016023000000500
ENDCHAR
STARTCHAR uni0916093C094D0924
ENCODING -1
SWIDTH 984 0
DWIDTH 14 0
BBX 15 9 -1 0
BITMAP
2BBCEBBBBBBBCDA0
0001900000003800
000191A806BBC800
0004865019003800
07CB282046003800
02A0065046003800
005701ABC7003800
000840002C503800
0000500803711400
ENDCHAR
STARTCHAR uni0916093C094D092E
ENCODING -1
SWIDTH 965 0
DWIDTH 14 0
BBX 15 9 -1 0
BITMAP
2BBCEBBBCDBBDC70
0001900046007300
000191A846007300
000486504DBBD300
07CB282046007300
02A0065054007300
0047019B90007300
0008400000007300
0000500800003100
ENDCHAR
STARTCHAR uni0916093C094D092F
ENCODING -1
SWIDTH 1045 0
DWIDTH 15 0
BBX 16 9 -1 0
BITMAP
2BBCEBBBBBEBBDD9
0001900000450550
000191A800560550
000486504CA10550
07CB282055000550
02A0065069000950
005701AB78BBB950
0008400000000550
0000500800000220
ENDCHAR
STARTCHAR uni0916093C094D0935
ENCODING -1
SWIDTH 972 0
DWIDTH 14 0
BBX 15 9 -1 0
BITMAP
2BBCEBBBBBBBDD80
0001900006B75500
000191A819005500
0004875046005500
07CB282046005500
02A0034069008500
005700002ACB9500
0008400000005500
0000500800002200
ENDCHAR
STARTCHAR uni0916093C094D0936
ENCODING -1
SWIDTH 1123 0
DWIDTH 16 0
BBX 17 9 -1 0
BITMAP
2BBCEBBB16CC503DA0
000190000A00A04700
000191A80500A04700
000486500001A04700
07CB28209BBB304700
02A006508800004700
004701AB7940004700
0008400001B1004700
000050080024002300
ENDCHAR
STARTCHAR uni0916093C094D0938
ENCODING -1
SWIDTH 1066 0
DWIDTH 15 0
BBX 17 9 -1 0
BITMAP
2BBCEBBBBBDCBCEB10
00019000008200A000
000191A8008200A000
0004865000A100A000
06CB28208CDBBCA000
01A00650680000A000
004701AB783000A000
0008400001A000A000
000050080032005000
ENDCHAR
STARTCHAR uni091C093C094D091C093C
ENCODING -1
SWIDTH 934 0
DWIDTH 13 0
BBX 14 9 -1 0
BITMAP
2BBBBBBBBBBDD9
00000000000550
00BDCB47DCBD50
00019000190550
0000A0000A0550
0000A0000A0550
0001B0001A0550
06BB308BB30550
00800004300220
ENDCHAR
STARTCHAR uni091C093C094D092F
ENCODING -1
SWIDTH 893 0
DWIDTH 13 0
BBX 14 9 -1 0
BITMAP
2BBBBBBCEBBDC7
00000000630740
01BDCBA0740740
0001907C900740
0000A064000740
0000A047000B40
0002A007BBB940
07BB3000000740
00800000000320
ENDCHAR
STARTCHAR uni092B093C094D091C093C
ENCODING -1
SWIDTH 1100 0
DWIDTH 15 0
BBX 17 9 -1 0
BITMAP
2BEBBCEBBBBBBBDC60
00A001900000008200
00A001BAB28DBBE200
00A001C00004608200
00B104900001908200
003BB8900001A08200
000001900004808200
000001900BBA108200
004400400080004100
ENDCHAR
STARTCHAR uni092B093C094D0924
ENCODING -1
SWIDTH 1036 0
DWIDTH 15 0
BBX 16 9 -1 0
BITMAP
2BEBBCEBBBBBBDC7
00A0019000000730
00A001D106ABBD30
00A0019006600730
00B1049008200730
003BB89008200730
0000019007300730
0000019004A30730
0034004000460310
ENDCHAR
STARTCHAR uni092B093C094D092B093C
ENCODING -1
SWIDTH 1256 0
DWIDTH 18 0
BBX 19 9 -1 0
BITMAP
2BEBBCEBBECBBEBBBB80
00A0019009100A9BA100
00A001AABE100C203900
00A001C009100A000A00
00B1049008401C000A00
003BB89001AB9A003900
0000019000000A1BA200
0000019000000A000000
00440040008005000000
ENDCHAR
STARTCHAR uni092B093C094D0938
ENCODING -1
SWIDTH 1141 0
DWIDTH 16 0
BBX 18 9 -1 0
BITMAP
2BEBBCEBBBBDCBBEB1
00A001900007300A00
00A001AAB507300A00
00A001C00B09100A00
00B1049009CDBBBA00
003BB8900390000A00
000001900084000A00
00000190000B000A00
004400400003200500
ENDCHAR
STARTCHAR uni092C094D091C093C
ENCODING -1
SWIDTH 883 0
DWIDTH 12 0
BBX 14 9 -1 0
BITMAP
2BBBBBBBBBBEC6
00000000000910
0052003BDBBE10
009A0000460910
02838000190910
02806400190910
00B00920470910
005BBCCBA10910
00000026000400
ENDCHAR
STARTCHAR uni0932094D091C093C
ENCODING -1
SWIDTH 1062 0
DWIDTH 15 0
BBX 16 10 -1 -1
BITMAP
2BBBBBBBBBBBBDC7
0000000000000730
004BB3A91BDCBD30
00B01D2000280730
00A00A00000A0730
00A00800000A0730
00B0000000290730
006C9002BBB20730
0000000000000310
0000000007000000
ENDCHAR
STARTCHAR uni0936094D0915093C
ENCODING -1
SWIDTH 1093 0
DWIDTH 15 0
BBX 16 9 0 0
BITMAP
09BC42BBBCDBBBB5
0901A04B92ABB800
0000A0B102C00740
000290A002900470
5CBB20A002800470
1A1000B104800750
0390004BB884B900
0075000002800000
0005000701400000
ENDCHAR
STARTCHAR uni0924094D0924094D
ENCODING -1
SWIDTH 309 0
DWIDTH 4 0
BBX 7 9 -1 0
BITMAP
2BBBBB90
00000000
06BDBB90
00460000
00730000
00730000
00640000
003B4000
00036000
ENDCHAR
STARTCHAR uni0928094D092D094D
ENCODING -1
SWIDTH 505 0
DWIDTH 7 0
BBX 10 7 -1 2
BITMAP
2BBBBA00B7
0000092000
0000083000
0000083000
03CBBDCBB7
0640083000
0220052000
ENDCHAR
STARTCHAR uni0928094D0938094D
ENCODING -1
SWIDTH 635 0
DWIDTH 9 0
BBX 12 9 -1 0
BITMAP
2BBBBBBCDBB5
000000037000
000000037000
01BBBA055000
056006DDBBB5
025001A00000
000000480000
000000093000
000000014000
ENDCHAR
STARTCHAR uni092E094D092D094D
ENCODING -1
SWIDTH 533 0
DWIDTH 7 0
BBX 10 7 -1 2
BITMAP
2BEBBC307A
00A0028000
00A0019000
00A0019000
00DBBCEBBA
00A0019000
0070016000
ENDCHAR
STARTCHAR uni0932094D092D094D
ENCODING -1
SWIDTH 694 0
DWIDTH 10 0
BBX 13 8 -1 1
BITMAP
2BBBBBBB803B30
00000000B00000
004BB4ABD00000
00B01D20BBBB30
00A00A00A00000
00A00300700000
00B00000000000
006C9000000000
ENDCHAR
STARTCHAR uni0938094D0924094D0930094D
ENCODING -1
SWIDTH 575 0
DWIDTH 8 0
BBX 11 9 -1 0
BITMAP
2BBDDBBBB600
000640000000
0006401ABB20
000820930190
07CDBBB00090
02A0000001A0
007500004920
000A10087000
000230430000
ENDCHAR
STARTCHAR uni0915094D0924094D092F
ENCODING -1
SWIDTH 1356 0
DWIDTH 19 0
BBX 21 9 -1 0
BITMAP
2BBBBCDBBBBBBBDDBBEB20
005B749BB400000900A000
00B004A00B00001A00A000
0280046007BBBDB300A000
0280046009200A0000A000
01B007600A000B1004B000
005BB9600A0003BBB7A000
000004600872000000A000
0000023000550000005000
ENDCHAR
STARTCHAR uni0915094D0924094D0930
ENCODING -1
SWIDTH 997 0
DWIDTH 14 0
BBX 16 9 -1 0
BITMAP
2BBBBCDBBBBBBEB1
005B749BC5000A00
00B004A00BBB8A00
028004600B003A00
0280046018000A00
01B0076000019A00
005BB960002A2A00
0000046003A10A00
0000023006100500
ENDCHAR
STARTCHAR uni0915094D0924094D0935
ENCODING -1
SWIDTH 1242 0
DWIDTH 17 0
BBX 19 9 -1 0
BITMAP
2BBBBCDBBBBBBBBBDC60
005B749BC60008B48200
00B004A00BBBC6008200
028004601A0073008200
02800460370073008200
01B0076037006600B200
005BB960280009BAA200
000004600C5000008200
00000230027100004100
ENDCHAR
STARTCHAR uni0915094D092A094D0930
ENCODING -1
SWIDTH 1007 0
DWIDTH 14 0
BBX 16 9 -1 0
BITMAP
2BBBBCDBBEBBBEB3
005B74600A000A00
00B0049BBC000A00
028004900A000A00
028004600A102C00
01B0076003BCBB00
005BB96000081A00
0000046000910A00
0000023003200500
ENDCHAR
STARTCHAR uni0915094D0935094D092F
ENCODING -1
SWIDTH 1384 0
DWIDTH 19 0
BBX 21 9 -1 0
BITMAP
2BBBBCDBBBBBBBCEBBEC60
005B749BB7AB3008109100
00B004A00C300009209100
02800460090007C8009100
028004600A000820009100
01B0076009300B5001C100
005BB96002ABB58BBAA100
0000046000000000009100
0000023000000000004100
ENDCHAR
STARTCHAR uni0915094D0938094D091F
ENCODING -1
SWIDTH 1376 0
DWIDTH 19 0
BBX 21 9 -1 0
BITMAP
2BBBBCDBBBBDDBBBBBEB50
005B749BB404600000A000
00B004A00A046009BBA000
0280046007274065000000
0280046007DDBBD1000000
01B0076001A00091001600
005BB96000560084003700
00000460000A102BBBB100
0000023000024000000000
ENDCHAR
STARTCHAR uni0915094D0938094D0921
ENCODING -1
SWIDTH 1388 0
DWIDTH 19 0
BBX 21 9 -1 0
BITMAP
2BBBBCDBBBBDDBBBBBDC70
005B749BB4046000008200
00B004A009046008BBC100
0280046007274029000000
0280046003820008BBB200
01B0076000A20000004800
005BB96000290035002800
000004600009201B448600
0000023000024003775000
ENDCHAR
STARTCHAR uni0915094D0938094D0924
ENCODING -1
SWIDTH 1423 0
DWIDTH 20 0
BBX 22 9 -1 0
BITMAP
2BBBBCDBBBBDDBBBBBBEB1
005B74ABB5046000000A00
00B004A00A046004BBCA00
0280046007274009000A00
0280046007DDBBB9000A00
01B0076001A00019000A00
005BB96000560019000A00
00000460000A100C510A00
0000023000024002720400
ENDCHAR
STARTCHAR uni0915094D0938094D092A094D0930
ENCODING -1
SWIDTH 1437 0
DWIDTH 20 0
BBX 22 9 -1 0
BITMAP
2BBBBCDBBBBCDBBEBBBEB3
005B749BB704600A000A00
00B004A00A16400A000A00
0280046007DDBBBC000A00
0280046002A00008201C00
01B0076000930001ACBB00
005BB960002A0000081A00
0000046000093000820A00
0000023000014003200500
ENDCHAR
STARTCHAR uni0915094D0938094D092A094D0932
ENCODING -1
SWIDTH 1866 0
DWIDTH 26 0
BBX 28 9 -1 0
BITMAP
2BBBBCDBBBBDDBBEBBBBBBBBBEB3
005B749BB404600A000000000A00
00B004A00A04600A0008B94BAB00
028004600727400A003804B01C00
0280046007DDBBBE205501900A00
01B0076001A00004BBC500400A00
005BB96000560000004700000A00
00000460000A1000000AB5000A00
0000023000024000000000000500
ENDCHAR
STARTCHAR uni0917094D0927094D092F
ENCODING -1
SWIDTH 1156 0
DWIDTH 16 0
BBX 18 9 -1 0
BITMAP
2BCDBBEB18BCDBBEB4
002803700000A00A00
002803800000B00A00
002800BC60AB600A00
0057018000A0000A00
08A104600093002D00
00000290009ABB9B00
0000008BBB40000A00
000000000000000500
ENDCHAR
STARTCHAR uni0917094D0927094D0935
ENCODING -1
SWIDTH 1084 0
DWIDTH 15 0
BBX 17 9 -1 0
BITMAP
2BCDBBEB18BBBBEB40
00280370001AB2A000
00280380008300A000
002800AC60A000A000
0057029000A000A000
08A10460009301C000
0000029000BCB9A000
0000007BBB4000A000
000000000000004000
ENDCHAR
STARTCHAR uni0917094D0928094D092F
ENCODING -1
SWIDTH 1069 0
DWIDTH 15 0
BBX 17 9 -1 0
BITMAP
2BCDBBBBBBDDBBEB10
00280000000900A000
00280000001A00A000
002805CBBDB300A000
00570A100A0000A000
08A107000B1005A000
0000000003BBB7A000
00000000000000A000
000000000000005000
ENDCHAR
STARTCHAR uni0917094D092D094D092F
ENCODING -1
SWIDTH 1102 0
DWIDTH 15 0
BBX 17 9 -1 0
BITMAP
2BCDBC507BCEBBDC60
002801A00008308200
002800A00007108200
002800EBBC20008200
005700A00720008200
08A100A0047001C200
00000000007BBAA200
000000000000008200
000000000000004100
ENDCHAR
STARTCHAR uni0917094D0930094D092F
ENCODING -1
SWIDTH 817 0
DWIDTH 11 0
BBX 13 9 -1 0
BITMAP
2BCDBBCEBBDC70
00280007208200
00280008308200
002806C9008200
00570730008200
08A1066001C200
0000009BCDA200
00000002A28200
0000002A104100
ENDCHAR
STARTCHAR uni091A094D091B094D0935
ENCODING -1
SWIDTH 913 0
DWIDTH 13 0
BBX 14 11 -1 -2
BITMAP
2BBBBBBECBBCDB
00000028000460
00000029007C50
0037000AC30190
0073002A0000A0
008300370000A0
0057006A000280
0009BB89DBBC60
0000000A000460
0000000A100830
00000004BBB800
ENDCHAR
STARTCHAR uni091C094D091C094D091E
ENCODING -1
SWIDTH 945 0
DWIDTH 13 0
BBX 15 10 -1 -1
BITMAP
2BBBBBBBBBBBEB50
000000000000A000
00BDCBC50000B000
000190740000A000
0000A01ABB70A000
0000A00000A1A000
0001A0820091A000
06BB308DBB90A000
0000008200005000
0000008200000000
ENDCHAR
STARTCHAR uni091C094D091C094D092F
ENCODING -1
SWIDTH 1252 0
DWIDTH 18 0
BBX 19 9 -1 0
BITMAP
2BBBBBBBBBBBCEBBDC80
00000000000006406400
00BDCB36DCBA07406400
000190002807CA006400
0000A0000A0640006400
0000A0000A038000B400
0001B00029007BBB9400
06BB409BB20000006400
00000000000000003200
ENDCHAR
STARTCHAR uni091C094D091C094D0935
ENCODING -1
SWIDTH 1243 0
DWIDTH 17 0
BBX 18 9 -1 0
BITMAP
2BBBBBBBBBBBBBBDC7
0000000000007B5730
00BDCB36DCBC700730
000190002806400730
0000A0000A06400730
0000A0000A05700A30
0001B00029009BBA30
06BB409BB200000730
000000000000000310
ENDCHAR
STARTCHAR uni0924094D0915094D092F
ENCODING -1
SWIDTH 1346 0
DWIDTH 19 0
BBX 20 9 -1 0
BITMAP
2BBBBBBBBDCBBBDCBCEB
0000006B573000190280
005BBC80078BBCB40280
00B00550077019000280
01900550073019000280
019004800A300B100680
0190008BBA3003BBB780
00B51000073000000280
00172000031000000140
ENDCHAR
STARTCHAR uni0924094D0915094D0930
ENCODING -1
SWIDTH 995 0
DWIDTH 14 0
BBX 16 9 -1 0
BITMAP
2BBBBBBBBDCBBBB1
0000006B578BB400
005BBC8007700B00
00B0055007300910
0190055007300910
019004800A300B00
0190008CDB38B500
00B5100757300000
0017205703100000
ENDCHAR
STARTCHAR uni0924094D0915094D0935
ENCODING -1
SWIDTH 1282 0
DWIDTH 18 0
BBX 20 9 -1 0
BITMAP
2BBBBBBBBDCBBBBBBEB1
0000006B579BB6BA0A00
005BBC8007701C100A00
00B0055007300A000A00
0190055007300A000A00
019004800A300B103A00
0190008BBA3004BB8A00
00B51000073000000A00
00172000031000000400
ENDCHAR
STARTCHAR uni0924094D0915094D0937
ENCODING -1
SWIDTH 943 0
DWIDTH 13 0
BBX 15 9 -1 0
BITMAP
2BBBBB2BBB30BB40
000000460360A000
005BBB6DCDBBD000
00B002B00000A000
029000A00130A000
028000B00570A000
0190006BBA70A000
00B510000370A000
0017200001305000
ENDCHAR
STARTCHAR uni0924094D0916094D0930
ENCODING -1
SWIDTH 1008 0
DWIDTH 14 0
BBX 16 9 -1 0
BITMAP
2BBBBBBBEBBBBEB3
00000000A0000A00
005BBA00A06B1A00
00B00550B1A00A00
029003DB53800A00
029000A201A01C00
0190001A007CCB00
00B5100380081A00
0017200051820500
ENDCHAR
STARTCHAR uni0924094D0924094D092F
ENCODING -1
SWIDTH 888 0
DWIDTH 12 0
BBX 14 9 -1 0
BITMAP
2BBBBBBCEBBDC6
00000000720820
06BDBB60830820
0046009C900820
00730082000820
00730056001C20
00640008BBA920
003B4000000820
00046000000410
ENDCHAR
STARTCHAR uni0924094D0924094D0935
ENCODING -1
SWIDTH 788 0
DWIDTH 11 0
BBX 13 9 -1 0
BITMAP
2BBBBBBBBBEB20
0000002AB0A000
06BDBBD200A000
004600A000A000
007300A000A000
007300A102B000
0064003BB8A000
003B400000A000
00036000005000
ENDCHAR
STARTCHAR uni0924094D0928094D092F
ENCODING -1
SWIDTH 1098 0
DWIDTH 15 0
BBX 17 9 -1 0
BITMAP
2BBBBBBBBBCEBBEC60
000000000008109100
006BBB300009209100
00B002FBBCC8009100
028004700910009100
02800130075001D100
01900000009BBAA100
00B510000000009100
002720000000004000
ENDCHAR
STARTCHAR uni0924094D092A094D0930
ENCODING -1
SWIDTH 763 0
DWIDTH 11 0
BBX 12 9 -1 0
BITMAP
2BBBBCDBBCD9
000003700460
005BBC700460
00B003700460
019002900760
0190007BDA60
019000036460
00B510380460
001720500230
ENDCHAR
STARTCHAR uni0924094D092A094D0932
ENCODING -1
SWIDTH 1219 0
DWIDTH 17 0
BBX 19 9 -1 0
BITMAP
2BBBBCDBBBBBBBBBEB20
0000037000000000A000
005BBC70009B96B9B000
00B0037005705A02C000
0190019008402800A000
0190006BBB401400A000
0190000005600000A000
00B5100000AB5000A000
00172000000000005000
ENDCHAR
STARTCHAR uni0924094D092E094D092F
ENCODING -1
SWIDTH 1096 0
DWIDTH 15 0
BBX 17 9 -1 0
BITMAP
2BBBBCDBBBCEBBEC60
000003700009109100
005BBC700007009100
00B003DBBC10009100
019003700910009100
01900250056001D100
01900000008BBAA100
00B510000000009100
001720000000004000
ENDCHAR
STARTCHAR uni0924094D0930094D092F
ENCODING -1
SWIDTH 848 0
DWIDTH 12 0
BBX 13 9 -1 0
BITMAP
2BBBBBBDCBCEB0
00000001901900
006BB911A01900
01B004DB301900
01700190001900
000008B1006900
0001A33BBB7900
003A1000001900
00610000000400
ENDCHAR
STARTCHAR uni0924094D0938094D092F
ENCODING -1
SWIDTH 1234 0
DWIDTH 17 0
BBX 19 9 -1 0
BITMAP
2BBBBBBBEBBBCEBBEB50
00000000A0000900A000
005BBB20A0000B10A000
00B00281A009B700A000
029000DCCBBE0000A000
0290008400094001D000
0190000B1001ABBAB000
00B5100480000000A000
00172000500000005000
ENDCHAR
STARTCHAR uni0924094D0938094D0935
ENCODING -1
SWIDTH 1155 0
DWIDTH 16 0
BBX 18 9 -1 0
BITMAP
2BBBBBBBEBBBBBBEB4
00000000A0019B2A00
005BBB20A007300A00
00B00281A00A000A00
029000DCCBBE000A00
02900084000A301C00
0190000B1003BB9A00
00B510048000000A00
001720005000000500
ENDCHAR
STARTCHAR uni0926094D0917094D0930
ENCODING -1
SWIDTH 493 0
DWIDTH 7 0
BBX 9 13 -1 -4
BITMAP
2BBBBCEB10
0000019000
004BBC7000
00B1000000
01A0000000
01A0008000
00B101C000
004CCAB000
000820A000
000A16C000
01B747A000
0003907000
0002000000
ENDCHAR
STARTCHAR uni0926094D092C094D0930
ENCODING -1
SWIDTH 483 0
DWIDTH 7 0
BBX 8 13 -1 -4
BITMAP
2BBBBCEA
00000190
00000190
004BBC70
00B10000
01A00000
01900060
00B101B0
006EBAA0
00A65090
00B04880
004BCB10
00028100
ENDCHAR
STARTCHAR uni0926094D092F094D092D
ENCODING -1
SWIDTH 607 0
DWIDTH 9 0
BBX 10 11 -1 -2
BITMAP
2BBBCDBDC7
003BC70730
00A1000730
0091000730
004DB10730
00A1000930
005BBBDB30
0020075730
059A670730
0002C00730
0000370730
ENDCHAR
STARTCHAR uni0926094D092F094D0930
ENCODING -1
SWIDTH 595 0
DWIDTH 8 0
BBX 10 10 -1 -1
BITMAP
2BBBCDBEC5
005BC50910
00B0000910
00A0000910
007DA00910
00A0000910
00A0000B10
007BBBCC10
0000193400
0000420000
ENDCHAR
STARTCHAR uni0927094D0928094D092F
ENCODING -1
SWIDTH 1138 0
DWIDTH 16 0
BBX 18 9 -1 0
BITMAP
2BDC54BBBBBDCBBEB1
00A000000000900A00
009D90000001A00A00
0081005CBBDB400A00
00A000A000A0001A00
00B100C200B1005A00
004BBB84003BBB8A00
000000000000000A00
000000000000000500
ENDCHAR
STARTCHAR uni0928094D0915094D0938
ENCODING -1
SWIDTH 1384 0
DWIDTH 19 0
BBX 21 9 -1 0
BITMAP
2BBBBBBBBEBBBBCEBBEC60
0000009B2A8B7019009200
000007400C208319009200
02CBBE000A003637009200
07400A000A003DDCBBE200
033009401C000A10009200
000002AB9B000290009200
000000000A000074009200
0000000005000005004100
ENDCHAR
STARTCHAR uni0928094D0924094D092F
ENCODING -1
SWIDTH 1073 0
DWIDTH 15 0
BBX 17 9 -1 0
BITMAP
2BBBBBBBBBDDBBEB20
00000000000A00A000
00000000001B00A000
02CBBCDBBDB400A000
07400A200A0000A000
03300A000B1004B000
00000A0003BBB7A000
00000782000000A000
000000550000005000
ENDCHAR
STARTCHAR uni0928094D0924094D0930
ENCODING -1
SWIDTH 732 0
DWIDTH 10 0
BBX 12 9 -1 0
BITMAP
2BBBBBBBBEB5
000000000A00
000001ABAB00
02CBBD201D00
07400A000A00
033003003D00
000000069B00
000000960A00
000004300500
ENDCHAR
STARTCHAR uni0928094D0924094D0938
ENCODING -1
SWIDTH 1134 0
DWIDTH 16 0
BBX 17 9 -1 0
BITMAP
2BBBBBBBBBBECBCEB0
000000000009201900
000002ABB409201900
02BBBD200A0A001900
07400A000BCCBBC900
04400A000470001900
00000A000092001900
00000782001A001900
000000550004201400
ENDCHAR
STARTCHAR uni0928094D0925094D092F
ENCODING -1
SWIDTH 1168 0
DWIDTH 16 0
BBX 18 9 -1 0
BITMAP
2BBB61BB80ACEBBEC6
00000550A000810910
00000210B000920910
02BBBDBB608C800910
06500A000091000910
024008400095001D10
000001ABBB58BBAA10
000000000000000910
000000000000000400
ENDCHAR
STARTCHAR uni0928094D0925094D0935
ENCODING -1
SWIDTH 1089 0
DWIDTH 15 0
BBX 17 9 -1 0
BITMAP
2BBB62CB80ABBBEB40
00000330A01AB2A000
00000000B07400A000
02BBBDBB60A100A000
06500A0000A100A000
0240084000B401C000
000001ABBB5ABAB000
00000000000000A000
000000000000004000
ENDCHAR
STARTCHAR uni0928094D0926094D0930
ENCODING -1
SWIDTH 734 0
DWIDTH 10 0
BBX 12 9 -1 0
BITMAP
2BBBBBBBBEB5
000000000A00
000002BBBC00
03CBBD300000
064009100310
011008300830
000001ABDC30
000000049630
0000001B1310
ENDCHAR
STARTCHAR uni0928094D0926094D0935
ENCODING -1
SWIDTH 732 0
DWIDTH 10 0
BBX 12 11 -1 -2
BITMAP
2BBBBBBBBEB5
000000000A00
0000008BBC00
000005400000
03CBBD100000
06400A100210
012008400830
000001ECBB30
000006500730
000007400A20
000001ABB700
ENDCHAR
STARTCHAR uni0928094D0927094D092F
ENCODING -1
SWIDTH 1097 0
DWIDTH 15 0
BBX 17 9 -1 0
BITMAP
2BBBBDD35BCEBBEC60
00000A000008109100
00000A000009109100
02BBBDDB08B8009100
05500A100910009100
01300A00065001D100
00000A1008BBBAA100
000003BBB700009100
000000000000004000
ENDCHAR
STARTCHAR uni0928094D0927094D0930
ENCODING -1
SWIDTH 783 0
DWIDTH 11 0
BBX 13 9 -1 0
BITMAP
2BBBBDD44BEB10
00000A0000A000
00000A0000A000
02BBBDDB00A000
05500A0000A000
01200B1003A000
000004BBDAA000
00000004A0A000
0000003A005000
ENDCHAR
STARTCHAR uni0928094D0927094D0935
ENCODING -1
SWIDTH 1036 0
DWIDTH 15 0
BBX 16 9 -1 0
BITMAP
2BBBBDD35BBBBDC7
00000A00008B5740
00000A0004800740
02BBBDDB06500740
05500A1006500740
01200A0004800940
00000A1009BCBA40
000003BBB7000740
0000000000000320
ENDCHAR
STARTCHAR uni0928094D0928094D092F
ENCODING -1
SWIDTH 1071 0
DWIDTH 15 0
BBX 17 9 -1 0
BITMAP
2BBBBBBBBBDDBBEB20
00000000000900A000
00000000001A00A000
03CBBCCBBDB400A000
06400A100A0000A000
022003000B1004B000
0000000003BBB7A000
00000000000000A000
000000000000005000
ENDCHAR
STARTCHAR uni0928094D092A094D0930
ENCODING -1
SWIDTH 737 0
DWIDTH 10 0
BBX 12 9 -1 0
BITMAP
2BBBBECBBEC5
000009100910
000009100910
02CBBD100910
074008400C10
033001ABDB10
000000073910
000000740910
000002400400
ENDCHAR
STARTCHAR uni0928094D092B094D0930
ENCODING -1
SWIDTH 975 0
DWIDTH 14 0
BBX 15 9 -1 0
BITMAP
2BBBBDCBBEBBBB90
000009100A9BA200
000009100C202900
02BBBD100A000A00
074007401C000A00
044001ACCB002900
000000081A0BB200
000000820A000000
0000033005000000
ENDCHAR
STARTCHAR uni0928094D092D094D092F
ENCODING -1
SWIDTH 1071 0
DWIDTH 15 0
BBX 17 9 -1 0
BITMAP
2BBBBB01BBDDBBEB20
00000920000A00A000
00000830001700A000
03CBBDCBB90000A000
064008300A0000A000
022005200A2004B000
0000000002ABB7A000
00000000000000A000
000000000000005000
ENDCHAR
STARTCHAR uni0928094D092D094D0935
ENCODING -1
SWIDTH 995 0
DWIDTH 14 0
BBX 16 9 -1 0
BITMAP
2BBBBB00BBBBBEB1
0000092004BA0A00
000008300B100A00
03CBBDCBBB000A00
064008300A000A00
011004100B103A00
0000000004BB7A00
0000000000000A00
0000000000000400
ENDCHAR
STARTCHAR uni0928094D092E094D092F
ENCODING -1
SWIDTH 1071 0
DWIDTH 15 0
BBX 17 9 -1 0
BITMAP
2BBBBDCBBBDDBBEB20
00000830000A00A000
00000830001700A000
03CBBDCBB90000A000
064008300A0000A000
022005200A2004B000
0000000002ABB7A000
00000000000000A000
000000000000005000
ENDCHAR
STARTCHAR uni0928094D0938094D091F
ENCODING -1
SWIDTH 1113 0
DWIDTH 16 0
BBX 17 9 -1 0
BITMAP
2BBBBBBDCBBBBBEC80
000000082000009100
000000082006BBC100
01BBB70A1019000000
05600ACDBBC6000000
025003800046000500
000000830039000A00
0000001B0009BBC400
000000032000000000
ENDCHAR
STARTCHAR uni0928094D0938094D092E094D092F
ENCODING -1
SWIDTH 1453 0
DWIDTH 20 0
BBX 22 9 -1 0
BITMAP
2BBBBBBECBCEBBBCEBBEC5
0000000A10290000910910
0000000A10290000A10910
02CBB60A0029008B800910
06500CCCBBCEBBE1000910
0230056000190085001D10
000000A20000001ABBAA10
0000002A00000000000910
0000000410000000000400
ENDCHAR
STARTCHAR uni0928094D0938094D092F
ENCODING -1
SWIDTH 1194 0
DWIDTH 17 0
BBX 18 9 -1 0
BITMAP
2BBBBBBECBBBEBBDD8
0000000A1000550550
0000000A1000650550
02CBB50A004CA10550
07400CCCBBD5000550
023005700049000A50
000000A20007BBB950
0000002A0000000550
000000041000000220
ENDCHAR
STARTCHAR uni092A094D0924094D092F
ENCODING -1
SWIDTH 1119 0
DWIDTH 16 0
BBX 17 9 -1 0
BITMAP
2BEBBBBBBBBEBBCD90
00A000000004604600
00A000000004704600
00A0006BBCCA104600
00B102B00460005600
003BBA9002A0009600
000001A0006BBB8600
000000B51000004600
000000162000002300
ENDCHAR
STARTCHAR uni092C094D091C094D092F
ENCODING -1
SWIDTH 1235 0
DWIDTH 17 0
BBX 19 9 -1 0
BITMAP
2BBBBBBBBBBBCEBBEB50
0000000000000910A000
005B903BDBB80A10A000
00C60000460AB700A000
02854000190A0000A000
0280720019074001D000
00B0091047019BBAB000
005BBCCBA1000000A000
00000000000000005000
ENDCHAR
STARTCHAR uni092C094D0927094D0935
ENCODING -1
SWIDTH 1097 0
DWIDTH 15 0
BBX 17 9 -1 0
BITMAP
2BBBBBDC40BBBBEC60
004B90A00009B49100
00E400A00066009100
0299306DA082009100
028083B00082009100
028008B0006600C100
00B0098100ACBAB100
004BB52BBB60009100
000000000000004000
ENDCHAR
STARTCHAR uni092C094D092D094D0930
ENCODING -1
SWIDTH 764 0
DWIDTH 11 0
BBX 12 9 -1 0
BITMAP
2BBBBC407CD9
005B92900460
00D501900460
028541EBBC60
028065900A60
00B008807860
005BBA157460
000000390460
000000510230
ENDCHAR
STARTCHAR uni092C094D0932094D092F
ENCODING -1
SWIDTH 480 0
DWIDTH 7 0
BBX 20 9 -1 0
BITMAP
2BBBBBBBBBBBBCEBBDC7
005C9000000000730820
00E2005BB4AB80830820
02A600C00D10AC900820
028171A00A0073000820
00A008A0010057001C20
005BB980000008BBA920
0000003B900000000820
00000000000000000410
ENDCHAR
STARTCHAR uni092D094D0930094D092F
ENCODING -1
SWIDTH 830 0
DWIDTH 12 0
BBX 13 9 -1 0
BITMAP
2C605BBEBBDD90
00B00005605500
00A00005305500
00DBBC50005500
00A00850005500
007058A0009500
0003905BBB8500
001A0000005500
00420000002200
ENDCHAR
STARTCHAR uni092E094D092A094D0930
ENCODING -1
SWIDTH 765 0
DWIDTH 11 0
BBX 12 9 -1 0
BITMAP
2BEBBCDBBCDA
00A003700460
00A003700460
00DBBC700460
00A001900760
0090006BDA60
000000036460
000000380460
000000500230
ENDCHAR
STARTCHAR uni092E094D092C094D092F
ENCODING -1
SWIDTH 1124 0
DWIDTH 16 0
BBX 17 9 -1 0
BITMAP
2BEBBBBBBBBECBCDA0
00A0008C7003703700
00A003E10003403700
00DBBC9A1360003700
00A00552A470003700
007003801BB1008700
0000007BB84BBB8700
000000000000003700
000000000000001300
ENDCHAR
STARTCHAR uni092E094D092C094D0930
ENCODING -1
SWIDTH 768 0
DWIDTH 11 0
BBX 12 9 -1 0
BITMAP
2BEBBBBBBCDA
00A0007B8370
00A002D40370
00DBBC764370
00A003707770
005002A00B70
0000006BD970
000000038370
000000290130
ENDCHAR
STARTCHAR uni092E094D092D094D092F
ENCODING -1
SWIDTH 1101 0
DWIDTH 15 0
BBX 17 9 -1 0
BITMAP
2BEBBC407BCEBBDC60
00A001900008308200
00A001900007108200
00DBBCEBBC20008200
00A001900820008200
00700160047001C200
00000000007BBA9200
000000000000008200
000000000000004100
ENDCHAR
STARTCHAR uni092E094D092D094D0930
ENCODING -1
SWIDTH 759 0
DWIDTH 11 0
BBX 12 9 -1 0
BITMAP
2BEBBC308DD9
00A002800550
00A002800550
00DBBCEBBD50
00A002800B50
007001608850
000000066550
000000380550
000000500220
ENDCHAR
STARTCHAR uni092E094D092D094D0935
ENCODING -1
SWIDTH 1028 0
DWIDTH 14 0
BBX 16 9 -1 0
BITMAP
2BEBBC407BBBBDC6
00A00190009B4820
00A0019006600820
00DBBCEBBD300820
00A0019007300820
0050005006600B20
00000000009BAA20
0000000000000820
0000000000000410
ENDCHAR
STARTCHAR uni0932094D0915094D092F
ENCODING -1
SWIDTH 1534 0
DWIDTH 21 0
BBX 23 9 -1 0
BITMAP
2BBBBBBBBBBBEBBBBEBBDC70
000000001AB1A00007307300
004BB5BBE300A9BCCA107300
00B01D20A000C20730007300
00A00A00A000A00730007300
00A004009301B0048000B300
00B000002AB9A0007BBA9300
006C90000000A00000007300
000000000000400000003100
ENDCHAR
STARTCHAR uni0932094D0925094D092F
ENCODING -1
SWIDTH 1397 0
DWIDTH 20 0
BBX 21 9 -1 0
BITMAP
2BBBBBB81BBA08CEBBDC80
0000000037082005506400
004BA3AC60092005206400
00B01D10CBB80540006400
00A00A00A1000650006400
00A003008500079000A400
00B0000019BBB65BBB8400
006C900000000000006400
0000000000000000003200
ENDCHAR
STARTCHAR uni0932094D0926094D0930
ENCODING -1
SWIDTH 933 0
DWIDTH 13 0
BBX 15 9 -1 0
BITMAP
2BBBBBBBBBBBEB20
000000000000A000
004BB4BB5BBBA000
00B00C10B1000000
00A00A00A0004000
00A00100A100B000
00B000003BBDC000
006C900000769000
0000000003904000
ENDCHAR
STARTCHAR uni0932094D0932094D092F
ENCODING -1
SWIDTH 1476 0
DWIDTH 21 0
BBX 22 9 -1 0
BITMAP
2BBBBBBBBBBBBBBBEBBCD9
0000000000000000460460
004BB4AA6AB59B91470460
00B00D10B20A407DB20460
00A00A00A0082046000560
00A00100A001002A000960
00B00000A1000006BBB860
006C90003BB00000000460
0000000000000000000230
ENDCHAR
STARTCHAR uni0932094D0935094D0921
ENCODING -1
SWIDTH 1247 0
DWIDTH 17 0
BBX 19 9 -1 0
BITMAP
2BBBBBBBBBBBBBBBDC70
0000000009B200007300
004BA3AB830009BBC200
00B01D20A0002A000000
00A00A00A00009BBB200
00A004009000A0003800
00B000005301C0002900
006C90000123B5448600
00000000000027875000
ENDCHAR
STARTCHAR uni0937094D0915094D0930
ENCODING -1
SWIDTH 1042 0
DWIDTH 15 0
BBX 16 9 -1 0
BITMAP
2BEBBBBBBBEBBBB8
00A4001AB1A9BA10
00A0608300C20390
00A018B000A000A0
00B104F000A000A0
003BB9A301C00390
0000002BCCB1BA20
00000001A2A00000
0000000930500000
ENDCHAR
STARTCHAR uni0937094D091F094D092F
ENCODING -1
SWIDTH 997 0
DWIDTH 14 0
BBX 16 9 -1 0
BITMAP
2BFCBBEBBBBBBEB1
00A440CBBB800A00
00A028B000920A00
007DBB8000920A00
00B000007B800A00
0190003165004A00
00A0008209BB7A00
00A645B000000A00
0016871000000500
ENDCHAR
STARTCHAR uni0937094D091F094D0930
ENCODING -1
SWIDTH 493 0
DWIDTH 7 0
BBX 9 11 -1 -2
BITMAP
2BFCBBEB10
00B740A000
00A037B000
007DBB9000
00B0000000
0190000000
00A0007200
00B645C100
0019DB2000
000B1B1000
0075039000
ENDCHAR
STARTCHAR uni0937094D091F094D0935
ENCODING -1
SWIDTH 493 0
DWIDTH 7 0
BBX 9 11 -1 -2
BITMAP
2BFCBBEB10
00B740A000
00A047B000
006DBC9000
00B0000000
0190006200
00B000A100
006DBBA000
00A100A000
00B0029000
005BBA2000
ENDCHAR
STARTCHAR uni0937094D0920094D092F
ENCODING -1
SWIDTH 1006 0
DWIDTH 14 0
BBX 16 9 -1 0
BITMAP
1BDFFFFBBBBBBEB3
00DFFFFBBB900A00
00CFFFD000740A00
006FFF8000740A00
00B212B15C900A00
00A0007347003C00
00A0008308BB8A00
00A645B000000A00
0016872000000500
ENDCHAR
STARTCHAR uni0937094D0920094D0930
ENCODING -1
SWIDTH 512 0
DWIDTH 7 0
BBX 9 11 -1 -2
BITMAP
2BDFFFFB40
00CFFFF000
00DFFFF000
009FFFA000
008767A000
00A0008200
00A0008200
00B545C000
001ACB2000
002A0A3000
0041015000
ENDCHAR
STARTCHAR uni0937094D0923094D092F
ENCODING -1
SWIDTH 1273 0
DWIDTH 18 0
BBX 19 9 -1 0
BITMAP
2BEBBBEBBDCBBECBCDB0
00C700A0074001802800
00A360A0074002902800
00A035A00741CB202800
00B104E1093280002800
003BB93BB800B0007800
0000000000004BBB8800
00000000000000002800
00000000000000001400
ENDCHAR
STARTCHAR uni0937094D092A094D0930
ENCODING -1
SWIDTH 798 0
DWIDTH 11 0
BBX 13 9 -1 0
BITMAP
2BEBBBEBBBEB40
00C700A000A000
00A370A000A000
00A027A000A000
00B104E201C000
003BBA3BBBB000
0000000071A000
0000000820A000
00000033005000
ENDCHAR
STARTCHAR uni0937094D092E094D092F
ENCODING -1
SWIDTH 1121 0
DWIDTH 16 0
BBX 17 9 -1 0
BITMAP
2BEBBBEBBBBECBCD90
00C800A00004704600
00A291A00004404600
00A02ACBBC50004600
00B104E00360004600
003BB99001A0008600
00000000004BBB8600
000000000000004600
000000000000002300
ENDCHAR
STARTCHAR uni0938094D0915094D0930
ENCODING -1
SWIDTH 1084 0
DWIDTH 15 0
BBX 17 9 -1 0
BITMAP
2BBDDBBBBBCDBBBB40
00064004B849BB7000
0006400A004A009300
000820180047005500
07CDBBC80047005500
02A0001C0067009300
00750007CDA75B7000
000A10004847000000
000230029013000000
ENDCHAR
STARTCHAR uni0938094D0915094D0935
ENCODING -1
SWIDTH 1369 0
DWIDTH 19 0
BBX 21 9 -1 0
BITMAP
2BBDDBBBBBCDBBBBBBEB40
00064004B849BC7AB2A000
0006400A004A00B300A000
00082018004700A000A000
07CDBBC8004700A000A000
02A0001C0067009301C000
00750007CB97002AB9B000
000A10000047000000A000
0002300000130000005000
ENDCHAR
STARTCHAR uni0938094D0924094D092F
ENCODING -1
SWIDTH 1185 0
DWIDTH 17 0
BBX 18 9 -1 0
BITMAP
2BBDDBBBBBBBEBBDD8
000640000000550650
000640000000650650
00082005BBCCA10650
07CDBBBA0055000650
02A000280039000A50
007500280007BBB950
000A100C5100000650
000230027200000320
ENDCHAR
STARTCHAR uni0938094D0924094D0930
ENCODING -1
SWIDTH 818 0
DWIDTH 11 0
BBX 13 9 -1 0
BITMAP
2BBDDBBBBBDC70
00064000008200
00064009BBA200
0008206600B200
07CDBBC2008200
02A0000000A200
007500002AB200
000A1006918200
00023025004100
ENDCHAR
STARTCHAR uni0938094D0924094D0935
ENCODING -1
SWIDTH 1126 0
DWIDTH 16 0
BBX 17 9 -1 0
BITMAP
2BBDDBBBBBBBBBCDA0
000640000003B83700
00064005BBBB003700
0008200A0029003700
07CDBBC90029003700
02A00028001B006700
007500290005BB8700
000A100C5100003700
000230027200001300
ENDCHAR
STARTCHAR uni0938094D0925094D092F
ENCODING -1
SWIDTH 1303 0
DWIDTH 18 0
BBX 20 9 -1 0
BITMAP
2BBDDB33CC51BCEBBEB4
0006400920A000900A00
0006400301A000B00A00
0008200CBB309B600A00
07CDBBBB0000A0000A00
0290000C1000B3002D00
00650004BBBA39BB9B00
000A1000000000000A00
00023000000000000500
ENDCHAR
STARTCHAR uni0938094D092A094D0930
ENCODING -1
SWIDTH 850 0
DWIDTH 12 0
BBX 14 9 -1 0
BITMAP
2BBDCBBEBBCEB1
0006400A001900
0007300A001900
07CDBBBA001900
03900009004900
00A20003BCA900
00290000181900
00092001901900
00023004100400
ENDCHAR
STARTCHAR uni0938094D092E094D092F
ENCODING -1
SWIDTH 1189 0
DWIDTH 17 0
BBX 18 9 -1 0
BITMAP
2BBDDBBEBBBBEBBDD9
0006400A0000450550
0006400A0000560550
0008200A004CA10550
07CDBBBEBBC6000550
02A0000A0039000950
007500000007BBB850
000A10000000000550
000230000000000220
ENDCHAR
STARTCHAR uni093F.a01
ENCODING -1
SWIDTH 231 0
DWIDTH 3 0
BBX 8 13 -1 0
BITMAP
003BBBC4
00A1000A
00A00009
00A00000
2BEB4000
00A00000
00A00000
00A00000
00A00000
00A00000
00A00000
00A00000
00500000
ENDCHAR
STARTCHAR uni093F.a04
ENCODING -1
SWIDTH 231 0
DWIDTH 3 0
BBX 10 13 -1 0
BITMAP
003BBBBBC4
00A100001A
00A0000009
00A0000000
2BEB400000
00A0000000
00A0000000
00A0000000
00A0000000
00A0000000
00A0000000
00A0000000
0050000000
ENDCHAR
STARTCHAR uni093F.a05
ENCODING -1
SWIDTH 231 0
DWIDTH 3 0
BBX 11 13 -1 0
BITMAP
003BBBBBBB10
00A100000560
00A000000370
00A000000000
2BEB40000000
00A000000000
00A000000000
00A000000000
00A000000000
00A000000000
00A000000000
00A000000000
005000000000
ENDCHAR
STARTCHAR uni093F.a06
ENCODING -1
SWIDTH 231 0
DWIDTH 3 0
BBX 12 13 -1 0
BITMAP
003BBBBBBB70
00A1000000A1
00A000000082
00A000000000
2BEB40000000
00A000000000
00A000000000
00A000000000
00A000000000
00A000000000
00A000000000
00A000000000
005000000000
ENDCHAR
STARTCHAR uni093F.a07
ENCODING -1
SWIDTH 231 0
DWIDTH 3 0
BBX 12 13 -1 0
BITMAP
003BBBBBBBC3
00A10000001A
00A000000009
00A000000000
2BEB40000000
00A000000000
00A000000000
00A000000000
00A000000000
00A000000000
00A000000000
00A000000000
005000000000
ENDCHAR
STARTCHAR uni093F.a08
ENCODING -1
SWIDTH 231 0
DWIDTH 3 0
BBX 13 13 -1 0
BITMAP
003BBBBBBBBB10
00A10000000550
00A00000000360
00A00000000000
2BEB4000000000
00A00000000000
00A00000000000
00A00000000000
00A00000000000
00A00000000000
00A00000000000
00A00000000000
00500000000000
ENDCHAR
STARTCHAR uni093F.a09
ENCODING -1
SWIDTH 231 0
DWIDTH 3 0
BBX 14 13 -1 0
BITMAP
003BBBBBBBBB70
00A100000000A0
00A00000000081
00A00000000000
2BEB4000000000
00A00000000000
00A00000000000
00A00000000000
00A00000000000
00A00000000000
00A00000000000
00A00000000000
00500000000000
ENDCHAR
STARTCHAR uni093F.a10
ENCODING -1
SWIDTH 231 0
DWIDTH 3 0
BBX 14 13 -1 0
BITMAP
003BBBBBBBBBB3
00A1000000001A
00A00000000009
00A00000000000
2BEB4000000000
00A00000000000
00A00000000000
00A00000000000
00A00000000000
00A00000000000
00A00000000000
00A00000000000
00500000000000
ENDCHAR
STARTCHAR uni093F.a11
ENCODING -1
SWIDTH 231 0
DWIDTH 3 0
BBX 15 13 -1 0
BITMAP
003BBBBBBBBBBA00
00A1000000000650
00A0000000000460
00A0000000000000
2BEB400000000000
00A0000000000000
00A0000000000000
00A0000000000000
00A0000000000000
00A0000000000000
00A0000000000000
00A0000000000000
0050000000000000
ENDCHAR
STARTCHAR uni093F.a12
ENCODING -1
SWIDTH 231 0
DWIDTH 3 0
BBX 16 13 -1 0
BITMAP
003BBBBBBBBBBB70
00A10000000000A0
00A0000000000081
00A0000000000000
2BEB400000000000
00A0000000000000
00A0000000000000
00A0000000000000
00A0000000000000
00A0000000000000
00A0000000000000
00A0000000000000
0050000000000000
ENDCHAR
STARTCHAR uni093F.a13
ENCODING -1
SWIDTH 231 0
DWIDTH 3 0
BBX 16 13 -1 0
BITMAP
003BBBBBBBBBBBB3
00A100000000001A
00A0000000000009
00A0000000000000
2BEB400000000000
00A0000000000000
00A0000000000000
00A0000000000000
00A0000000000000
00A0000000000000
00A0000000000000
00A0000000000000
0050000000000000
ENDCHAR
STARTCHAR uni093F.a14
ENCODING -1
SWIDTH 231 0
DWIDTH 3 0
BBX 17 13 -1 0
BITMAP
003BBBBBBBBBBBBA00
00A100000000000650
00A000000000000460
00A000000000000000
2BEB40000000000000
00A000000000000000
00A000000000000000
00A000000000000000
00A000000000000000
00A000000000000000
00A000000000000000
00A000000000000000
005000000000000000
ENDCHAR
STARTCHAR uni093F.a15
ENCODING -1
SWIDTH 231 0
DWIDTH 3 0
BBX 18 13 -1 0
BITMAP
003BBBBBBBBBBBBC60
00A1000000000000B0
00A000000000000091
00A000000000000000
2BEB40000000000000
00A000000000000000
00A000000000000000
00A000000000000000
00A000000000000000
00A000000000000000
00A000000000000000
00A000000000000000
005000000000000000
ENDCHAR
STARTCHAR uni093F.a16
ENCODING -1
SWIDTH 231 0
DWIDTH 3 0
BBX 18 13 -1 0
BITMAP
003BBBBBBBBBBBBBB3
00A100000000000019
00A000000000000009
00A000000000000000
2BEB40000000000000
00A000000000000000
00A000000000000000
00A000000000000000
00A000000000000000
00A000000000000000
00A000000000000000
00A000000000000000
005000000000000000
ENDCHAR
STARTCHAR uni093F.a17
ENCODING -1
SWIDTH 231 0
DWIDTH 3 0
BBX 19 13 -1 0
BITMAP
003BBBBBBBBBBBBBBA00
00A10000000000000740
00A00000000000000450
00A00000000000000000
2BEB4000000000000000
00A00000000000000000
00A00000000000000000
00A00000000000000000
00A00000000000000000
00A00000000000000000
00A00000000000000000
00A00000000000000000
00500000000000000000
ENDCHAR
STARTCHAR uni093F.a18
ENCODING -1
SWIDTH 231 0
DWIDTH 3 0
BBX 20 13 -1 0
BITMAP
003BBBBBBBBBBBBBBC60
00A100000000000000B0
00A00000000000000091
00A00000000000000000
2BEB4000000000000000
00A00000000000000000
00A00000000000000000
00A00000000000000000
00A00000000000000000
00A00000000000000000
00A00000000000000000
00A00000000000000000
00500000000000000000
ENDCHAR
STARTCHAR uni093F.a19
ENCODING -1
SWIDTH 231 0
DWIDTH 3 0
BBX 20 13 -1 0
BITMAP
003BBBBBBBBBBBBBBBB2
00A10000000000000029
00A0000000000000000A
00A00000000000000000
2BEB4000000000000000
00A00000000000000000
00A00000000000000000
00A00000000000000000
00A00000000000000000
00A00000000000000000
00A00000000000000000
00A00000000000000000
00500000000000000000
ENDCHAR
STARTCHAR uni093F.a20
ENCODING -1
SWIDTH 231 0
DWIDTH 3 0
BBX 21 13 -1 0
BITMAP
003BBBBBBBBBBBBBBBBA00
00A1000000000000000740
00A0000000000000000550
00A0000000000000000000
2BEB400000000000000000
00A0000000000000000000
00A0000000000000000000
00A0000000000000000000
00A0000000000000000000
00A0000000000000000000
00A0000000000000000000
00A0000000000000000000
0050000000000000000000
ENDCHAR
STARTCHAR uni093F.a21
ENCODING -1
SWIDTH 231 0
DWIDTH 3 0
BBX 21 13 -1 0
BITMAP
003BBBBBBBBBBBBBBBBC60
00A10000000000000000B0
00A0000000000000000090
00A0000000000000000000
2BEB400000000000000000
00A0000000000000000000
00A0000000000000000000
00A0000000000000000000
00A0000000000000000000
00A0000000000000000000
00A0000000000000000000
00A0000000000000000000
0050000000000000000000
ENDCHAR
STARTCHAR uni093F.a22
ENCODING -1
SWIDTH 231 0
DWIDTH 3 0
BBX 22 13 -1 0
BITMAP
003BBBBBBBBBBBBBBBBBB2
00A1000000000000000028
00A0000000000000000009
00A0000000000000000000
2BEB400000000000000000
00A0000000000000000000
00A0000000000000000000
00A0000000000000000000
00A0000000000000000000
00A0000000000000000000
00A0000000000000000000
00A0000000000000000000
0050000000000000000000
ENDCHAR
STARTCHAR uni093F.a23
ENCODING -1
SWIDTH 231 0
DWIDTH 3 0
BBX 23 13 -1 0
BITMAP
003BBBBBBBBBBBBBBBBBBA00
00A100000000000000000740
00A000000000000000000550
00A000000000000000000000
2BEB40000000000000000000
00A000000000000000000000
00A000000000000000000000
00A000000000000000000000
00A000000000000000000000
00A000000000000000000000
00A000000000000000000000
00A000000000000000000000
005000000000000000000000
ENDCHAR
ENDFONT
